<?xml version="1.0" encoding="UTF-8"?><svg xmlns="http://www.w3.org/2000/svg" xmlns:xlink="http://www.w3.org/1999/xlink" contentScriptType="text/ecmascript" width="375" zoomAndPan="magnify" contentStyleType="text/css" viewBox="0 0 375 374.999991" height="374.999991" preserveAspectRatio="xMidYMid meet" version="1.0"><defs><clipPath id="clip-0"><path d="M 112.5 112.5 L 262.5 112.5 L 262.5 262.5 L 112.5 262.5 Z M 112.5 112.5 " clip-rule="nonzero"/></clipPath></defs><g clip-path="url(#clip-0)"><path fill="rgb(0.389099%, 0.389099%, 0.389099%)" d="M 245.832031 112.5 L 129.167969 112.5 C 119.957031 112.5 112.5 119.957031 112.5 129.167969 L 112.5 245.832031 C 112.5 255.042969 119.957031 262.5 129.167969 262.5 L 245.832031 262.5 C 255.042969 262.5 262.5 255.042969 262.5 245.832031 L 262.5 129.167969 C 262.5 119.957031 255.042969 112.5 245.832031 112.5 Z M 162.5 229.167969 L 141.476562 229.167969 L 141.476562 170.832031 L 162.5 170.832031 Z M 151.617188 160.140625 C 145.191406 160.140625 140.898438 155.859375 140.898438 150.140625 C 140.898438 144.425781 145.183594 140.140625 152.324219 140.140625 C 158.75 140.140625 163.042969 144.425781 163.042969 150.140625 C 163.042969 155.859375 158.757812 160.140625 151.617188 160.140625 Z M 237.5 229.167969 L 217.148438 229.167969 L 217.148438 197.285156 C 217.148438 188.464844 211.726562 186.433594 209.691406 186.433594 C 207.660156 186.433594 200.875 187.792969 200.875 197.285156 C 200.875 198.640625 200.875 229.167969 200.875 229.167969 L 179.851562 229.167969 L 179.851562 170.832031 L 200.875 170.832031 L 200.875 178.976562 C 203.582031 174.226562 209.007812 170.832031 219.183594 170.832031 C 229.359375 170.832031 237.5 178.976562 237.5 197.285156 Z M 237.5 229.167969 " fill-opacity="1" fill-rule="nonzero"/></g></svg>