<?xml version="1.0" encoding="UTF-8"?><svg xmlns="http://www.w3.org/2000/svg" xmlns:xlink="http://www.w3.org/1999/xlink" contentScriptType="text/ecmascript" width="375" zoomAndPan="magnify" contentStyleType="text/css" viewBox="0 0 375 374.999991" height="374.999991" preserveAspectRatio="xMidYMid meet" version="1.0"><defs><clipPath id="clip-0"><path d="M 112.5 112.5 L 262.5 112.5 L 262.5 262.5 L 112.5 262.5 Z M 112.5 112.5 " clip-rule="nonzero"/></clipPath></defs><g clip-path="url(#clip-0)"><path fill="rgb(0.389099%, 0.389099%, 0.389099%)" d="M 187.46875 126.023438 C 207.484375 126.023438 209.847656 126.089844 217.769531 126.453125 C 225.066406 126.78125 229.042969 127.996094 231.703125 129.046875 C 235.1875 130.394531 237.6875 132.039062 240.316406 134.667969 C 242.945312 137.296875 244.554688 139.796875 245.9375 143.277344 C 246.953125 145.90625 248.171875 149.886719 248.53125 157.214844 C 248.894531 165.132812 248.960938 167.5 248.960938 187.515625 C 248.960938 207.53125 248.894531 209.898438 248.53125 217.820312 C 248.203125 225.113281 246.988281 229.089844 245.9375 231.753906 C 244.589844 235.238281 242.945312 237.734375 240.316406 240.363281 C 237.6875 242.992188 235.1875 244.605469 231.703125 245.984375 C 229.074219 247.003906 225.097656 248.21875 217.769531 248.582031 C 209.847656 248.941406 207.484375 249.007812 187.46875 249.007812 C 167.453125 249.007812 165.085938 248.941406 157.164062 248.582031 C 149.867188 248.253906 145.890625 247.035156 143.230469 245.984375 C 139.746094 244.636719 137.246094 242.992188 134.617188 240.363281 C 131.988281 237.734375 130.378906 235.238281 129 231.753906 C 127.980469 229.125 126.765625 225.148438 126.402344 217.820312 C 126.039062 209.898438 125.976562 207.53125 125.976562 187.515625 C 125.976562 167.5 126.039062 165.132812 126.402344 157.214844 C 126.730469 149.917969 127.945312 145.941406 129 143.277344 C 130.347656 139.796875 131.988281 137.296875 134.617188 134.667969 C 137.246094 132.039062 139.746094 130.429688 143.230469 129.046875 C 145.859375 128.027344 149.835938 126.8125 157.164062 126.453125 C 165.085938 126.089844 167.453125 126.023438 187.46875 126.023438 M 187.46875 112.515625 C 167.089844 112.515625 164.558594 112.613281 156.539062 112.976562 C 148.554688 113.339844 143.097656 114.621094 138.332031 116.460938 C 133.402344 118.367188 129.230469 120.929688 125.054688 125.105469 C 120.914062 129.277344 118.351562 133.453125 116.445312 138.382812 C 114.601562 143.148438 113.320312 148.601562 112.960938 156.589844 C 112.597656 164.574219 112.5 167.140625 112.5 187.484375 C 112.5 207.859375 112.597656 210.390625 112.960938 218.410156 C 113.320312 226.398438 114.601562 231.851562 116.445312 236.617188 C 118.351562 241.546875 120.914062 245.722656 125.085938 249.894531 C 129.261719 254.070312 133.4375 256.632812 138.367188 258.539062 C 143.132812 260.378906 148.585938 261.660156 156.574219 262.023438 C 164.558594 262.386719 167.125 262.484375 187.5 262.484375 C 207.875 262.484375 210.40625 262.386719 218.425781 262.023438 C 226.414062 261.660156 231.867188 260.378906 236.632812 258.539062 C 241.5625 256.632812 245.738281 254.070312 249.914062 249.894531 C 254.085938 245.722656 256.648438 241.546875 258.554688 236.617188 C 260.398438 231.851562 261.679688 226.398438 262.039062 218.410156 C 262.402344 210.425781 262.5 207.859375 262.5 187.484375 C 262.5 167.105469 262.402344 164.574219 262.039062 156.558594 C 261.679688 148.570312 260.398438 143.113281 258.554688 138.347656 C 256.648438 133.417969 254.085938 129.246094 249.914062 125.070312 C 245.738281 120.898438 241.5625 118.332031 236.632812 116.425781 C 231.867188 114.585938 226.414062 113.304688 218.425781 112.945312 C 210.40625 112.613281 207.84375 112.515625 187.46875 112.515625 " fill-opacity="1" fill-rule="nonzero"/></g><path fill="rgb(0.389099%, 0.389099%, 0.389099%)" d="M 187.46875 148.996094 C 166.203125 148.996094 148.980469 166.21875 148.980469 187.484375 C 148.980469 208.746094 166.234375 226.003906 187.5 226.003906 C 208.765625 226.003906 226.019531 208.78125 226.019531 187.484375 C 225.984375 166.21875 208.730469 148.996094 187.46875 148.996094 M 187.46875 212.496094 C 173.664062 212.496094 162.488281 201.320312 162.488281 187.515625 C 162.488281 173.710938 173.664062 162.539062 187.46875 162.539062 C 201.269531 162.539062 212.445312 173.710938 212.445312 187.515625 C 212.476562 201.289062 201.269531 212.496094 187.46875 212.496094 " fill-opacity="1" fill-rule="nonzero"/><path fill="rgb(0.389099%, 0.389099%, 0.389099%)" d="M 236.503906 147.484375 C 236.503906 152.449219 232.460938 156.492188 227.496094 156.492188 C 222.535156 156.492188 218.492188 152.449219 218.492188 147.484375 C 218.492188 142.523438 222.535156 138.480469 227.496094 138.480469 C 232.460938 138.480469 236.503906 142.488281 236.503906 147.484375 " fill-opacity="1" fill-rule="nonzero"/></svg>