<?xml version="1.0" encoding="UTF-8"?><svg xmlns="http://www.w3.org/2000/svg" xmlns:xlink="http://www.w3.org/1999/xlink" contentScriptType="text/ecmascript" width="375" zoomAndPan="magnify" contentStyleType="text/css" viewBox="0 0 375 374.999991" height="374.999991" preserveAspectRatio="xMidYMid meet" version="1.0"><defs><clipPath id="clip-0"><path d="M 112.5 112.5 L 262 112.5 L 262 262.5 L 112.5 262.5 Z M 112.5 112.5 " clip-rule="nonzero"/></clipPath></defs><g clip-path="url(#clip-0)"><path fill="rgb(0%, 0%, 0%)" d="M 187.5 112.5 C 146.441406 112.5 113.074219 145.867188 113.074219 186.925781 C 113.074219 201.777344 117.859375 215.375 125.328125 227.003906 L 112.535156 262.742188 L 152.34375 251.515625 C 162.898438 257.285156 174.617188 261.355469 187.5 261.355469 C 228.558594 261.355469 261.925781 227.988281 261.925781 186.925781 C 261.925781 145.867188 228.558594 112.5 187.5 112.5 Z M 187.5 123.949219 C 222.34375 123.949219 250.476562 152.085938 250.476562 186.925781 C 250.476562 221.769531 222.34375 249.90625 187.5 249.90625 C 175.558594 249.90625 164.511719 246.550781 154.9375 240.78125 L 152.835938 239.484375 L 130.785156 245.65625 L 137.941406 225.796875 L 136.195312 223.378906 C 128.863281 213.046875 124.523438 200.523438 124.523438 186.925781 C 124.523438 152.085938 152.65625 123.949219 187.5 123.949219 Z M 159.589844 146.851562 C 158.292969 146.851562 156.144531 147.386719 154.3125 149.535156 C 152.523438 151.636719 147.421875 156.78125 147.421875 167.246094 C 147.421875 177.667969 154.492188 187.777344 155.476562 189.207031 C 156.457031 190.640625 169.386719 212.066406 189.15625 221.277344 C 193.851562 223.46875 197.519531 224.765625 200.382812 225.75 C 205.121094 227.363281 209.417969 227.136719 212.816406 226.601562 C 216.617188 225.976562 224.488281 221.457031 226.144531 216.492188 C 227.753906 211.527344 227.800781 207.277344 227.261719 206.382812 C 226.816406 205.488281 225.472656 204.953125 223.507812 203.925781 C 221.539062 202.851562 211.832031 197.707031 210.042969 197.035156 C 208.253906 196.277344 206.910156 195.960938 205.570312 198.066406 C 204.273438 200.210938 200.515625 204.996094 199.351562 206.382812 C 198.191406 207.816406 197.070312 207.996094 195.105469 206.921875 C 193.089844 205.847656 186.738281 203.609375 179.226562 196.363281 C 173.367188 190.730469 169.386719 183.796875 168.265625 181.648438 C 167.105469 179.503906 168.132812 178.382812 169.117188 177.355469 C 170.011719 176.371094 171.085938 174.851562 172.070312 173.597656 C 173.054688 172.390625 173.367188 171.453125 174.035156 170.066406 C 174.707031 168.632812 174.394531 167.382812 173.902344 166.351562 C 173.367188 165.277344 169.429688 154.8125 167.820312 150.5625 C 166.210938 146.449219 164.554688 146.984375 163.347656 146.941406 C 162.230469 146.851562 160.886719 146.851562 159.589844 146.851562 Z M 159.589844 146.851562 " fill-opacity="1" fill-rule="nonzero"/></g></svg>