<svg width="31" height="30" viewBox="0 0 31 30" fill="none" xmlns="http://www.w3.org/2000/svg">
<g clip-path="url(#clip0_104_92)">
<path opacity="0.35" d="M23.8154 30C22.8706 30.0002 21.935 29.8203 21.0621 29.4706C20.1891 29.1209 19.3959 28.6082 18.7278 27.9618L2.10629 11.8765C1.09909 10.9046 0.412654 9.66522 0.13393 8.31544C-0.144793 6.96566 -0.00325662 5.5662 0.540609 4.29433C1.08447 3.02247 2.00619 1.93544 3.189 1.17096C4.37181 0.406481 5.76247 -0.00104795 7.18482 2.02381e-06H23.8154C25.7209 2.02381e-06 27.5484 0.732542 28.8958 2.03647C30.2432 3.3404 31.0001 5.10891 31.0001 6.95294V23.0471C30.9977 24.8904 30.24 26.6575 28.8931 27.961C27.5462 29.2644 25.7202 29.9977 23.8154 30Z" fill="#32EF8F"/>
<path d="M7.18488 30C5.76448 29.9968 4.37684 29.5868 3.19685 28.8217C2.01687 28.0565 1.09736 26.9704 0.554241 25.7002C0.0111183 24.4301 -0.131313 23.0328 0.144899 21.6845C0.421112 20.3361 1.10361 19.0971 2.10635 18.1235L18.7278 2.03824C19.3953 1.39225 20.1878 0.879823 21.06 0.530217C21.9321 0.180611 22.8669 0.000671394 23.8109 0.000671387C24.7549 0.00067138 25.6897 0.180611 26.5619 0.530217C27.434 0.879823 28.2265 1.39225 28.894 2.03824C29.5615 2.68422 30.091 3.45112 30.4523 4.29515C30.8135 5.13917 30.9995 6.04379 30.9995 6.95735C30.9995 7.87092 30.8135 8.77554 30.4523 9.61956C30.091 10.4636 29.5615 11.2305 28.894 11.8765L12.2725 27.9618C11.605 28.609 10.8119 29.1222 9.93877 29.472C9.06569 29.8217 8.12982 30.0012 7.18488 30Z" fill="#32EF8F"/>
</g>
<defs>
<clipPath id="clip0_104_92">
<rect width="31" height="30" fill="white"/>
</clipPath>
</defs>
</svg>
