<svg width="479" height="443" viewBox="0 0 479 443" fill="none" xmlns="http://www.w3.org/2000/svg">
<path d="M145.471 156.359C98.9278 158.34 73.4716 170.267 59.4729 214.711C67.3362 213.193 75.3963 212.986 83.3271 214.099C82.8249 216.178 80.8814 225.109 80.0252 230.613C94.0866 224.253 110.973 222.661 121.373 225.966C122.483 221.214 123.83 216.521 125.409 211.904C133.85 205.544 160.027 208.236 167.246 213.373C183.088 179.42 182.731 154.774 145.471 156.359ZM462.549 343.278C457.397 339.577 398.459 313.184 398.203 313.064C392.794 310.482 393.718 308.579 387.684 279.178C386.348 272.4 384.632 265.701 382.545 259.115C377.04 258.016 371.29 256.057 357.101 250.553C334.979 254.093 323.281 255.65 300.83 249.82C300.077 287.929 298.821 310.083 299.439 324.963C300.443 349.754 306.59 354.309 328.599 378.756C342.979 394.728 361.41 413.796 363.218 415.576C363.835 416.182 364.187 416.769 365.42 416.433C370.133 415.137 385.708 400.111 387.684 393.801C388.759 390.364 389.286 392.689 362.728 356.001C343.429 329.342 346.078 337.638 346.213 312.812C346.246 306.907 346.409 304.71 346.409 304.71C346.409 304.71 349.036 312.707 354.899 327.369C358.399 336.117 363.3 339.846 371.29 342.781C371.557 342.879 371.896 342.989 449.826 372.875C453.226 375.602 468.997 347.911 462.549 343.278ZM320.898 169.569L313.312 161.742C313.312 161.742 314.045 161.009 314.658 160.273C311.723 160.148 308.298 160.397 308.298 160.397C308.298 160.397 308.785 175.563 308.785 175.809L320.898 169.572V169.569ZM348.543 165.29C347.892 165.028 347.19 164.915 346.489 164.959C344.481 165.079 339.527 166.149 321.018 169.572L327.258 180.58L348.543 165.288V165.29Z" fill="#00B37E"/>
<path d="M116.003 148.04C119.794 143.52 115.596 137.903 116.254 134.217C116.411 133.378 116.873 132.627 117.55 132.108C118.228 131.588 119.074 131.338 119.925 131.405C121.331 131.53 122.719 131.776 124.083 132.138C125.675 132.389 126.539 131.769 125.552 129.08C123.975 124.793 122.37 121.25 124.572 118.192C114.908 122.353 111.483 128.836 110.993 133.85C112.585 136.786 114.257 138.267 115.031 140.09C116.025 142.614 116.359 145.35 116.003 148.04ZM26.9334 354.045C22.1625 351.963 19.1042 352.453 16.902 354.166C15.3126 356.124 16.1688 359.916 16.1688 360.159C19.5603 357.793 23.1639 355.746 26.9334 354.045ZM45.6501 386.095C46.8805 387.222 48.5001 387.835 50.1699 387.808C52.249 386.705 52.0029 381.934 47.9678 374.961C44.5503 378.632 45.6501 386.095 45.6501 386.095ZM7.60642 372.393C6.87322 376.661 17.6051 390.281 21.0627 394.411C23.1217 396.875 29.1355 404.204 35.1242 410.193C40.5077 415.576 43.32 417.532 46.868 417.166C52.9847 414.597 38.0118 394.105 28.6408 383.157C18.3258 371.102 8.46266 367.378 7.60642 372.393ZM131.036 419.491C125.154 414.63 118.803 410.368 112.075 406.768C105.846 403.815 103.88 404.566 103.146 405.545C102.844 406.126 102.717 406.782 102.782 407.434C102.848 408.086 103.101 408.704 103.513 409.214C109.75 418.635 119.538 425.239 123.696 428.176C127.854 431.114 139.013 438.484 145.471 439.797C148.294 440.37 150.609 440.164 150.975 439.308C151.342 438.451 151.098 437.228 148.653 434.414C143.038 429.143 137.158 424.162 131.036 419.491ZM108.038 393.678C108.038 393.678 110.973 390.13 114.154 386.951C112.442 386.449 109.002 385.593 107.305 387.561C105.205 389.995 108.038 393.678 108.038 393.678ZM145.348 412.151C145.526 411.171 145.498 410.165 145.266 409.196C145.035 408.228 144.604 407.318 144.002 406.524C143.124 407.511 142.481 408.684 142.121 409.956C141.761 411.227 141.693 412.563 141.923 413.864C142.594 413.902 143.263 413.764 143.864 413.463C144.464 413.163 144.976 412.711 145.348 412.151ZM475.272 351.604C471.839 349.459 468.078 347.889 464.139 346.957C462.888 356.782 458.464 365.931 451.539 373.013C456.058 380.229 454.941 389.394 455.822 397.6C456.096 400.167 457.291 402.843 459.247 403.104C460.962 403.335 462.667 402.125 465.118 397.6C471.348 386.098 474.775 372.491 477.718 359.557C478.219 358.144 478.251 356.608 477.81 355.176C477.37 353.744 476.48 352.491 475.272 351.604ZM387.805 393.932C384.87 401.638 369.457 416.074 364.687 416.561C365.101 420.111 364.186 423.689 362.118 426.605C359.667 429.783 355.178 432.026 351.72 435.169C351.064 435.718 350.545 436.412 350.205 437.197C349.865 437.982 349.713 438.835 349.761 439.689C349.994 440.393 350.461 440.995 351.085 441.396C351.708 441.796 352.45 441.971 353.186 441.891H363.707C365.795 441.791 367.839 441.261 369.712 440.335C371.586 439.408 373.248 438.106 374.595 436.508C382.663 428.388 390.067 419.634 396.737 410.331C397.693 409.227 398.219 407.815 398.219 406.355C398.219 404.894 397.693 403.483 396.737 402.379C394.326 399.398 391.11 397.226 387.805 393.924V393.932ZM108.038 131.038C108.266 131.049 108.493 131.009 108.705 130.922C108.916 130.836 109.106 130.704 109.261 130.536C108.826 129.479 108.538 128.367 108.404 127.231C108.257 126.137 108.217 125.031 108.284 123.93C108.01 123.829 107.718 123.787 107.428 123.807C104.613 124.309 104.979 131.038 108.038 131.038ZM199.186 207.623C200.042 206.767 196.557 201.817 192.703 198.332C190.714 196.529 188.665 195.394 187.565 196.617C186.465 197.84 187.58 199.783 189.521 201.639C193.34 205.26 198.317 208.479 199.173 207.615L199.186 207.623ZM246.392 196.612C245.292 195.389 243.228 196.507 241.255 198.327C237.37 201.905 234.038 206.767 234.771 207.618C235.628 208.474 240.645 205.293 244.313 201.624C246.272 199.663 247.495 197.707 246.392 196.605V196.612ZM220.826 180.826C219.236 180.826 217.782 183.025 218.013 187.063C218.531 196.115 218.99 200.642 220.215 200.765C221.441 200.888 222.357 196.723 223.151 187.063C223.492 182.902 222.661 180.826 220.826 180.826ZM189.509 271.221C187.4 272.895 186.084 274.648 187.063 275.991C188.042 277.335 190.116 276.476 192.324 274.892C196.592 271.823 200.519 267.306 199.786 266.329C199.05 265.478 193.612 267.971 189.509 271.226V271.221ZM247.738 271.1C243.409 268.11 237.945 265.84 237.217 266.831C236.489 267.823 240.793 272.047 245.169 274.904C247.387 276.351 249.574 277.106 250.553 275.76C251.532 274.415 249.918 272.607 247.738 271.105V271.1ZM219.236 269.877C218.013 269.877 217.33 274.397 216.301 283.334C215.834 287.371 217.157 289.576 218.746 289.694C220.459 289.819 221.551 287.735 221.438 283.7C221.172 274.163 220.459 269.998 219.236 269.882V269.877ZM354.166 157.946C354.166 157.946 366.889 150.85 360.893 142.041C368.232 137.15 366.033 121.735 354.776 121.245C355.755 110.358 343.278 101.552 333.859 106.431C327.253 98.6014 312.574 100.193 313.92 111.568C308.898 111.081 303.153 117.931 306.58 125.024C305.614 125.876 304.926 126.998 304.605 128.246C304.284 129.493 304.345 130.808 304.78 132.02C305.214 133.233 306.003 134.287 307.043 135.046C308.084 135.805 309.328 136.234 310.615 136.279C311.669 132.087 313.185 128.025 315.135 124.168C316.852 124.394 318.597 124.136 320.175 123.423C321.752 122.71 323.1 121.571 324.064 120.133C337.154 120.866 335.918 125.386 334.462 128.083C333.547 129.656 332.848 131.345 332.383 133.105C331.926 135.435 333.618 137.424 335.931 136.653C338.023 135.952 339.881 135.899 340.335 137.999C340.998 141.044 335.863 144.848 335.815 149.619C335.755 155.003 338.997 159.771 346.826 164.788C351.107 166.134 358.08 168.457 358.08 168.457C358.197 164.578 356.792 160.808 354.166 157.951V157.946ZM51.1542 134.091C47.6715 133.206 44.0333 133.12 40.5127 133.84C42.2343 135.537 44.2818 136.866 46.5316 137.749C48.7813 138.632 51.1867 139.05 53.6024 138.978C53.1199 137.204 52.2875 135.544 51.1542 134.096V134.091Z" fill="#00875F"/>
<path d="M310.005 140.457C310.7 134.725 312.441 129.169 315.143 124.065C316.859 124.292 318.605 124.034 320.183 123.32C321.761 122.607 323.108 121.466 324.072 120.028C337.161 120.761 335.926 125.281 334.469 127.98C333.555 129.553 332.856 131.242 332.39 133.002C331.933 135.332 333.626 137.323 335.938 136.55C338.03 135.849 339.888 135.796 340.343 137.896C341.006 140.941 335.871 144.746 335.823 149.516C335.763 154.9 339.004 159.671 346.834 164.685C334.234 166.887 321.021 169.456 321.021 169.456L313.438 161.627L324.569 149.273C314.04 151.48 309.598 148.163 310.005 140.457Z" stroke="#202024" stroke-linecap="round" stroke-linejoin="round"/>
<path d="M320.893 169.572L327.13 180.58L348.538 165.288" stroke="#202024" stroke-linecap="round" stroke-linejoin="round"/>
<path d="M346.826 164.801C377.287 174.463 382.52 176.803 387.562 186.207C401.678 212.547 409.909 240.509 404.932 250.676C400.257 260.218 391.373 262.957 373.372 256.67C355.293 250.357 344.222 245.835 329.699 236.117C324.426 232.589 340.451 204.73 345.603 206.636C349.621 208.143 381.688 222.907 381.688 222.907" stroke="#202024" stroke-linecap="round" stroke-linejoin="round"/>
<path d="M357.224 198.561C359.303 203.701 361.382 208.838 364.197 214.832" stroke="#202024" stroke-linecap="round" stroke-linejoin="round"/>
<path d="M344.501 206.636C342.422 204.313 340.074 196.592 341.932 189.634C343.14 185.102 339.979 185.966 337.894 187.676C335.864 189.572 334.241 191.861 333.124 194.405C332.887 195.001 332.533 195.544 332.081 195.999C331.629 196.454 331.089 196.812 330.494 197.053C329.899 197.293 329.262 197.41 328.621 197.396C327.979 197.383 327.347 197.239 326.763 196.974C321.741 195.173 312.22 191.065 304.255 188.286C300.345 186.925 298.982 189.888 301.44 192.806C304.119 195.999 311.595 200.148 315.753 202.347C315.376 202.173 314.968 202.077 314.553 202.064C314.138 202.051 313.724 202.122 313.337 202.272C312.95 202.423 312.598 202.65 312.3 202.939C312.003 203.229 311.767 203.576 311.607 203.959C311.342 204.69 311.293 205.481 311.467 206.238C311.641 206.995 312.029 207.686 312.586 208.228C312.012 208.41 311.491 208.727 311.065 209.153C310.639 209.578 310.321 210.1 310.138 210.674C309.968 211.413 309.968 212.181 310.138 212.92C310.308 213.66 310.642 214.351 311.117 214.942C310.57 214.949 310.036 215.115 309.58 215.419C309.124 215.722 308.766 216.152 308.549 216.655C308.182 217.634 308.047 219.357 310.628 221.3C316.411 225.151 322.508 228.508 328.855 231.334" stroke="#202024" stroke-linecap="round" stroke-linejoin="round"/>
<path d="M164.429 158.845C172.027 156.173 172.494 153.095 171.405 144.982C170.794 140.334 174.209 140.344 176.176 142.044C178.15 144.009 179.728 146.335 180.823 148.896C181.043 149.492 181.382 150.038 181.819 150.499C182.256 150.96 182.783 151.328 183.366 151.58C183.95 151.832 184.578 151.962 185.214 151.964C185.849 151.965 186.478 151.837 187.063 151.588C192.085 149.855 201.717 146.009 209.818 143.392C213.72 142.137 215.078 145.225 212.507 147.912C208.632 151.287 204.298 154.094 199.633 156.248" stroke="#202024" stroke-linecap="round" stroke-linejoin="round"/>
<path d="M214.832 228.045C215.274 227.781 215.786 227.653 216.301 227.678L223.274 227.801" stroke="#202024" stroke-linecap="round" stroke-linejoin="round"/>
<path d="M228.165 229.267C228.517 229.812 228.692 230.455 228.667 231.103C228.643 231.992 228.27 232.837 227.63 233.454C226.989 234.072 226.132 234.413 225.242 234.405L216.735 234.287" stroke="#202024" stroke-linecap="round" stroke-linejoin="round"/>
<path d="M225.353 234.405C225.765 234.406 226.173 234.489 226.552 234.65C226.931 234.812 227.274 235.048 227.56 235.344C227.847 235.64 228.07 235.992 228.216 236.377C228.363 236.763 228.429 237.174 228.411 237.586V237.953C228.412 238.365 228.329 238.773 228.168 239.153C228.007 239.532 227.77 239.875 227.473 240.161C227.176 240.447 226.824 240.669 226.438 240.815C226.053 240.961 225.642 241.028 225.23 241.011L216.79 240.888" stroke="#202024" stroke-linecap="round" stroke-linejoin="round"/>
<path d="M224.863 241.011C225.275 241.011 225.683 241.094 226.063 241.255C226.443 241.416 226.786 241.652 227.073 241.948C227.358 242.246 227.58 242.598 227.726 242.984C227.872 243.369 227.938 243.781 227.922 244.193V244.559C227.907 245.399 227.568 246.2 226.974 246.793C226.38 247.387 225.58 247.726 224.74 247.741C224.74 247.741 219.48 247.618 217.647 247.618C217.202 247.658 216.755 247.59 216.343 247.417C215.932 247.245 215.569 246.974 215.286 246.628" stroke="#202024" stroke-linecap="round" stroke-linejoin="round"/>
<path d="M215.362 221.883C215.647 221.564 216 221.314 216.396 221.152C216.792 220.99 217.22 220.921 217.647 220.949L224.496 221.072" stroke="#202024" stroke-linecap="round" stroke-linejoin="round"/>
<path d="M244.19 222.174C234.528 221.923 233.549 217.524 229.511 217.524C228.552 217.512 227.611 217.784 226.807 218.307C226.002 218.829 225.371 219.578 224.991 220.459C223.969 223.115 223.43 225.932 223.399 228.778C223.176 231.839 226.091 232.572 227.668 230.124L230.239 226.086C230.239 226.086 232.562 237.709 239.168 239.911" stroke="#202024" stroke-linecap="round" stroke-linejoin="round"/>
<path d="M219.603 247.741C220.429 248.871 221.492 249.808 222.718 250.487C223.943 251.165 225.302 251.568 226.699 251.668C238.076 252.107 242.601 251.919 245.169 250.442" stroke="#202024" stroke-linecap="round" stroke-linejoin="round"/>
<path d="M314.653 160.269C292.634 159.766 279.422 167.608 279.422 189.017C279.939 197.875 281.207 206.673 283.213 215.317C284.102 219.47 281.99 219.721 279.668 219.721H246.392C245.851 219.752 245.34 219.981 244.957 220.364C244.573 220.748 244.344 221.259 244.313 221.8C243.783 232.421 244.233 243.068 245.659 253.606C245.761 254.445 246.165 255.218 246.795 255.781C247.425 256.344 248.239 256.658 249.084 256.665C262.126 256.901 298.568 254.857 300.84 254.714" stroke="#202024" stroke-linecap="round" stroke-linejoin="round"/>
<path d="M320.893 169.572L308.78 175.809L308.293 160.396" stroke="#202024" stroke-linecap="round" stroke-linejoin="round"/>
<path d="M293.857 181.805C292.268 185.23 290.091 192.218 292.388 204.434C294.619 216.24 297.148 227.988 299.974 239.665C300.73 242.995 301.059 246.407 300.953 249.82C300.451 267.798 298.929 319.052 299.974 332.024C300.75 341.686 302.786 348.049 312.451 360.147C322.116 372.245 361.016 413.482 364.074 416.297C367.132 419.112 391.474 395.624 387.928 390.607C384.99 386.449 357.915 349.081 348.905 336.905C347.097 334.418 346.129 331.418 346.143 328.343V304.74" stroke="#202024" stroke-linecap="round" stroke-linejoin="round"/>
<path d="M329.455 275.876L334.477 277.222C334.911 277.342 335.312 277.559 335.651 277.855C335.99 278.151 336.259 278.52 336.436 278.934L355.152 328.232C356.359 331.376 358.212 334.232 360.592 336.614C362.972 338.997 365.825 340.853 368.968 342.063C368.968 342.063 445.668 371.421 450.072 373.136C454.476 374.851 468.279 347.107 463.162 343.652C458.14 340.257 414.394 320.586 398.083 313.071C396.949 312.541 395.953 311.758 395.169 310.783C394.386 309.807 393.836 308.665 393.563 307.444C391.303 297.696 386.956 272.825 382.675 259.369" stroke="#202024" stroke-linecap="round" stroke-linejoin="round"/>
<path d="M451.539 372.882C456.432 378.756 454.848 392.576 456.058 398.816C456.917 403.22 460.129 404.842 463.031 401.018C469.221 392.877 475.508 371.66 477.833 359.303C478.808 354.063 477.354 350.645 464.274 346.999" stroke="#202024" stroke-linecap="round" stroke-linejoin="round"/>
<path d="M364.687 416.676C365.174 427.93 359.09 428.945 352.207 434.903C348.797 437.856 348.905 442.06 353.553 441.999C368.368 441.803 368.368 443.471 378.143 433.191C385.015 425.998 391.353 418.311 397.103 410.193C400.069 405.809 398.449 402.487 387.813 394.168" stroke="#202024" stroke-linecap="round" stroke-linejoin="round"/>
<path d="M300.097 240.278C314.286 243.213 326.397 244.547 340.22 242.48" stroke="#202024" stroke-linecap="round" stroke-linejoin="round"/>
<path d="M300.953 249.943C325.174 256.303 338.869 253.611 357.224 250.676" stroke="#202024" stroke-linecap="round" stroke-linejoin="round"/>
<path d="M357.224 258.872C359.296 262.117 362.182 264.762 365.594 266.544C369.007 268.326 372.827 269.181 376.674 269.026" stroke="#202024" stroke-linecap="round" stroke-linejoin="round"/>
<path d="M368.232 279.911L379.243 316.978C379.794 318.849 380.763 320.57 382.077 322.011C383.391 323.453 385.016 324.576 386.828 325.297L451.418 351.855" stroke="#202024" stroke-linecap="round" stroke-linejoin="round"/>
<path d="M333.003 292.757C333.003 293.124 331.733 320.652 331.045 333.247C330.811 337.249 332.027 341.202 334.47 344.38L371.78 393.068" stroke="#202024" stroke-linecap="round" stroke-linejoin="round"/>
<path d="M310.615 136.176C309.327 136.134 308.081 135.706 307.04 134.947C305.998 134.188 305.209 133.133 304.775 131.92C304.341 130.706 304.281 129.391 304.603 128.143C304.925 126.896 305.614 125.773 306.58 124.922C303.032 117.826 308.903 110.976 313.92 111.465C312.574 100.088 327.376 98.4986 333.859 106.328C343.278 101.434 355.755 110.242 354.776 121.127C365.909 121.63 368.232 136.909 360.893 141.926C366.889 150.609 354.166 157.828 354.166 157.828C356.795 160.689 358.2 164.465 358.08 168.349" stroke="#202024" stroke-linecap="round" stroke-linejoin="round"/>
<path d="M78.4332 248.84C63.8696 251.166 47.375 244.572 62.4082 206.757C76.8563 170.435 97.2731 159.648 140.334 156.484C182.169 153.411 185.594 176.301 164.311 219.485C173.73 220.095 184.861 221.074 184.861 221.074C185.891 221.117 186.912 220.862 187.803 220.342C188.693 219.821 189.415 219.055 189.883 218.136C191.525 214.797 192.941 213.225 195.876 213.365C200.281 213.581 203.093 220.831 203.093 220.831" stroke="#202024" stroke-linecap="round" stroke-linejoin="round"/>
<path d="M136.909 182.782C136.909 182.782 121.135 216.68 119.905 235.261C119.297 244.436 118.682 257.767 150.609 258.626C168.713 259.115 206.388 254.086 211.284 252.512C216.662 250.781 216.544 246.028 213.242 244.682C214.196 244.577 215.081 244.135 215.738 243.434C216.394 242.734 216.778 241.822 216.821 240.863C216.865 239.905 216.566 238.962 215.977 238.204C215.388 237.447 214.549 236.924 213.609 236.73C214.624 236.574 215.545 236.044 216.19 235.245C216.835 234.446 217.159 233.435 217.098 232.409C217.037 231.384 216.595 230.418 215.859 229.701C215.123 228.985 214.146 228.568 213.119 228.534C213.627 228.507 214.125 228.379 214.582 228.156C215.04 227.934 215.448 227.622 215.783 227.239C216.118 226.856 216.372 226.41 216.531 225.927C216.691 225.443 216.751 224.933 216.71 224.426C216.67 223.919 216.529 223.425 216.294 222.974C216.059 222.523 215.736 222.124 215.344 221.8C214.953 221.474 214.5 221.231 214.012 221.085C213.525 220.938 213.013 220.891 212.507 220.946C207.61 220.828 205.78 220.946 199.663 220.946" stroke="#202024" stroke-linecap="round" stroke-linejoin="round"/>
<path d="M213.242 244.682L208.961 245.049" stroke="#202024" stroke-linecap="round" stroke-linejoin="round"/>
<path d="M213.609 236.73L209.448 236.853" stroke="#202024" stroke-linecap="round" stroke-linejoin="round"/>
<path d="M213.119 228.534L209.571 228.657" stroke="#202024" stroke-linecap="round" stroke-linejoin="round"/>
<path d="M199.54 162.476L190.249 166.39C189.454 166.709 188.567 166.709 187.772 166.39C186.976 166.071 186.335 165.458 185.981 164.678L185.858 164.311C185.539 163.516 185.539 162.628 185.858 161.833C186.177 161.038 186.79 160.397 187.57 160.042L196.856 156.115C197.651 155.796 198.539 155.796 199.334 156.115C200.129 156.434 200.77 157.048 201.124 157.828L201.245 158.194C201.416 158.587 201.508 159.01 201.515 159.438C201.521 159.867 201.443 160.292 201.285 160.69C201.126 161.088 200.89 161.451 200.591 161.757C200.292 162.064 199.934 162.308 199.54 162.476Z" stroke="#202024" stroke-linecap="round" stroke-linejoin="round"/>
<path d="M200.642 169.572L192.567 172.996C191.772 173.315 190.885 173.315 190.09 172.996C189.295 172.677 188.653 172.064 188.298 171.284L188.178 170.917C187.858 170.122 187.857 169.234 188.176 168.439C188.495 167.643 189.109 167.002 189.89 166.649L197.963 163.221C198.758 162.902 199.646 162.902 200.441 163.221C201.236 163.54 201.878 164.154 202.232 164.934L202.355 165.303C202.645 166.1 202.631 166.977 202.315 167.765C201.999 168.553 201.404 169.196 200.642 169.572Z" stroke="#202024" stroke-linecap="round" stroke-linejoin="round"/>
<path d="M201.988 176.545L195.136 179.48C194.341 179.799 193.453 179.799 192.658 179.48C191.863 179.161 191.221 178.548 190.867 177.767L190.747 177.401C190.426 176.606 190.425 175.718 190.745 174.922C191.064 174.127 191.678 173.485 192.459 173.132L199.309 170.194C200.106 169.871 200.996 169.869 201.794 170.189C202.592 170.508 203.236 171.124 203.59 171.907L203.713 172.276C203.89 172.668 203.985 173.092 203.993 173.522C204.001 173.952 203.922 174.379 203.761 174.778C203.6 175.177 203.36 175.539 203.055 175.843C202.751 176.146 202.388 176.385 201.988 176.545Z" stroke="#202024" stroke-linecap="round" stroke-linejoin="round"/>
<path d="M175.319 191.713C184.781 187.331 193.865 182.174 202.478 176.296" stroke="#202024" stroke-linecap="round" stroke-linejoin="round"/>
<path d="M92.5023 182.782C85.7754 202.845 78.6443 228.534 78.4409 248.84C78.2952 263.03 81.0724 291.901 81.0121 304.012C80.987 308.782 80.1659 310.264 76.8514 312.697C63.4378 322.543 22.2227 349.701 17.8888 353.309C15.3502 355.426 16.4199 360.159 16.4199 360.159" stroke="#202024" stroke-linecap="round" stroke-linejoin="round"/>
<path d="M99.1086 254.467C98.5471 261.655 100.351 268.829 104.246 274.897C108.989 282.741 125.509 311.808 131.648 322.354C132.359 323.569 132.764 324.939 132.828 326.345C132.892 327.752 132.613 329.152 132.015 330.427C132.015 330.427 112.879 371.205 106.692 384.862C106.182 386.329 106.039 387.898 106.273 389.433C106.508 390.968 107.113 392.423 108.038 393.671" stroke="#202024" stroke-linecap="round" stroke-linejoin="round"/>
<path d="M142.046 413.877C143.011 413.877 143.947 413.55 144.702 412.95C145.457 412.35 145.987 411.512 146.204 410.572C151.44 398.085 177.516 336.684 180.946 327.266C184.733 316.868 182.563 305.234 176.298 291.301C168.866 274.774 163.455 262.425 161.496 258.407" stroke="#202024" stroke-linecap="round" stroke-linejoin="round"/>
<path d="M123.329 307.803L123.819 318.814C123.819 328.845 123.086 332.875 113.788 340.589C104.49 348.302 53.9438 386.288 51.7668 387.441C50.7687 387.848 49.6693 387.937 48.6186 387.696C47.568 387.455 46.6173 386.896 45.8961 386.095" stroke="#202024" stroke-linecap="round" stroke-linejoin="round"/>
<path d="M125.409 211.896C131.771 206.392 157.705 207.249 167.246 213.365" stroke="#202024" stroke-linecap="round" stroke-linejoin="round"/>
<path d="M59.5959 214.711C67.4559 213.163 75.5211 212.956 83.4502 214.099" stroke="#202024" stroke-linecap="round" stroke-linejoin="round"/>
<path d="M17.2032 354.025C21.4342 350.804 30.2603 353.124 41.3688 365.91C52.2564 378.51 52.8666 386.585 50.2979 387.808" stroke="#202024" stroke-linecap="round" stroke-linejoin="round"/>
<path d="M48.0958 375.084C46.3833 376.674 45.1629 380.955 45.7731 386.095C46.6293 393.312 50.8905 407.378 50.2929 414.23C50.0418 417.166 45.3889 419.252 39.2848 414.107C31.1944 407.278 7.42555 379.978 7.35524 371.782C7.29498 364.686 20.691 356.734 27.0513 354.045" stroke="#202024" stroke-linecap="round" stroke-linejoin="round"/>
<path d="M7.49091 372.948C7.88011 366.848 19.0238 370.484 33.1731 388.792C45.6501 405.063 51.1542 415.338 46.7524 417.296" stroke="#202024" stroke-linecap="round" stroke-linejoin="round"/>
<path d="M144.125 406.524C143.098 407.716 142.399 409.155 142.099 410.7C141.799 412.244 141.907 413.84 142.413 415.33C145.1 422.183 150.672 426.11 152.206 432.701C153.032 436.257 152.09 439.077 150.616 439.797C147.814 441.168 140.849 440.749 120.279 425.987C112.09 420.104 104.711 412.543 102.298 407.514C100.068 402.878 105.11 396.259 114.039 386.964" stroke="#202024" stroke-linecap="round" stroke-linejoin="round"/>
<path d="M102.9 408.603C100.944 401.997 110.127 403.21 130.179 418.878C145.356 430.735 153.177 437.595 150.609 439.797" stroke="#202024" stroke-linecap="round" stroke-linejoin="round"/>
<path d="M106.461 390.376C106.461 386.705 109.032 385.47 114.167 386.951C128.48 391.077 147.312 404.199 145.484 412.028" stroke="#202024" stroke-linecap="round" stroke-linejoin="round"/>
<path d="M138.132 386.951C138.132 386.951 157.828 345.48 161.373 336.184C166.88 321.749 163.819 314.532 161.122 306.947C157.702 297.285 135.93 265.478 135.93 265.478" stroke="#202024" stroke-linecap="round" stroke-linejoin="round"/>
<path d="M80.0253 230.613C86.7522 227.311 106.448 221.323 121.373 225.965" stroke="#202024" stroke-linecap="round" stroke-linejoin="round"/>
<path d="M78.923 239.911C92.0857 235.221 106.181 233.752 120.028 235.628" stroke="#202024" stroke-linecap="round" stroke-linejoin="round"/>
<path d="M141.637 156.394C138.085 155.426 134.932 153.359 132.628 150.488C130.915 148.286 131.648 147.184 132.376 147.307C138.86 148.776 145.499 148.173 146.438 144.982C147.944 139.859 137.994 106.815 122.094 111.586C110.714 115.006 102.28 123.204 113.775 138.011C119.282 145.105 114.508 159.294 107.169 161.986" stroke="#202024" stroke-linecap="round" stroke-linejoin="round"/>
<path d="M116.058 147.952C120.447 142.107 113.682 136.035 117.09 132.505C119.658 129.813 123.801 132.969 125.408 131.895C127.467 130.513 120.889 122.963 124.429 118.192" stroke="#202024" stroke-linecap="round" stroke-linejoin="round"/>
<path d="M110.865 133.672C111.734 123.608 123.884 115.992 134.835 116.113" stroke="#202024" stroke-linecap="round" stroke-linejoin="round"/>
<path d="M106.082 124.798C95.5607 122.473 93.8407 129.318 94.3379 136.909C94.7036 139.428 94.1385 141.993 92.7484 144.125C91.3222 145.993 91.6486 147.54 93.6047 147.917C95.356 148.264 97.1686 148.129 98.8491 147.526C100.53 146.923 102.015 145.875 103.146 144.494C105.848 140.71 101.311 131.159 106.692 130.302" stroke="#202024" stroke-linecap="round" stroke-linejoin="round"/>
<path d="M257.036 364.076C272.441 364.076 284.928 351.589 284.928 336.185C284.928 320.78 272.441 308.293 257.036 308.293C241.631 308.293 229.144 320.78 229.144 336.185C229.144 351.589 241.631 364.076 257.036 364.076Z" stroke="#202024" stroke-linecap="round" stroke-linejoin="round"/>
<path d="M36.2314 179.48C55.6915 179.48 71.4629 163.706 71.4629 144.248C71.4629 124.788 55.689 109.017 36.2314 109.017C16.7714 109.017 1 124.791 1 144.248C1 163.708 16.7739 179.48 36.2314 179.48Z" stroke="#202024" stroke-linecap="round" stroke-linejoin="round"/>
<path d="M8.46265 143.759C8.57344 136.516 11.5162 129.605 16.6607 124.505C21.8051 119.406 28.742 116.524 35.9854 116.477M59.8396 129.69C57.4939 125.837 54.2115 122.641 50.2979 120.399L59.8396 129.69ZM21.4218 167.618C17.6278 165.237 14.477 161.961 12.2467 158.076L21.4218 167.618ZM63.8697 143.643C63.9961 148.235 62.9431 152.782 60.8114 156.851C58.3965 161.481 54.7347 165.343 50.2397 168.001C45.7448 170.659 40.596 172.007 35.3752 171.892L63.8697 143.643Z" stroke="#202024" stroke-linecap="round" stroke-linejoin="round"/>
<path d="M28.6458 127.734C26.3277 128.761 24.277 130.307 22.6521 132.253C21.7959 133.966 22.5266 135.359 26.4437 135.678C31.1772 135.499 35.8842 134.885 40.5052 133.843C44.0263 133.128 47.6631 133.214 51.1466 134.094C48.7568 130.541 45.1835 127.951 41.0629 126.787C36.9423 125.622 32.5421 125.957 28.6458 127.734ZM54.2125 141.938C39.0438 154.167 24.4877 145.484 19.7168 137.042C18.5948 139.598 18.0795 142.378 18.2112 145.167C18.3429 147.955 19.118 150.675 20.4759 153.113C21.8338 155.552 23.7376 157.643 26.0384 159.224C28.3392 160.804 30.9744 161.83 33.738 162.223C36.5015 162.615 39.3183 162.362 41.968 161.485C44.6177 160.607 47.0283 159.128 49.0111 157.164C50.994 155.199 52.4954 152.802 53.3978 150.161C54.3001 147.52 54.579 144.705 54.2125 141.938Z" stroke="#202024" stroke-linecap="round" stroke-linejoin="round"/>
<path d="M51.1541 134.097C47.6739 133.192 44.0315 133.106 40.5126 133.846C42.2342 135.542 44.2817 136.871 46.5314 137.754C48.7812 138.637 51.1865 139.055 53.6023 138.983C52.87 137.314 52.0529 135.683 51.1541 134.097Z" stroke="#202024" stroke-linecap="round" stroke-linejoin="round"/>
<path d="M215.198 119.171C247.831 119.171 274.284 92.7182 274.284 60.0857C274.284 27.4531 247.831 1 215.198 1C182.566 1 156.113 27.4531 156.113 60.0832C156.113 92.7182 182.566 119.171 215.198 119.171Z" stroke="#202024" stroke-linecap="round" stroke-linejoin="round"/>
<path d="M268.67 319.79C272.26 322.168 274.978 325.65 276.414 329.71C277.85 333.77 277.924 338.187 276.627 342.294C275.326 346.399 272.724 349.969 269.214 352.464C265.704 354.959 261.477 356.244 257.172 356.124" stroke="#202024" stroke-linecap="round" stroke-linejoin="round"/>
<path d="M246.026 353.189C242.432 350.813 239.711 347.331 238.274 343.269C236.837 339.208 236.763 334.789 238.063 330.682C239.363 326.575 241.966 323.003 245.478 320.508C248.99 318.013 253.22 316.731 257.526 316.855" stroke="#202024" stroke-linecap="round" stroke-linejoin="round"/>
<path d="M249.451 339.12C248.474 342.545 251.043 345.232 254.588 346.336C255.332 346.673 256.137 346.854 256.953 346.869C257.77 346.884 258.58 346.732 259.336 346.423C260.092 346.114 260.777 345.654 261.349 345.072C261.921 344.489 262.368 343.796 262.663 343.034C263.763 339.732 261.91 337.694 257.769 336.061C253.225 334.271 252.215 331.685 253.25 328.845C254.435 325.581 258.272 325.174 261.199 326.153C264.504 327.253 266.46 329.578 265.604 332.636" stroke="#202024" stroke-linecap="round" stroke-linejoin="round"/>
<path d="M262.297 322.362L261.071 326.153" stroke="#202024" stroke-linecap="round" stroke-linejoin="round"/>
<path d="M254.588 346.459L253.488 350.251" stroke="#202024" stroke-linecap="round" stroke-linejoin="round"/>
<path d="M215.934 72.6857L236.73 59.2294L213.119 27.3024L193.546 61.9211L215.934 72.6857Z" stroke="#202024" stroke-linecap="round" stroke-linejoin="round"/>
<path d="M193.546 61.9212L214.588 51.1566L236.73 59.2294" stroke="#202024" stroke-linecap="round" stroke-linejoin="round"/>
<path d="M234.405 65.5897L217.157 92.992L197.338 68.6481" stroke="#202024" stroke-linecap="round" stroke-linejoin="round"/>
<path d="M217.157 92.992L216.055 76.2338" stroke="#202024" stroke-linecap="round" stroke-linejoin="round"/>
<path d="M215.934 72.6857L213.119 27.3024" stroke="#202024" stroke-linecap="round" stroke-linejoin="round"/>
<path d="M163.575 385C179.043 375.492 194.336 365.705 209.448 355.642" stroke="#202024" stroke-linecap="round" stroke-linejoin="round"/>
<path d="M77.2104 377.776C79.046 385.482 80.2663 390.866 80.8815 393.435C83.9248 406.16 91.0333 413.374 99.7138 415.21" stroke="#202024" stroke-linecap="round" stroke-linejoin="round"/>
<path d="M34.1449 185.23C44.2968 232.326 54.6947 280.396 62.5189 314.294" stroke="#202024" stroke-linecap="round" stroke-linejoin="round"/>
<path d="M157.825 26.3232C154.809 24.574 151.403 23.6065 147.917 23.5084C118.815 21.1606 60.2062 18.6497 30.9709 17.6453C10.7928 16.9322 1.25106 28.0382 5.28117 47.6087C8.21399 61.8007 12.3772 82.1044 17.3916 105.959" stroke="#202024" stroke-linecap="round" stroke-linejoin="round"/>
<path d="M187.186 141.185C185.594 134.212 183.515 124.914 181.313 114.762" stroke="#202024" stroke-linecap="round" stroke-linejoin="round"/>
<path d="M171.528 109.017C173.305 117.307 175.139 125.586 177.032 133.85" stroke="#202024" stroke-linecap="round" stroke-linejoin="round"/>
<path d="M41.3689 103.879C35.8649 78.6794 31.1041 55.812 28.0356 41.733C26.0846 32.804 29.6251 30.4989 34.6395 30.7274C43.325 31.1216 59.35 31.7318 67.4253 31.9502C72.0731 32.0808 73.9061 35.8648 75.3775 39.1668C78.4283 46.0217 80.515 46.9633 83.5733 46.996C88.9568 47.0587 110.973 47.1793 115.744 47.119C118.925 47.0788 120.962 46.5013 121.861 40.2691C122.446 36.2264 122.963 34.0318 126.754 34.1523C130.669 34.2754 144.495 34.8479 149.509 35.0061C150.666 34.8828 151.834 35.0941 152.875 35.6148C153.915 36.1356 154.785 36.9439 155.38 37.9439" stroke="#202024" stroke-linecap="round" stroke-linejoin="round"/>
<path d="M61.3085 196.484C60.0857 190.857 58.7524 184.876 57.3939 178.624" stroke="#202024" stroke-linecap="round" stroke-linejoin="round"/>
<path d="M103.023 382.301C101.431 375.328 99.5982 367.988 97.7627 360.039" stroke="#202024" stroke-linecap="round" stroke-linejoin="round"/>
<path d="M199.786 344.747C190.961 349.885 182.112 354.983 173.24 360.039" stroke="#202024" stroke-linecap="round" stroke-linejoin="round"/>
<path d="M349.774 412.272C342.191 420.347 331.06 421.445 319.68 415.576C291.673 401.131 237.237 367.737 211.786 350.13C201.878 343.276 203.974 332.983 206.397 322.226C207.693 316.466 209.087 310.116 210.666 303.509" stroke="#202024" stroke-linecap="round" stroke-linejoin="round"/>
<path d="M272.687 35.0085C275.376 31.3375 279.411 29.3312 286.387 28.7688C316.34 26.3557 376.666 23.6112 406.76 22.5315C427.554 21.7782 438.358 30.6118 434.04 53.9689C428.947 81.5017 412.387 155.99 402.356 201.375" stroke="#202024" stroke-linecap="round" stroke-linejoin="round"/>
<path d="M239.542 175.809C243.703 157.461 249.084 133.373 254.221 110.363" stroke="#202024" stroke-linecap="round" stroke-linejoin="round"/>
<path d="M265.232 100.701L245.415 188.409" stroke="#202024" stroke-linecap="round" stroke-linejoin="round"/>
<path d="M382.417 172.63C390.612 134.83 404.116 73.0373 409.696 46.8755C411.627 37.8159 407.983 35.5159 402.846 35.7419C393.917 36.1386 377.4 36.691 369.081 37.0877C364.31 37.3137 362.346 41.1229 360.885 44.3068C357.689 51.2722 355.625 52.2214 352.446 52.2565C346.939 52.3193 324.187 52.5076 319.301 52.5076C316.122 52.5076 313.902 51.8974 312.941 45.6527C312.318 41.62 311.72 39.3577 307.803 39.541C303.768 39.7268 289.455 40.3118 284.439 40.5177C283.048 40.3798 281.65 40.6994 280.458 41.4282C279.266 42.1569 278.344 43.2549 277.832 44.5554" stroke="#202024" stroke-linecap="round" stroke-linejoin="round"/>
<path d="M268.78 367.012L321.149 396.37C325.543 398.836 330.814 399.551 333.016 392.332" stroke="#202024" stroke-linecap="round" stroke-linejoin="round"/>
<path d="M219.969 299.241C217.524 309.762 215.271 319.537 213.363 328.117C212.359 332.637 212.424 335.271 217.278 338.148C219.497 339.464 222.048 340.84 224.74 342.429" stroke="#202024" stroke-linecap="round" stroke-linejoin="round"/>
<path d="M82.594 37.2108L103.513 37.5774" stroke="#202024" stroke-linecap="round" stroke-linejoin="round"/>
<path d="M111.832 41.2483C112.773 41.2483 113.675 40.8745 114.341 40.2092C115.006 39.5438 115.38 38.6413 115.38 37.7003C115.38 36.7594 115.006 35.8569 114.341 35.1915C113.675 34.5262 112.773 34.1523 111.832 34.1523C110.891 34.1523 109.988 34.5262 109.323 35.1915C108.657 35.8569 108.284 36.7594 108.284 37.7003C108.284 38.6413 108.657 39.5438 109.323 40.2092C109.988 40.8745 110.891 41.2483 111.832 41.2483Z" stroke="#202024" stroke-linecap="round" stroke-linejoin="round"/>
<path d="M320.036 43.2044L339.976 42.7147" stroke="#202024" stroke-linecap="round" stroke-linejoin="round"/>
<path d="M349.518 46.3858C351.544 46.3858 353.189 44.5779 353.189 42.3482C353.189 40.1184 351.544 38.3105 349.518 38.3105C347.492 38.3105 345.847 40.1184 345.847 42.3482C345.847 44.5779 347.492 46.3858 349.518 46.3858Z" stroke="#202024" stroke-linecap="round" stroke-linejoin="round"/>
<path d="M125.655 63.267L142.779 61.4315L108.161 97.8858L97.5192 82.717L73.2959 111.217" stroke="#202024" stroke-linecap="round" stroke-linejoin="round"/>
<path d="M143.759 79.046L142.779 61.4315" stroke="#202024" stroke-linecap="round" stroke-linejoin="round"/>
<path d="M276.12 114.767L323.828 75.0108L338.507 92.8714L377.407 61.3085" stroke="#202024" stroke-linecap="round" stroke-linejoin="round"/>
<path d="M365.663 61.3085H377.407L376.43 73.665" stroke="#202024" stroke-linecap="round" stroke-linejoin="round"/>
<path d="M181.192 91.8921C186.328 97.4206 192.759 101.583 199.907 104.003" stroke="#202024" stroke-linecap="round" stroke-linejoin="round"/>
<path d="M260.828 51.7694C262.373 60.1107 261.605 68.7159 258.608 76.6519C255.61 84.5878 250.497 91.5518 243.823 96.7886C238.239 101.177 231.703 104.194 224.74 105.597" stroke="#202024" stroke-linecap="round" stroke-linejoin="round"/>
<path d="M231.59 16.7814C238.664 19.4401 244.969 23.8116 249.94 29.5045" stroke="#202024" stroke-linecap="round" stroke-linejoin="round"/>
<path d="M169.815 70.2401C167.892 61.6751 168.434 52.7407 171.378 44.4709C174.322 36.2011 179.548 28.9341 186.45 23.5109C192.557 18.7469 199.74 15.5565 207.369 14.2203" stroke="#202024" stroke-linecap="round" stroke-linejoin="round"/>
</svg>
