<svg width="121" height="122" viewBox="0 0 121 122" fill="none" xmlns="http://www.w3.org/2000/svg">
<path d="M105.245 102.513C105.104 103.453 104.71 104.336 104.106 105.069C103.501 105.801 102.709 106.356 101.813 106.672L62.0573 120.701C60.9301 121.1 59.7006 121.1 58.5735 120.701L18.8177 106.672C17.922 106.356 17.1294 105.801 16.5249 105.069C15.9203 104.336 15.5267 103.453 15.3862 102.513L1.05839 7.01045C0.94621 6.26595 0.996064 5.506 1.20455 4.78253C1.41303 4.05907 1.77523 3.38913 2.26641 2.8185C2.75758 2.24786 3.36614 1.78998 4.05052 1.47614C4.7349 1.1623 5.47896 0.99989 6.23187 1.00001H114.399C115.153 0.998382 115.898 1.15968 116.584 1.47286C117.269 1.78605 117.879 2.24371 118.371 2.81453C118.864 3.38534 119.227 4.05581 119.436 4.78002C119.645 5.50423 119.695 6.26508 119.583 7.01045L105.245 102.513Z" stroke="#8D8D99" stroke-width="1.3" stroke-linecap="round" stroke-linejoin="round"/>
<path d="M31.5449 21.9243H79.6703C80.2426 21.9241 80.7992 22.1116 81.2547 22.4581C81.7102 22.8046 82.0395 23.2909 82.1921 23.8425C82.3446 24.394 82.3121 24.9804 82.0994 25.5118C81.8868 26.0431 81.5057 26.49 81.0147 26.7839L44.9206 48.456C44.4321 48.7511 44.0535 49.1978 43.8425 49.728C43.6316 50.2583 43.5998 50.843 43.7521 51.393C43.9045 51.943 44.2325 52.4281 44.6862 52.7743C45.1399 53.1204 45.6943 53.3087 46.265 53.3104H80.8891C81.264 53.3104 81.6345 53.3909 81.9756 53.5466C82.3166 53.7023 82.6202 53.9294 82.8658 54.2127C83.1113 54.496 83.2931 54.8287 83.3988 55.1884C83.5046 55.5481 83.5317 55.9263 83.4785 56.2973L78.9118 88.2484C78.8411 88.7495 78.6266 89.2194 78.2942 89.601C77.9618 89.9826 77.5258 90.2596 77.0391 90.3984L61.0793 94.9546C60.6112 95.0906 60.114 95.0906 59.646 94.9546L43.6443 90.3827C43.1674 90.2463 42.7392 89.9773 42.4094 89.6068C42.0797 89.2363 41.8621 88.7797 41.782 88.2903L39.3915 74.2345" stroke="#8D8D99" stroke-width="1.3" stroke-linecap="round" stroke-linejoin="round"/>
</svg>
