<svg width="84" height="122" viewBox="0 0 84 122" fill="none" xmlns="http://www.w3.org/2000/svg">
<path d="M47.2267 60.9869C47.2267 64.9004 48.7813 68.6535 51.5485 71.4207C54.3157 74.1879 58.0689 75.7425 61.9823 75.7425C65.8957 75.7425 69.6489 74.1879 72.4161 71.4207C75.1833 68.6535 76.7379 64.9004 76.7379 60.9869C76.7379 57.0735 75.1833 53.3204 72.4161 50.5531C69.6489 47.7859 65.8957 46.2313 61.9823 46.2313C58.0689 46.2313 54.3157 47.7859 51.5485 50.5531C48.7813 53.3204 47.2267 57.0735 47.2267 60.9869Z" stroke="#8D8D99" stroke-width="1.3" stroke-linecap="round" stroke-linejoin="round"/>
<path d="M42.0127 41.0174H22.0431C19.3314 41.1559 16.6198 40.7414 14.0732 39.7991C11.5267 38.8567 9.19845 37.4063 7.23008 35.5359C5.26171 33.6655 3.69435 31.4143 2.62333 28.9191C1.55231 26.424 1 23.737 1 21.0217C1 18.3064 1.55231 15.6195 2.62333 13.1244C3.69435 10.6292 5.26171 8.378 7.23008 6.50761C9.19845 4.63721 11.5267 3.18674 14.0732 2.2444C16.6198 1.30207 19.3314 0.887552 22.0431 1.02607H42.0127V41.0174Z" stroke="#8D8D99" stroke-width="1.3" stroke-linecap="round" stroke-linejoin="round"/>
<path d="M42.0127 41.0174H61.9823C64.6941 41.1559 67.4057 40.7414 69.9522 39.7991C72.4987 38.8567 74.827 37.4063 76.7954 35.5359C78.7637 33.6655 80.3311 31.4143 81.4021 28.9191C82.4731 26.424 83.0254 23.737 83.0254 21.0217C83.0254 18.3064 82.4731 15.6195 81.4021 13.1244C80.3311 10.6292 78.7637 8.378 76.7954 6.50761C74.827 4.63721 72.4987 3.18674 69.9522 2.2444C67.4057 1.30207 64.6941 0.887552 61.9823 1.02607H42.0127V41.0174Z" stroke="#8D8D99" stroke-width="1.3" stroke-linecap="round" stroke-linejoin="round"/>
<path d="M42.0127 80.9566H22.0431C16.7468 80.9566 11.6675 78.8527 7.92245 75.1077C4.17742 71.3627 2.07349 66.2833 2.07349 60.9871C2.07349 55.6908 4.17742 50.6114 7.92245 46.8664C11.6675 43.1214 16.7468 41.0175 22.0431 41.0175H42.0127V80.9566Z" stroke="#8D8D99" stroke-width="1.3" stroke-linecap="round" stroke-linejoin="round"/>
<path d="M42.0128 100.978C42.0128 104.941 40.8372 108.814 38.6349 112.107C36.4326 115.401 33.3025 117.967 29.641 119.481C25.9795 120.995 21.9511 121.388 18.0658 120.612C14.1806 119.835 10.6132 117.923 7.81515 115.117C5.01715 112.312 3.11439 108.74 2.34775 104.852C1.5811 100.965 1.98504 96.9379 3.50844 93.2803C5.03184 89.6227 7.60618 86.4994 10.9056 84.3056C14.205 82.1119 18.0811 80.9464 22.0432 80.9567H42.0128V100.978Z" stroke="#8D8D99" stroke-width="1.3" stroke-linecap="round" stroke-linejoin="round"/>
</svg>
