<svg width="121" height="122" viewBox="0 0 121 122" fill="none" xmlns="http://www.w3.org/2000/svg">
<path d="M105.245 102.514C105.104 103.454 104.71 104.338 104.105 105.071C103.499 105.803 102.705 106.357 101.809 106.673L62.0526 120.702C60.927 121.099 59.6995 121.099 58.5739 120.702L18.8178 106.673C17.9222 106.356 17.1295 105.802 16.525 105.069C15.9204 104.337 15.5268 103.453 15.3863 102.514L1.05839 7.01049C0.946209 6.26598 0.996063 5.50603 1.20455 4.78255C1.41304 4.05908 1.77524 3.38914 2.26642 2.8185C2.75759 2.24786 3.36616 1.78998 4.05055 1.47613C4.73493 1.16229 5.479 0.999877 6.23191 1H114.395C115.147 0.999877 115.892 1.16229 116.576 1.47613C117.26 1.78998 117.869 2.24786 118.36 2.8185C118.851 3.38914 119.213 4.05908 119.422 4.78255C119.63 5.50603 119.68 6.26598 119.568 7.01049L105.245 102.514Z" stroke="#8D8D99" stroke-width="1.3" stroke-linecap="round" stroke-linejoin="round"/>
<path d="M89.0815 21.9244H34.6314C34.2508 21.9237 33.8746 22.0061 33.5291 22.1658C33.1836 22.3255 32.8771 22.5587 32.631 22.8491C32.385 23.1395 32.2052 23.4801 32.1044 23.8471C32.0036 24.2142 31.9841 24.5988 32.0473 24.9741L36.41 51.1295C36.5126 51.7392 36.828 52.2929 37.3001 52.6922C37.7722 53.0916 38.3705 53.3107 38.9889 53.3108H80.8374C81.2145 53.307 81.5879 53.3847 81.9322 53.5388C82.2764 53.6928 82.5832 53.9194 82.8317 54.2031C83.0801 54.4868 83.2642 54.8209 83.3715 55.1825C83.4787 55.544 83.5065 55.9245 83.4529 56.2977L78.8862 88.2491C78.8159 88.7495 78.6021 89.2189 78.2707 89.6005C77.9393 89.982 77.5044 90.2594 77.0187 90.399L61.0587 94.9553C60.5887 95.0897 60.0903 95.0897 59.6202 94.9553L43.6184 90.3833C43.1415 90.247 42.7133 89.9779 42.3835 89.6074C42.0538 89.237 41.8362 88.7804 41.7561 88.2909L39.3865 74.2351" stroke="#8D8D99" stroke-width="1.3" stroke-linecap="round" stroke-linejoin="round"/>
</svg>
