<svg xmlns="http://www.w3.org/2000/svg" viewBox="-0.65 -0.65 48 48" height="48" width="48"><defs></defs><title>professional-network-linkedin</title><path d="M12.12092013888889 41.95703125h-9.323784722222223v-24.24184027777778h9.323784722222223Zm16.7828125 -16.7828125a3.729513888888889 3.729513888888889 0 0 0 -3.729513888888889 3.729513888888889v13.053298611111112h-9.323784722222223v-24.24184027777778h9.323784722222223v2.7691640625000002a11.761022048611112 11.761022048611112 0 0 1 7.440380208333334 -2.787811631944445c5.523410069444445 0 9.342432291666666 4.102465277777778 9.342432291666666 11.850530381944445V41.95703125h-9.323784722222223v-13.053298611111112a3.729513888888889 3.729513888888889 0 0 0 -3.729513888888889 -3.729513888888889ZM12.12092013888889 9.323784722222223A4.661892361111112 4.661892361111112 0 1 1 7.459027777777778 4.661892361111112 4.661892361111112 4.661892361111112 0 0 1 12.12092013888889 9.323784722222223Z" fill="none" stroke="#8d8d99" stroke-linecap="round" stroke-linejoin="round" stroke-width="1.3"></path></svg>