<svg width="122" height="122" viewBox="0 0 122 122" fill="none" xmlns="http://www.w3.org/2000/svg">
<path d="M6.21739 1H115.783C115.783 1 121 1 121 6.21739V115.783C121 115.783 121 121 115.783 121H6.21739C6.21739 121 1 121 1 115.783V6.21739C1 6.21739 1 1 6.21739 1Z" stroke="#8D8D99" stroke-width="1.3" stroke-linecap="round" stroke-linejoin="round"/>
<path d="M79.2607 92.3045C79.2607 95.7638 80.635 99.0815 83.0811 101.528C85.5272 103.974 88.8449 105.348 92.3042 105.348C95.7636 105.348 99.0812 103.974 101.527 101.528C103.973 99.0815 105.348 95.7638 105.348 92.3045C105.348 85.1045 100.13 81.8697 92.3042 79.261C84.4781 76.6523 79.2607 73.4175 79.2607 66.2175C79.2607 62.7582 80.635 59.4405 83.0811 56.9944C85.5272 54.5483 88.8449 53.1741 92.3042 53.1741C95.7636 53.1741 99.0812 54.5483 101.527 56.9944C103.973 59.4405 105.348 62.7582 105.348 66.2175" stroke="#8D8D99" stroke-width="1.3" stroke-linecap="round" stroke-linejoin="round"/>
<path d="M34.9132 53.1741H66.2176" stroke="#8D8D99" stroke-width="1.3" stroke-linecap="round" stroke-linejoin="round"/>
<path d="M50.5653 53.1741V105.348" stroke="#8D8D99" stroke-width="1.3" stroke-linecap="round" stroke-linejoin="round"/>
</svg>
