<svg viewBox="-0.5 -0.5 24 24" xmlns="http://www.w3.org/2000/svg"><path d="M11.5 0.4791666666666667A10.989208333333334 10.989208333333334 0 0 0 0.4791666666666667 11.412791666666667 10.818625 10.818625 0 0 0 2.578875 17.825000000000003l-1.3761666666666668 4.061416666666667 4.234875 -1.3464583333333333A11.031374999999999 11.031374999999999 0 0 0 22.520833333333336 11.41375 10.990166666666667 10.990166666666667 0 0 0 11.5 0.4791666666666667m6.619208333333334 13.929375c-0.0805 -0.13225 -0.29420833333333335 -0.21370833333333333 -0.6152500000000001 -0.37183333333333335s-1.902291666666667 -0.9315 -2.1955416666666667 -1.0369166666666667 -0.5098333333333334 -0.1600416666666667 -0.7235416666666667 0.15908333333333335 -0.8299166666666666 1.0359583333333333 -1.0177500000000002 1.2458333333333333 -0.37470833333333337 0.23958333333333334 -0.69575 0.0805a8.805166666666668 8.805166666666668 0 0 1 -2.5875000000000004 -1.5822083333333334 9.560333333333334 9.560333333333334 0 0 1 -1.7863333333333336 -2.2041666666666666c-0.19166666666666668 -0.3181666666666667 -0.020125 -0.4906666666666667 0.140875 -0.64975a3.4615 3.4615 0 0 0 0.8030833333333334 -1.0905833333333332 0.58075 0.58075 0 0 0 -0.026833333333333334 -0.5587083333333334C9.337041666666668 8.241666666666667 8.693999999999999 6.671916666666666 8.426625 6.0375c-0.30283333333333334 -0.7245 -1.6531250000000002 -0.7494166666666667 -2.1965 -0.161 -1.7144583333333334 1.860125 -1.3186666666666667 3.9675 0.19166666666666668 5.956041666666667 0.161 0.21275000000000002 2.223333333333333 3.5372083333333335 5.489333333333334 4.8137083333333335s3.266 0.8500416666666667 3.855375 0.7963749999999999c1.693375 -0.152375 2.839541666666667 -2.2262083333333336 2.3565416666666668 -3.0312083333333333" fill="none" stroke="#8d8d99" stroke-linecap="round" stroke-linejoin="round" stroke-width="1"></path></svg>