<svg viewBox="-0.65 -0.65 48 48" xmlns="http://www.w3.org/2000/svg" height="48" width="48"><path d="M22.37708333333333 0.9323784722222223A21.383167881944445 21.383167881944445 0 0 0 0.9323784722222223 22.20739045138889 21.051241145833334 21.051241145833334 0 0 0 5.0180609375 34.68447916666667l-2.677790972222222 7.902839930555556 8.2403609375 -2.619983506944444A21.4652171875 21.4652171875 0 0 0 43.82178819444445 22.209255208333335 21.38503263888889 21.38503263888889 0 0 0 22.37708333333333 0.9323784722222223m12.879876215277779 27.1042421875c-0.15663958333333333 -0.25733645833333335 -0.5724803819444445 -0.4158407986111111 -1.1971739583333334 -0.7235256944444445s-3.701542534722223 -1.81254375 -4.272158159722222 -2.017667013888889 -0.9920506944444445 -0.3114144097222223 -1.4078914930555557 0.3095496527777778 -1.6148795138888887 2.0158022569444443 -1.9803718750000003 2.4241840277777778 -0.7291199652777778 0.4661892361111111 -1.3538135416666666 0.15663958333333333a17.13338680555556 17.13338680555556 0 0 1 -5.03484375 -3.078713715277778 18.60281527777778 18.60281527777778 0 0 1 -3.475906944444445 -4.288940972222222c-0.3729513888888889 -0.6190993055555556 -0.03915989583333333 -0.9547555555555556 0.2741192708333333 -1.2643052083333335a6.7355020833333334 6.7355020833333334 0 0 0 1.5626663194444446 -2.1220934027777774 1.1300427083333333 1.1300427083333333 0 0 0 -0.052213194444444444 -1.0871532986111112C18.168326909722225 16.036909722222223 16.917074999999997 12.98243784722222 16.3968078125 11.747968749999998c-0.5892631944444444 -1.40975625 -3.2167057291666667 -1.4582399305555556 -4.274022916666667 -0.31327916666666666 -3.336050173611111 3.619493229166667 -2.5659055555555557 7.720093749999999 0.3729513888888889 11.589464409722222 0.31327916666666666 0.4139760416666667 4.32623611111111 6.882817881944445 10.681327777777778 9.366674131944444s6.355091666666667 1.6540394097222222 7.5019171875 1.5496130208333332c3.295025520833333 -0.2964963541666667 5.525274826388889 -4.331830381944445 4.585437326388889 -5.898226215277778" fill="none" stroke="#8d8d99" stroke-linecap="round" stroke-linejoin="round" stroke-width="1.3"></path></svg>