<svg xmlns="http://www.w3.org/2000/svg" xmlns:xlink="http://www.w3.org/1999/xlink" width="16" height="16" viewBox="0 0 256 256"><path fill="#FFFFFF" d="M222 68a34 34 0 1 0-40 33.5v2.5a18.1 18.1 0 0 1-18 18H92a18.1 18.1 0 0 1-18-18v-2.5a34 34 0 1 0-12 0v2.5a30 30 0 0 0 30 30h30v20.5a34 34 0 1 0 12 0V134h30a30.1 30.1 0 0 0 30-30v-2.5A34.1 34.1 0 0 0 222 68ZM46 68a22 22 0 1 1 22 22a22.1 22.1 0 0 1-22-22Zm104 120a22 22 0 1 1-22-22a22.1 22.1 0 0 1 22 22Zm38-98a22 22 0 1 1 22-22a22.1 22.1 0 0 1-22 22Z"></path></svg>