<svg width="130" height="65" viewBox="0 0 130 65" fill="none" xmlns="http://www.w3.org/2000/svg">
<mask id="mask0_135_190" style="mask-type:luminance" maskUnits="userSpaceOnUse" x="0" y="0" width="130" height="65">
<path d="M129.411 0.732727H0.588501V64.9867H129.411V0.732727Z" fill="white"/>
</mask>
<g mask="url(#mask0_135_190)">
<path d="M105.498 31.3857L81.5841 64.9857H37.9401L65.0121 26.9597L83.6771 0.73175L96.8591 19.2587C96.8691 19.2797 96.8911 19.3017 96.9011 19.3227L98.1161 21.0227L105.498 31.3857Z" fill="url(#paint0_linear_135_190)"/>
<path d="M129.411 64.9857H89.3688C89.3696 64.9773 89.3735 64.9694 89.3798 64.9637H89.3898L109.363 36.8777H109.374C109.38 36.8721 109.384 36.8647 109.384 36.8567L129.411 64.9857Z" fill="url(#paint1_linear_135_190)"/>
<path d="M65.0105 26.9607L37.9395 64.9857H0.589478L46.3395 0.732727L52.6675 9.62673C52.6775 9.63773 52.6885 9.63773 52.6885 9.64773C52.6885 9.65773 52.6985 9.65873 52.6985 9.65873L63.8595 25.3437L65.0105 26.9607Z" fill="url(#paint2_linear_135_190)"/>
<g style="mix-blend-mode:multiply" opacity="0.2">
<path d="M65.0103 26.9608L37.9393 64.9858H27.4703L60.6903 20.8938L65.0103 26.9608Z" fill="black"/>
</g>
<g style="mix-blend-mode:screen" opacity="0.3">
<path d="M89.8123 16.6408L58.4123 60.7608H46.1393L83.6793 8.02081L89.8123 16.6408Z" fill="white"/>
</g>
<g style="mix-blend-mode:screen" opacity="0.3">
<path d="M113.727 50.2408L106.248 60.7618H97.5543L109.385 44.1468L113.727 50.2408Z" fill="white"/>
</g>
<g style="mix-blend-mode:screen" opacity="0.3">
<path d="M51.6488 15.4858L19.4328 60.7608H8.78577L46.3398 8.02179L51.6488 15.4858Z" fill="white"/>
</g>
<g style="mix-blend-mode:multiply" opacity="0.25">
<path d="M105.498 31.3858L81.5833 64.9858H45.0573C48.0993 64.7948 51.1572 64.6998 54.1942 64.5628C57.2312 64.4258 60.2783 64.3628 63.3203 64.2568L72.4463 64.0768L81.0463 63.9708L86.7072 55.9708L92.7282 47.6058C94.7672 44.8378 96.7732 42.0498 98.8282 39.3058C100.804 36.6451 102.793 33.9975 104.797 31.3628C103.688 29.6938 102.597 28.0038 101.497 26.3248C100.323 24.5188 99.1513 22.7248 98.0103 20.8958C98.0471 20.9349 98.0806 20.977 98.1103 21.0218L105.498 31.3858Z" fill="black"/>
</g>
<g style="mix-blend-mode:multiply" opacity="0.25">
<path d="M129.411 64.9858H89.3688C91.0378 64.8588 92.7068 64.7638 94.3758 64.6858L99.3818 64.4318C102.709 64.3058 106.043 64.2038 109.381 64.1258C112.719 64.0518 116.057 63.9888 119.395 63.9668C122.067 63.9568 124.729 63.9358 127.401 63.9358C126.123 62.1398 124.859 60.3301 123.609 58.5068C121.973 56.1401 120.353 53.7635 118.75 51.3768L116.366 47.7858C115.574 46.5718 114.766 45.3858 114 44.1628C112.458 41.7338 110.874 39.3258 109.384 36.8538L129.411 64.9858Z" fill="black"/>
</g>
<g style="mix-blend-mode:multiply" opacity="0.25">
<path d="M65.0105 26.9608L37.9395 64.9858H0.589478C3.70548 64.8158 6.81146 64.7208 9.92746 64.6048C13.0435 64.4888 16.1485 64.3938 19.2645 64.3198L28.6025 64.1298L37.4215 64.0138C39.5455 60.9498 41.7105 57.9138 43.8545 54.8768C46.0935 51.6868 48.3755 48.5388 50.6355 45.3768C52.8955 42.2148 55.1995 39.0708 57.4915 35.9228C59.6775 32.9128 61.9065 29.9338 64.1244 26.9338C62.2444 24.1458 60.3435 21.3678 58.5055 18.5478C56.5615 15.5898 54.5865 12.6538 52.6955 9.65387L63.8595 25.3438L65.0105 26.9608Z" fill="black"/>
</g>
<g style="mix-blend-mode:screen" opacity="0.5">
<path d="M96.858 19.2596C94.492 16.3026 92.221 13.2926 89.908 10.3026C88.735 8.79264 87.608 7.27164 86.464 5.75064L83.707 2.06364C82.049 4.48264 80.401 6.90164 78.722 9.30964C76.842 12.0036 74.983 14.7096 73.081 17.3906L67.381 25.4396L61.635 33.4456C57.769 38.7586 53.893 44.0716 49.953 49.3326C47.967 51.9516 46.013 54.5926 43.995 57.1906C41.977 59.7886 39.995 62.4196 37.943 64.9906L65.015 26.9646L83.68 0.736633L96.858 19.2596Z" fill="white"/>
</g>
<g style="mix-blend-mode:screen" opacity="0.5">
<path d="M89.3798 64.9646H89.3898L89.3688 64.9866C89.3696 64.9782 89.3735 64.9703 89.3798 64.9646Z" fill="white"/>
</g>
<g style="mix-blend-mode:screen" opacity="0.5">
<path d="M109.375 36.8787C109.259 37.1107 108.319 38.9917 106.755 41.6007C105.921 43.0007 104.928 44.6107 103.808 46.3007C103.248 47.1347 102.689 48.0227 102.076 48.8887C101.463 49.7547 100.851 50.6527 100.238 51.5297C99.6042 52.4057 98.9702 53.2827 98.3382 54.1377C97.7252 54.9937 97.0702 55.8177 96.4582 56.6207C95.2222 58.2207 94.0392 59.7047 92.9932 60.9407C91.0392 63.2747 89.5602 64.7857 89.3932 64.9647L109.367 36.8787H109.375Z" fill="white"/>
</g>
<g style="mix-blend-mode:screen" opacity="0.5">
<path d="M52.6637 9.62673C50.5187 6.98573 48.4637 4.28173 46.3637 1.59973C44.6737 4.14473 42.9837 6.69973 41.2517 9.22573C39.4137 11.951 37.5547 14.6584 35.6747 17.3477C33.8157 20.0627 31.9137 22.7477 30.0237 25.4287C28.1337 28.1097 26.2237 30.7947 24.2987 33.4567C20.4747 38.8007 16.5874 44.103 12.6367 49.3637C10.6727 51.9937 8.68672 54.6247 6.67972 57.2227C4.65172 59.8107 2.65571 62.4297 0.579712 64.9867L46.3397 0.732727L52.6637 9.62673Z" fill="white"/>
</g>
</g>
<defs>
<linearGradient id="paint0_linear_135_190" x1="61.7205" y1="33.437" x2="86.7662" y2="51.2448" gradientUnits="userSpaceOnUse">
<stop stop-color="#F55233"/>
<stop offset="1" stop-color="#A53826"/>
</linearGradient>
<linearGradient id="paint1_linear_135_190" x1="100.581" y1="51.6244" x2="119.907" y2="75.1607" gradientUnits="userSpaceOnUse">
<stop stop-color="#9A3D2D"/>
<stop offset="1" stop-color="#1E4450"/>
</linearGradient>
<linearGradient id="paint2_linear_135_190" x1="23.9099" y1="33.1805" x2="47.6419" y2="49.3656" gradientUnits="userSpaceOnUse">
<stop stop-color="#FCC400"/>
<stop offset="0.162" stop-color="#FBC000"/>
<stop offset="0.307" stop-color="#FBB500"/>
<stop offset="0.446" stop-color="#FBA300"/>
<stop offset="0.581" stop-color="#FA8900"/>
<stop offset="0.712" stop-color="#FA6800"/>
<stop offset="0.842" stop-color="#F93F00"/>
<stop offset="0.967" stop-color="#F81000"/>
<stop offset="1" stop-color="#F80300"/>
</linearGradient>
</defs>
</svg>
