<svg width="230" height="120" viewBox="0 0 230 120" fill="none" xmlns="http://www.w3.org/2000/svg">
<mask id="mask0_233_393" style="mask-type:luminance" maskUnits="userSpaceOnUse" x="0" y="0" width="230" height="120">
<path d="M230 0H0V120H230V0Z" fill="white"/>
</mask>
<g mask="url(#mask0_233_393)">
<path d="M187.306 57.2472L144.609 119.998H66.6873L115.021 48.9813L148.346 -0.00180054L171.881 34.599C171.899 34.6382 171.938 34.6793 171.956 34.7185L174.125 37.8934L187.306 57.2472Z" fill="url(#paint0_linear_233_393)"/>
<path d="M230 119.998H158.508C158.509 119.982 158.516 119.968 158.528 119.957H158.546L194.207 67.5039H194.226C194.237 67.4935 194.244 67.4797 194.244 67.4647L230 119.998Z" fill="url(#paint1_linear_233_393)"/>
<path d="M115.019 48.9831L66.6863 119.998H0.00170898L81.6836 0L92.9816 16.6103C92.9994 16.6309 93.0191 16.6309 93.0191 16.6495C93.0191 16.6682 93.0369 16.6701 93.0369 16.6701L112.964 45.9632L115.019 48.9831Z" fill="url(#paint2_linear_233_393)"/>
<g style="mix-blend-mode:multiply" opacity="0.2">
<path d="M115.018 48.9833L66.6859 119.998H47.9946L107.305 37.6526L115.018 48.9833Z" fill="black"/>
</g>
<g style="mix-blend-mode:screen" opacity="0.3">
<path d="M159.3 29.7098L103.238 112.108H81.3262L148.35 13.6111L159.3 29.7098Z" fill="white"/>
</g>
<g style="mix-blend-mode:screen" opacity="0.3">
<path d="M201.996 92.4607L188.643 112.11H173.122L194.244 81.0797L201.996 92.4607Z" fill="white"/>
</g>
<g style="mix-blend-mode:screen" opacity="0.3">
<path d="M91.1627 27.5527L33.6444 112.108H14.6353L81.6841 13.6129L91.1627 27.5527Z" fill="white"/>
</g>
<g style="mix-blend-mode:multiply" opacity="0.25">
<path d="M187.304 57.2473L144.608 119.998H79.3943C84.8255 119.642 90.285 119.464 95.7073 119.208C101.13 118.952 106.57 118.835 112.001 118.637L128.294 118.301L143.649 118.103L153.756 103.162L164.506 87.5396C168.146 82.3701 171.728 77.1633 175.397 72.0386C178.923 67.0695 182.474 62.1249 186.052 57.2044C184.072 54.0874 182.125 50.9312 180.161 47.7955C178.066 44.4226 175.973 41.0722 173.936 37.6563C174.002 37.7294 174.062 37.808 174.115 37.8917L187.304 57.2473Z" fill="black"/>
</g>
<g style="mix-blend-mode:multiply" opacity="0.25">
<path d="M230 119.998H158.508C161.488 119.761 164.468 119.584 167.448 119.438L176.385 118.964C182.326 118.728 188.279 118.538 194.239 118.392C200.198 118.254 206.158 118.136 212.118 118.095C216.888 118.077 221.641 118.037 226.411 118.037C224.13 114.683 221.873 111.303 219.641 107.898C216.72 103.478 213.828 99.0397 210.966 94.5823L206.71 87.8758C205.296 85.6086 203.853 83.3936 202.485 81.1095C199.732 76.5732 196.904 72.076 194.244 67.4594L230 119.998Z" fill="black"/>
</g>
<g style="mix-blend-mode:multiply" opacity="0.25">
<path d="M115.019 48.9833L66.6863 119.998H0.00170898C5.56501 119.681 11.1104 119.503 16.6737 119.287C22.2371 119.07 27.7807 118.893 33.344 118.755L50.016 118.4L65.7614 118.183C69.5536 112.461 73.419 106.791 77.2469 101.119C81.2444 95.1613 85.3187 89.2821 89.3537 83.3768C93.3886 77.4715 97.5022 71.5998 101.594 65.7206C105.497 60.0992 109.477 54.5357 113.437 48.9329C110.08 43.7261 106.686 38.5379 103.405 33.2713C99.9339 27.747 96.4077 22.2637 93.0316 16.661L112.964 45.9634L115.019 48.9833Z" fill="black"/>
</g>
<g style="mix-blend-mode:screen" opacity="0.5">
<path d="M171.879 34.6005C167.655 29.078 163.6 23.4566 159.47 17.8725C157.376 15.0525 155.364 12.2119 153.322 9.37127L148.399 2.48547C145.439 7.00316 142.497 11.5209 139.499 16.018C136.142 21.0493 132.823 26.103 129.428 31.11L119.251 46.1422L108.992 61.0941C102.09 71.0166 95.1694 80.9391 88.135 90.7645C84.5892 95.6557 81.1005 100.588 77.4976 105.44C73.8947 110.292 70.356 115.206 66.6924 120.007L115.027 48.9903L148.351 0.00717163L171.879 34.6005Z" fill="white"/>
</g>
<g style="mix-blend-mode:screen" opacity="0.5">
<path d="M158.528 119.959H158.546L158.508 119.999C158.51 119.983 158.517 119.969 158.528 119.959Z" fill="white"/>
</g>
<g style="mix-blend-mode:screen" opacity="0.5">
<path d="M194.228 67.5059C194.021 67.9391 192.342 71.4521 189.55 76.3246C188.061 78.9392 186.288 81.9461 184.289 85.1023C183.289 86.6598 182.291 88.3183 181.196 89.9356C180.102 91.5529 179.009 93.23 177.914 94.8679C176.782 96.5039 175.65 98.1418 174.522 99.7386C173.427 101.337 172.258 102.876 171.165 104.376C168.959 107.364 166.846 110.135 164.979 112.444C161.49 116.803 158.85 119.625 158.552 119.959L194.214 67.5059H194.228Z" fill="white"/>
</g>
<g style="mix-blend-mode:screen" opacity="0.5">
<path d="M92.9749 16.6105C89.1452 11.6782 85.4762 6.62819 81.7269 1.61932C78.7096 6.37233 75.6923 11.144 72.6 15.8615C69.3184 20.9513 65.9994 26.0076 62.6428 31.0301C59.3238 36.1006 55.9279 41.1151 52.5535 46.1221C49.1791 51.1291 45.769 56.1436 42.3322 61.1151C35.5048 71.0955 28.5644 80.998 21.5109 90.8228C18.0044 95.7346 14.4586 100.648 10.8753 105.5C7.25452 110.333 3.69085 115.225 -0.015625 120L81.6841 0.00012207L92.9749 16.6105Z" fill="white"/>
</g>
</g>
<defs>
<linearGradient id="paint0_linear_233_393" x1="109.145" y1="61.0782" x2="155.192" y2="92.3776" gradientUnits="userSpaceOnUse">
<stop stop-color="#F55233"/>
<stop offset="1" stop-color="#A53826"/>
</linearGradient>
<linearGradient id="paint1_linear_233_393" x1="178.526" y1="95.0447" x2="214.902" y2="137.394" gradientUnits="userSpaceOnUse">
<stop stop-color="#9A3D2D"/>
<stop offset="1" stop-color="#1E4450"/>
</linearGradient>
<linearGradient id="paint2_linear_233_393" x1="41.6379" y1="60.5991" x2="85.1993" y2="89.0003" gradientUnits="userSpaceOnUse">
<stop stop-color="#FCC400"/>
<stop offset="0.162" stop-color="#FBC000"/>
<stop offset="0.307" stop-color="#FBB500"/>
<stop offset="0.446" stop-color="#FBA300"/>
<stop offset="0.581" stop-color="#FA8900"/>
<stop offset="0.712" stop-color="#FA6800"/>
<stop offset="0.842" stop-color="#F93F00"/>
<stop offset="0.967" stop-color="#F81000"/>
<stop offset="1" stop-color="#F80300"/>
</linearGradient>
</defs>
</svg>
