<svg xmlns="http://www.w3.org/2000/svg" width="10.881" height="10.389" viewBox="0 0 10.881 10.389">
  <path id="Caminho_4" data-name="Caminho 4" d="M67.314,57.459a.409.409,0,0,1-.192-.047l-2.916-1.533L61.29,57.412a.412.412,0,0,1-.6-.434l.557-3.247-2.36-2.3a.412.412,0,0,1,.228-.7l3.261-.474L63.837,47.3a.412.412,0,0,1,.738,0l1.458,2.955,3.261.474a.412.412,0,0,1,.228.7l-2.36,2.3.557,3.247a.412.412,0,0,1-.406.481Zm-7.252-6.036,1.917,1.869a.412.412,0,0,1,.119.363l-.453,2.639,2.369-1.245a.412.412,0,0,1,.384,0l2.37,1.246-.453-2.639a.412.412,0,0,1,.118-.364l1.917-1.868L65.7,51.039a.412.412,0,0,1-.31-.225l-1.185-2.4-1.185,2.4a.412.412,0,0,1-.31.225Z" transform="translate(-58.765 -47.071)" fill="#fff"/>
</svg>
