<svg xmlns="http://www.w3.org/2000/svg" width="11.389" height="11.389" viewBox="0 0 11.389 11.389">
  <path id="Caminho_5" data-name="Caminho 5" d="M53.694,48h-.014a5.694,5.694,0,0,0,0,11.389h.014a5.694,5.694,0,0,0,0-11.389Zm.227,3.408a8.443,8.443,0,0,0,1.758-.233,10.218,10.218,0,0,1,.293,2.294H53.922Zm0-.457V48.493c.613.17,1.237.988,1.632,2.245A7.994,7.994,0,0,1,53.922,50.951Zm-.454-2.464v2.467a7.916,7.916,0,0,1-1.645-.219C52.222,49.47,52.848,48.646,53.467,48.487Zm0,2.921v2.059H51.4a10.218,10.218,0,0,1,.293-2.294A8.574,8.574,0,0,0,53.467,51.408Zm-2.524,2.059h-2.48a5.205,5.205,0,0,1,1.185-3.094,8.279,8.279,0,0,0,1.61.679A10.74,10.74,0,0,0,50.943,53.467Zm0,.454a10.611,10.611,0,0,0,.312,2.415,8.525,8.525,0,0,0-1.61.679,5.223,5.223,0,0,1-1.185-3.094Zm.46,0h2.064v2.056a8.393,8.393,0,0,0-1.771.238A10.218,10.218,0,0,1,51.4,53.922Zm2.064,2.513V58.9c-.619-.162-1.246-.983-1.645-2.248A7.738,7.738,0,0,1,53.467,56.435Zm.454,2.461V56.432a8.047,8.047,0,0,1,1.634.216C55.159,57.908,54.538,58.726,53.922,58.9Zm0-2.918V53.922h2.051a10.213,10.213,0,0,1-.293,2.291A8.443,8.443,0,0,0,53.922,55.978Zm2.508-2.056h2.5a5.212,5.212,0,0,1-1.185,3.094,8.419,8.419,0,0,0-1.623-.684A10.562,10.562,0,0,0,56.429,53.922Zm0-.454a10.746,10.746,0,0,0-.309-2.412,8.485,8.485,0,0,0,1.621-.682,5.206,5.206,0,0,1,1.185,3.1h-2.5Zm1-3.444A7.918,7.918,0,0,1,56,50.614,5.121,5.121,0,0,0,54.915,48.6,5.265,5.265,0,0,1,57.429,50.023Zm-4.972-1.418a5.064,5.064,0,0,0-1.076,2.007,7.778,7.778,0,0,1-1.418-.589A5.205,5.205,0,0,1,52.457,48.605Zm-2.5,8.758a7.859,7.859,0,0,1,1.418-.589,5.113,5.113,0,0,0,1.079,2.009A5.209,5.209,0,0,1,49.96,57.363Zm4.955,1.426A5.116,5.116,0,0,0,56,56.772a7.918,7.918,0,0,1,1.432.591A5.256,5.256,0,0,1,54.915,58.789Z" transform="translate(-48 -48)" fill="#fff"/>
</svg>
