<svg width="110" height="90" viewBox="0 0 110 90" fill="none" xmlns="http://www.w3.org/2000/svg">
<circle cx="105" cy="25" r="5" transform="rotate(90 105 25)" fill="#EFEFEF"/>
<circle cx="105" cy="45" r="5" transform="rotate(90 105 45)" fill="#EFEFEF"/>
<circle cx="105" cy="65" r="5" transform="rotate(90 105 65)" fill="#EFEFEF"/>
<circle cx="85" cy="5.00001" r="5" transform="rotate(90 85 5.00001)" fill="#EFEFEF"/>
<circle cx="85" cy="25" r="5" transform="rotate(90 85 25)" fill="#EFEFEF"/>
<circle cx="85" cy="45" r="5" transform="rotate(90 85 45)" fill="#EFEFEF"/>
<circle cx="85" cy="65" r="5" transform="rotate(90 85 65)" fill="#EFEFEF"/>
<circle cx="85" cy="85" r="5" transform="rotate(90 85 85)" fill="#EFEFEF"/>
<circle cx="65" cy="5" r="5" transform="rotate(90 65 5)" fill="#EFEFEF"/>
<circle cx="65" cy="25" r="5" transform="rotate(90 65 25)" fill="#EFEFEF"/>
<circle cx="65" cy="45" r="5" transform="rotate(90 65 45)" fill="#EFEFEF"/>
<circle cx="65" cy="65" r="5" transform="rotate(90 65 65)" fill="#EFEFEF"/>
<circle cx="65" cy="85" r="5" transform="rotate(90 65 85)" fill="#EFEFEF"/>
<circle cx="45" cy="5" r="5" transform="rotate(90 45 5)" fill="#EFEFEF"/>
<circle cx="45" cy="25" r="5" transform="rotate(90 45 25)" fill="#EFEFEF"/>
<circle cx="45" cy="45" r="5" transform="rotate(90 45 45)" fill="#EFEFEF"/>
<circle cx="45" cy="65" r="5" transform="rotate(90 45 65)" fill="#EFEFEF"/>
<circle cx="45" cy="85" r="5" transform="rotate(90 45 85)" fill="#EFEFEF"/>
<circle cx="25" cy="5" r="5" transform="rotate(90 25 5)" fill="#EFEFEF"/>
<circle cx="25" cy="25" r="5" transform="rotate(90 25 25)" fill="#EFEFEF"/>
<circle cx="25" cy="45" r="5" transform="rotate(90 25 45)" fill="#EFEFEF"/>
<circle cx="25" cy="65" r="5" transform="rotate(90 25 65)" fill="#EFEFEF"/>
<circle cx="25" cy="85" r="5" transform="rotate(90 25 85)" fill="#EFEFEF"/>
<circle cx="5" cy="25" r="5" transform="rotate(90 5 25)" fill="#EFEFEF"/>
<circle cx="5" cy="45" r="5" transform="rotate(90 5 45)" fill="#EFEFEF"/>
<circle cx="5" cy="65" r="5" transform="rotate(90 5 65)" fill="#EFEFEF"/>
</svg>
