<?xml version="1.0" standalone="no"?>
<!DOCTYPE svg PUBLIC "-//W3C//DTD SVG 20010904//EN"
 "http://www.w3.org/TR/2001/REC-SVG-20010904/DTD/svg10.dtd">
<svg version="1.0" xmlns="http://www.w3.org/2000/svg"
 width="512.000000pt" height="512.000000pt" viewBox="0 0 512.000000 512.000000"
 preserveAspectRatio="xMidYMid meet">
<metadata>
Created by potrace 1.14, written by Peter Selinger 2001-2017
</metadata>
<g transform="translate(0.000000,512.000000) scale(0.100000,-0.100000)"
fill="#000000" stroke="none">
<path d="M2378 5115 c-2 -1 -36 -6 -77 -9 -291 -26 -658 -137 -920 -278 -53
-28 -106 -56 -118 -62 -13 -6 -23 -14 -23 -18 0 -5 -4 -8 -9 -8 -20 0 -244
-160 -341 -245 -43 -37 -247 -242 -278 -279 -251 -299 -459 -703 -537 -1044
-53 -232 -69 -365 -69 -592 0 -183 3 -241 19 -370 31 -235 120 -537 228 -764
140 -297 298 -526 521 -756 115 -117 141 -141 263 -236 54 -41 105 -81 113
-87 33 -26 240 -147 317 -186 109 -54 265 -116 372 -147 47 -13 94 -27 104
-30 16 -5 17 19 17 419 l0 425 -35 -8 c-53 -12 -175 -10 -241 5 -167 35 -290
125 -403 291 -94 137 -163 198 -240 210 -23 4 -41 12 -42 18 0 6 -2 25 -3 41
-2 17 -7 71 -11 120 -4 50 -9 98 -11 107 -2 15 5 18 50 18 122 0 272 -72 376
-180 51 -54 90 -99 90 -106 0 -13 94 -135 122 -159 80 -68 181 -87 297 -58 53
13 62 19 67 42 21 105 49 167 120 264 24 34 44 64 44 68 0 4 -33 13 -72 19
-109 18 -291 76 -393 124 -207 98 -392 263 -485 431 -12 22 -25 45 -30 50 -9
12 -70 162 -75 184 -2 9 -12 50 -21 91 -11 49 -17 123 -18 215 -1 179 9 246
56 395 38 118 74 192 145 294 l55 79 -12 56 c-24 111 -28 150 -28 247 0 100
20 215 52 312 17 49 20 53 44 48 15 -3 52 -8 82 -11 112 -12 243 -68 454 -194
100 -60 94 -60 261 -23 215 47 434 57 655 28 65 -9 212 -38 252 -49 24 -8 51
-13 60 -11 9 1 59 27 110 57 207 121 350 183 446 191 34 3 72 8 85 12 23 5 26
1 45 -58 39 -123 47 -173 47 -308 0 -96 -5 -158 -19 -215 l-18 -80 60 -96
c144 -229 205 -413 206 -624 1 -99 -9 -218 -18 -234 -3 -4 -8 -22 -11 -40 -11
-66 -57 -188 -101 -270 -163 -308 -456 -508 -863 -592 -78 -16 -110 -27 -107
-35 3 -7 27 -43 54 -81 71 -97 105 -177 116 -273 3 -25 5 -296 5 -603 1 -527
2 -558 19 -554 319 88 598 222 852 410 52 38 97 73 100 76 3 3 33 30 66 59 34
28 100 91 147 139 89 91 103 106 159 175 18 23 38 46 43 52 18 19 140 197 186
271 53 87 172 326 189 380 7 22 16 45 20 50 16 21 91 271 116 383 28 129 30
138 39 232 4 36 9 69 12 73 12 19 9 430 -3 537 -44 372 -160 714 -346 1024
-56 93 -162 248 -191 278 -7 7 -30 36 -52 63 -43 53 -213 227 -280 285 -196
171 -448 328 -685 428 -323 135 -598 192 -962 197 -113 2 -208 2 -210 0z"/>
</g>
</svg>
