<?xml version="1.0"?>
<svg xmlns="http://www.w3.org/2000/svg" xmlns:xlink="http://www.w3.org/1999/xlink" xmlns:svgjs="http://svgjs.com/svgjs" version="1.1" width="512" height="512" x="0" y="0" viewBox="0 0 511 511.99794" style="enable-background:new 0 0 512 512" xml:space="preserve"><g><path xmlns="http://www.w3.org/2000/svg" d="m415.554688 256c3.742187-4.414062 7.296874-8.839844 10.636718-13.265625 33.683594-44.671875 42.910156-85.417969 25.984375-114.734375-16.921875-29.3125-56.824219-41.695312-112.351562-34.859375-5.503907.675781-11.117188 1.542969-16.808594 2.574219-1.953125-5.445313-4.003906-10.738282-6.171875-15.84375-21.847656-51.507813-52.519531-79.871094-86.367188-79.871094-33.851562 0-64.523437 28.363281-86.371093 79.871094-2.164063 5.105468-4.21875 10.398437-6.171875 15.84375-5.691406-1.03125-11.304688-1.898438-16.808594-2.578125-55.527344-6.832031-95.429688 5.550781-112.351562 34.863281-16.925782 29.3125-7.699219 70.058594 25.984374 114.730469 3.335938 4.429687 6.894532 8.855469 10.632813 13.269531-3.738281 4.414062-7.296875 8.839844-10.632813 13.265625-33.683593 44.671875-42.910156 85.417969-25.984374 114.734375 13.882812 24.046875 43.21875 36.695312 83.96875 36.695312 8.925781 0 18.40625-.605468 28.382812-1.835937 5.503906-.675781 11.117188-1.542969 16.808594-2.574219 1.953125 5.445313 4.007812 10.738282 6.171875 15.84375 21.847656 51.503906 52.519531 79.867188 86.371093 79.867188 33.847657 0 64.519532-28.363282 86.367188-79.867188 2.167969-5.105468 4.21875-10.398437 6.171875-15.84375 5.691406 1.03125 11.304687 1.898438 16.808594 2.574219 9.980469 1.230469 19.453125 1.835937 28.382812 1.835937 40.742188 0 70.085938-12.652343 83.96875-36.695312 16.925781-29.316406 7.699219-70.0625-25.984375-114.734375-3.339844-4.425781-6.894531-8.851563-10.636718-13.265625zm9.871093-112.554688c10.984375 19.027344-.410156 52.519532-31.050781 89.71875-14.851562-14.722656-31.710938-29.121093-50.152344-42.835937-2.65625-22.828125-6.699218-44.628906-12.023437-64.851563 47.539062-7.9375 82.238281-1.054687 93.226562 17.96875zm-151.65625 187.542969c-14.382812 8.304688-28.886719 15.832031-43.308593 22.523438-14.132813-6.5625-28.609376-14.054688-43.28125-22.523438-14.382813-8.304687-28.152344-17.097656-41.160157-26.242187-1.382812-15.523438-2.132812-31.804688-2.132812-48.746094s.75-33.222656 2.132812-48.746094c13.011719-9.144531 26.777344-17.9375 41.160157-26.242187 14.671874-8.46875 29.148437-15.960938 43.28125-22.523438 14.425781 6.695313 28.925781 14.21875 43.308593 22.523438 14.679688 8.472656 28.40625 17.265625 41.160157 26.230469 1.386718 15.523437 2.136718 31.808593 2.136718 48.757812s-.75 33.234375-2.136718 48.757812c-12.753907 8.964844-26.484376 17.757813-41.160157 26.230469zm35.824219 14.429688c-2.144531 12.171875-4.691406 23.691406-7.582031 34.488281-10.796875-2.894531-22.046875-6.449219-33.660157-10.679688 6.976563-3.65625 13.933594-7.484374 20.863282-11.484374 6.925781-4 13.722656-8.113282 20.378906-12.324219zm-116.996094 23.808593c-11.417968 4.164063-22.667968 7.742188-33.65625 10.691407-2.894531-10.800781-5.441406-22.324219-7.585937-34.5 6.65625 4.210937 13.453125 8.324219 20.378906 12.324219 6.925781 3.996093 13.886719 7.824218 20.863281 11.484374zm-79.121094-89.414062c-9.316406-7.808594-18.042968-15.765625-26.09375-23.8125 8.050782-8.046875 16.777344-16.003906 26.09375-23.8125-.316406 7.871094-.484374 15.8125-.484374 23.8125s.167968 15.941406.484374 23.8125zm37.882813-113.230469c2.140625-12.175781 4.691406-23.699219 7.582031-34.5 10.988282 2.949219 22.242188 6.527344 33.65625 10.691407-6.976562 3.660156-13.9375 7.488281-20.863281 11.484374-6.925781 4-13.722656 8.113282-20.375 12.324219zm116.996094-23.808593c11.609375-4.230469 22.859375-7.785157 33.65625-10.679688 2.890625 10.796875 5.4375 22.316406 7.582031 34.488281-6.65625-4.210937-13.453125-8.324219-20.378906-12.324219-6.925782-3.996093-13.886719-7.824218-20.859375-11.484374zm79.117187 89.417968c9.46875 7.9375 18.171875 15.90625 26.074219 23.808594-7.902344 7.902344-16.605469 15.871094-26.074219 23.808594.316406-7.871094.484375-15.8125.484375-23.808594s-.167969-15.9375-.484375-23.808594zm-116.996094-201.300781c21.964844 0 45.277344 26.613281 62.171876 71.75-20.175782 5.5-41.078126 12.898437-62.171876 22.015625-21.097656-9.117188-42-16.515625-62.175781-22.015625 16.894531-45.136719 40.207031-71.75 62.175781-71.75zm-194.953124 112.554687c10.183593-17.632812 40.007812-24.792968 81.832031-19.644531 3.742187.460938 7.546875 1.023438 11.394531 1.667969-5.324219 20.222656-9.367188 42.027344-12.019531 64.859375-18.449219 13.714844-35.308594 28.121094-50.164063 42.84375-2.480468-3.011719-4.871094-6.023437-7.140625-9.035156-25.371093-33.648438-34.082031-63.058594-23.902343-80.691407zm81.832031 244.753907c-41.824219 5.148437-71.648438-2.011719-81.832031-19.644531-10.179688-17.632813-1.46875-47.042969 23.902343-80.691407 2.269531-3.011719 4.660157-6.023437 7.140625-9.035156 14.855469 14.722656 31.714844 29.128906 50.164063 42.84375 2.652343 22.832031 6.695312 44.636719 12.019531 64.859375-3.847656.644531-7.652344 1.210938-11.394531 1.667969zm113.121093 92.910156c-21.96875 0-45.28125-26.613281-62.175781-71.75 20.175781-5.5 41.078125-12.898437 62.175781-22.015625 21.09375 9.117188 41.996094 16.515625 62.171876 22.015625-16.894532 45.136719-40.207032 71.75-62.171876 71.75zm194.949219-112.554687c-10.984375 19.023437-45.6875 25.90625-93.226562 17.96875 5.324219-20.222657 9.367187-42.023438 12.019531-64.851563 18.445312-13.714844 35.304688-28.113281 50.15625-42.835937 30.640625 37.199218 42.035156 70.691406 31.050781 89.71875zm0 0" fill="#ff0000" data-original="#000000" style=""/><path xmlns="http://www.w3.org/2000/svg" d="m230.476562 200.300781c-30.714843 0-55.703124 24.988281-55.703124 55.699219s24.988281 55.699219 55.703124 55.699219c30.710938 0 55.699219-24.988281 55.699219-55.699219s-24.988281-55.699219-55.699219-55.699219zm0 80.507813c-13.679687 0-24.808593-11.128906-24.808593-24.808594s11.128906-24.808594 24.808593-24.808594c13.675782 0 24.804688 11.128906 24.804688 24.808594s-11.128906 24.808594-24.804688 24.808594zm0 0" fill="#ff0000" data-original="#000000" style=""/></g></svg>
