<?xml version="1.0"?>
<svg xmlns="http://www.w3.org/2000/svg" xmlns:xlink="http://www.w3.org/1999/xlink" xmlns:svgjs="http://svgjs.com/svgjs" version="1.1" width="512" height="512" x="0" y="0" viewBox="0 0 512.001 512.001" style="enable-background:new 0 0 512 512" xml:space="preserve"><g><g xmlns="http://www.w3.org/2000/svg"><path d="m367.521 46.181c-30.249-30.037-70.323-46.505-112.68-46.176-86.641.61-157.454 72.049-157.855 159.248-.166 35.976 11.396 69.966 33.439 98.297 15.602 20.051 22.559 44.246 22.559 78.451 0 47.579 8.831 104.8 9.578 109.556 4.034 31.315 30.588 65.139 93.109 66.441.194.004.427.005.625 0 62.521-1.302 89.075-35.125 93.108-66.439.747-4.742 9.579-61.715 9.579-101.557 0-37.295 7.787-67.71 21.926-85.642 49.785-63.144 44.857-154.344-13.388-212.179zm-40.628 336.82c-1.112 12.255-2.507 24.177-3.77 34h-134.21c-1.197-9.627-2.52-21.414-3.613-34zm-70.909 98.997c-34.024-.784-56.912-13.734-62.615-34.997h125.23c-5.703 21.262-28.591 34.212-62.615 34.997zm101.367-242.214c-18.293 23.201-28.367 60.212-28.367 104.217 0 2.897-.053 5.909-.15 9h-57.85v-122.787l27.606-27.607c5.858-5.858 5.858-15.355 0-21.213-5.857-5.858-15.355-5.858-21.213 0l-21.394 21.393-21.394-21.393c-5.857-5.858-15.355-5.858-21.213 0-5.858 5.859-5.858 15.355 0 21.213l27.606 27.607v122.787h-57.637c-1.1-27.448 2.794-72.697-29.245-113.873-17.875-22.974-27.251-50.546-27.116-79.736.327-71.078 58.192-129.391 128.984-129.391 71.209 0 129.014 58.588 129.014 130 .002 29.267-9.553 56.856-27.631 79.783z" fill="#ff0000" data-original="#000000" style=""/></g></g></svg>
