<?xml version="1.0"?>
<svg xmlns="http://www.w3.org/2000/svg" xmlns:xlink="http://www.w3.org/1999/xlink" xmlns:svgjs="http://svgjs.com/svgjs" version="1.1" width="512" height="512" x="0" y="0" viewBox="0 0 512.002 512.002" style="enable-background:new 0 0 512 512" xml:space="preserve"><g>
<g xmlns="http://www.w3.org/2000/svg">
	<g>
		<path d="M507.607,401.541c-7.649-7.649-137.384-137.384-145.541-145.54l136.626-136.627c17.577-17.577,17.672-45.97,0.07-63.569    l-42.572-42.57C438.686-4.27,410.191-4.26,392.673,13.259L256,149.934c-3.124-3.124-133.651-133.651-145.54-145.54    c-5.857-5.858-15.355-5.858-21.213,0L4.394,89.246c-5.858,5.858-5.858,15.355,0,21.213L149.935,256L47.821,358.114    c-1.646,1.647-2.888,3.654-3.624,5.863L0.77,492.257c-1.797,5.39-0.394,11.333,3.624,15.35c4.024,4.023,9.968,5.418,15.35,3.624    l128.279-43.427c2.209-0.736,4.217-1.977,5.863-3.624L256,362.066l145.541,145.541c5.853,5.854,15.357,5.857,21.213,0    l84.853-84.853C513.466,416.896,513.466,407.399,507.607,401.541z M413.886,34.472c5.821-5.82,15.281-5.833,21.091-0.023    l42.574,42.571c5.849,5.849,5.805,15.264-0.071,21.141l-21.215,21.215l-63.64-63.64l-0.001-0.001L413.886,34.472z M371.411,76.948    L371.411,76.948l63.641,63.641l-21.213,21.213l-63.64-63.64l-0.001-0.001L371.411,76.948z M36.214,99.853l63.64-63.64    L142.28,78.64l-10.606,10.607c-5.858,5.858-5.858,15.355,0,21.213c5.857,5.858,15.355,5.858,21.213,0l10.606-10.607l21.214,21.214    L174.1,131.673c-5.858,5.858-5.858,15.355,0,21.213c5.857,5.858,15.355,5.858,21.213,0l10.606-10.607l28.867,28.867l-63.639,63.64    L36.214,99.853z M328.984,119.374l0.001,0.001l21.213,21.213L100.853,389.934L79.64,368.721    C87.977,360.384,316.732,131.627,328.984,119.374z M38.718,473.283l26.265-76.794c4.544,4.544,41.357,41.357,50.529,50.529    L38.718,473.283z M143.28,432.361l-21.213-21.213l249.345-249.346l21.214,21.214C386.718,188.923,146.013,429.628,143.28,432.361z     M412.148,475.787L277.214,340.853l63.639-63.64l28.868,28.868l-10.606,10.607c-5.858,5.858-5.858,15.355,0,21.213    c5.857,5.858,15.355,5.858,21.213,0l10.606-10.607l21.214,21.214l-10.606,10.607c-5.858,5.858-5.858,15.355,0,21.213    c5.857,5.858,15.355,5.858,21.213,0l10.606-10.607l42.427,42.427L412.148,475.787z" fill="#ff0000" data-original="#000000" style=""/>
	</g>
</g>
<g xmlns="http://www.w3.org/2000/svg">
</g>
<g xmlns="http://www.w3.org/2000/svg">
</g>
<g xmlns="http://www.w3.org/2000/svg">
</g>
<g xmlns="http://www.w3.org/2000/svg">
</g>
<g xmlns="http://www.w3.org/2000/svg">
</g>
<g xmlns="http://www.w3.org/2000/svg">
</g>
<g xmlns="http://www.w3.org/2000/svg">
</g>
<g xmlns="http://www.w3.org/2000/svg">
</g>
<g xmlns="http://www.w3.org/2000/svg">
</g>
<g xmlns="http://www.w3.org/2000/svg">
</g>
<g xmlns="http://www.w3.org/2000/svg">
</g>
<g xmlns="http://www.w3.org/2000/svg">
</g>
<g xmlns="http://www.w3.org/2000/svg">
</g>
<g xmlns="http://www.w3.org/2000/svg">
</g>
<g xmlns="http://www.w3.org/2000/svg">
</g>
</g></svg>
