<?xml version="1.0"?>
<svg xmlns="http://www.w3.org/2000/svg" xmlns:xlink="http://www.w3.org/1999/xlink" xmlns:svgjs="http://svgjs.com/svgjs" version="1.1" width="512" height="512" x="0" y="0" viewBox="0 0 512 512" style="enable-background:new 0 0 512 512" xml:space="preserve" class=""><g><path xmlns="http://www.w3.org/2000/svg" d="m497.09375 60.003906c-.03125 0-.0625-.003906-.09375-.003906h-136v-15c0-24.8125-20.1875-45-45-45h-120c-24.8125 0-45 20.1875-45 45v15h-136c-8.351562 0-15 6.84375-15 15v330c0 24.8125 20.1875 45 45 45h422c24.8125 0 45-20.1875 45-45v-329.683594c0-.019531 0-.039062 0-.058594-.574219-9.851562-6.632812-15.199218-14.90625-15.253906zm-316.09375-15.003906c0-8.269531 6.730469-15 15-15h120c8.269531 0 15 6.730469 15 15v15h-150zm295.1875 45-46.582031 139.742188c-2.042969 6.136718-7.761719 10.257812-14.226563 10.257812h-84.378906v-15c0-8.285156-6.714844-15-15-15h-120c-8.285156 0-15 6.714844-15 15v15h-84.378906c-6.464844 0-12.183594-4.121094-14.226563-10.257812l-46.582031-139.742188zm-175.1875 150v30h-90v-30zm181 165c0 8.269531-6.730469 15-15 15h-422c-8.269531 0-15-6.730469-15-15v-237.566406l23.933594 71.796875c6.132812 18.40625 23.289062 30.769531 42.6875 30.769531h84.378906v15c0 8.285156 6.714844 15 15 15h120c8.285156 0 15-6.714844 15-15v-15h84.378906c19.398438 0 36.554688-12.363281 42.6875-30.769531l23.933594-71.796875zm0 0" fill="#ff0000" data-original="#000000" style=""/></g></svg>
