<?xml version="1.0" standalone="no"?>
<!DOCTYPE svg PUBLIC "-//W3C//DTD SVG 20010904//EN"
 "http://www.w3.org/TR/2001/REC-SVG-20010904/DTD/svg10.dtd">
<svg version="1.0" xmlns="http://www.w3.org/2000/svg"
 width="512.000000pt" height="512.000000pt" viewBox="0 0 512.000000 512.000000"
 preserveAspectRatio="xMidYMid meet">

<g transform="translate(0.000000,512.000000) scale(0.100000,-0.100000)"
fill="#000000" stroke="none">
<path d="M2690 5114 c-629 -22 -1355 -82 -1524 -125 -158 -40 -263 -121 -306
-237 -46 -120 -46 -132 9 -1962 28 -943 55 -1771 61 -1840 17 -227 67 -358
170 -453 125 -116 287 -155 643 -157 53 0 97 -3 97 -7 0 -5 -7 -75 -15 -157
-20 -193 -10 -210 81 -137 114 90 154 92 293 19 135 -72 134 -73 125 128 l-7
153 849 3 c940 4 913 3 989 69 60 53 37 126 -47 151 -56 17 -73 46 -72 132 0
77 9 99 69 174 44 55 72 145 85 280 11 109 114 3365 113 3567 -1 191 -45 307
-135 353 -42 22 -67 25 -215 33 -180 9 -1106 19 -1263 13z m1159 -85 c279 -12
301 -17 338 -84 36 -65 47 -160 39 -355 -3 -96 -29 -908 -56 -1805 -27 -896
-54 -1657 -60 -1691 -5 -33 -16 -78 -23 -100 -13 -36 -17 -39 -57 -42 -24 -2
-143 1 -265 7 -475 23 -1320 34 -1780 24 -247 -5 -451 -9 -452 -9 -1 1 -80
3980 -79 3982 2 3 491 44 646 54 451 30 1294 39 1749 19z m-2439 -146 c0 -65
65 -3463 73 -3764 l3 -147 -46 -5 c-25 -3 -46 -4 -47 -3 -2 2 -73 3801 -73
3920 l0 66 45 0 45 0 0 -67z m-139 45 c2 -10 68 -3677 69 -3804 l0 -161 -45
-13 c-145 -41 -217 -186 -167 -335 11 -33 19 -61 17 -63 -1 -2 -21 24 -43 57
-49 74 -78 158 -92 271 -11 90 -110 3307 -110 3584 0 136 3 175 20 228 34 112
119 187 253 223 47 12 96 19 98 13z m2329 -4043 c195 -8 366 -15 380 -15 21 0
22 -2 10 -14 -8 -8 -37 -21 -63 -30 -64 -21 -141 -21 -1362 5 -1152 25 -1086
28 -1170 -56 -96 -96 -62 -224 73 -276 47 -18 84 -23 220 -27 89 -2 162 -8
162 -12 0 -38 -9 -40 -174 -40 -145 0 -170 3 -232 24 -39 13 -84 31 -102 40
-121 63 -182 199 -133 298 47 95 91 105 521 117 431 12 1415 5 1870 -14z
m-1724 -157 c-3 -24 -8 -73 -11 -110 l-7 -68 -138 0 c-161 0 -229 12 -270 47
-37 31 -40 77 -8 118 38 48 67 54 261 55 l178 0 -5 -42z m344 15 c0 -10 7
-152 16 -316 9 -164 14 -300 11 -303 -2 -2 -32 10 -66 28 -82 42 -153 45 -228
7 -45 -22 -53 -23 -53 -10 -1 25 52 585 56 599 2 9 38 12 134 12 117 0 130 -2
130 -17z m834 1 c649 -15 829 -15 884 2 21 6 22 4 22 -59 0 -36 4 -77 9 -90
l10 -25 -637 -6 c-350 -3 -727 -7 -837 -9 l-200 -2 -3 103 -3 102 32 0 c17 0
342 -7 723 -16z m1030 -254 c37 -14 32 -25 -16 -46 -41 -18 -90 -19 -895 -22
l-852 -3 -7 26 c-3 14 -5 28 -3 30 2 2 380 7 839 13 459 5 852 9 872 10 20 1
48 -2 62 -8z"/>
<path d="M2335 4515 c-22 -8 -50 -26 -62 -40 l-22 -25 -36 24 c-72 49 -171 42
-219 -15 -62 -73 -52 -140 65 -420 l94 -224 224 -3 224 -2 -7 -47 c-3 -25 -8
-48 -9 -50 -2 -2 -41 2 -86 9 -210 29 -452 -40 -592 -170 -166 -153 -239 -381
-239 -746 0 -161 -14 -152 216 -138 104 7 210 15 237 18 l47 6 0 -90 0 -89
-77 -7 c-42 -3 -128 -7 -192 -7 -158 -2 -176 -6 -175 -44 0 -17 13 -70 29
-120 25 -81 28 -105 29 -235 1 -174 -17 -249 -96 -407 -63 -127 -61 -133 53
-133 188 0 413 42 537 100 107 50 184 113 311 254 204 226 249 256 450 301
135 30 203 59 261 111 108 98 145 233 121 443 -30 253 -132 481 -285 630 l-55
54 61 74 c34 41 65 76 69 78 19 12 155 -135 235 -255 101 -151 120 -165 229
-164 117 0 323 76 403 148 52 47 66 82 60 153 -4 48 -10 61 -37 85 -17 15 -51
34 -76 40 l-44 12 6 47 c3 25 0 62 -6 82 -16 48 -81 105 -128 113 l-38 6 0 61
c-1 34 -7 79 -14 100 -16 46 -63 102 -103 123 -29 15 -118 21 -137 10 -5 -3
-13 8 -16 26 -4 18 -27 51 -55 79 -67 67 -116 74 -242 32 -12 -3 -18 0 -18 9
0 24 -63 90 -104 109 -57 26 -130 24 -186 -4 l-44 -23 -21 30 c-27 40 -98 76
-149 76 -45 0 -113 -27 -135 -54 -13 -16 -17 -14 -50 18 -36 35 -105 66 -145
66 -11 -1 -39 -7 -61 -15z m127 -82 c16 -10 42 -39 59 -65 35 -57 61 -62 88
-17 27 45 69 69 118 69 54 0 88 -29 111 -95 11 -30 25 -51 35 -53 10 -2 35 15
60 41 47 48 79 59 134 46 54 -12 91 -54 103 -118 14 -75 45 -93 76 -45 23 34
69 56 116 56 70 -1 108 -46 117 -136 7 -72 20 -79 77 -41 111 76 218 -58 173
-218 -14 -53 -2 -66 66 -64 48 1 59 -3 86 -28 28 -27 30 -35 26 -78 -2 -30
-12 -56 -26 -70 -46 -50 -21 -77 71 -77 60 0 72 -3 93 -25 64 -63 -5 -144
-176 -209 l-67 -25 -27 77 c-39 110 -72 152 -203 256 -136 108 -229 170 -351
231 -300 152 -618 211 -967 181 l-100 -8 -59 138 c-65 155 -75 216 -41 253 23
25 76 28 115 5 14 -9 44 -40 64 -70 24 -33 46 -54 57 -54 24 0 42 31 29 51
-29 46 15 109 77 109 20 0 49 -8 66 -17z m133 -453 c230 -27 425 -84 631 -185
270 -133 456 -306 518 -483 l15 -41 -45 -7 c-59 -9 -106 2 -132 29 -11 12 -48
65 -83 117 -118 181 -255 294 -454 373 -184 74 -318 96 -614 104 l-223 6 -19
41 -18 41 52 6 c89 10 278 9 372 -1z m201 -200 c80 -14 230 -63 299 -97 l54
-28 -60 -72 c-33 -40 -65 -73 -70 -73 -5 0 -30 15 -56 34 -56 39 -190 108
-248 126 -22 7 -43 15 -47 19 -3 3 -2 30 4 59 10 50 12 53 37 48 14 -3 53 -10
87 -16z m-166 -160 c111 -31 264 -110 359 -187 142 -113 254 -276 311 -453 22
-69 50 -214 50 -260 0 -28 -1 -28 -82 -35 -268 -22 -469 -112 -646 -287 -43
-43 -115 -134 -173 -219 -152 -224 -243 -304 -402 -354 -86 -27 -227 -45 -227
-28 0 5 7 32 15 59 26 88 39 240 27 329 -6 44 -10 80 -9 81 1 1 133 18 294 37
161 20 297 38 303 42 5 3 10 39 10 78 0 40 9 146 20 237 24 200 24 233 5 270
-31 60 -51 64 -340 56 -143 -3 -291 -9 -328 -13 l-68 -6 6 54 c17 148 53 266
110 359 74 122 216 220 370 254 97 22 293 15 395 -14z m-195 -695 c20 -19 25
-34 24 -72 l-1 -48 -13 30 c-20 45 -49 67 -97 72 -24 3 -157 -2 -297 -11 -325
-21 -301 -21 -301 9 0 24 3 25 58 26 31 1 129 5 217 9 88 3 211 7 273 8 108 2
114 1 137 -23z m-54 -74 c24 -19 24 -23 30 -243 3 -122 4 -225 3 -227 -3 -4
-567 -72 -570 -68 -1 1 -9 25 -17 53 l-15 51 136 6 c74 4 168 7 207 7 53 0 76
4 85 15 18 22 7 292 -13 312 -11 11 -45 11 -213 -2 -109 -8 -214 -15 -232 -15
l-33 0 3 48 3 47 255 16 c351 22 344 22 371 0z m969 -225 c0 -10 -24 -15 -92
-19 -114 -7 -189 -26 -295 -77 -160 -76 -232 -142 -420 -387 -68 -89 -155
-191 -193 -227 -117 -110 -261 -176 -430 -197 -97 -11 -132 -7 -123 17 4 10
23 14 72 14 132 0 288 57 401 146 65 51 109 105 223 273 181 265 365 396 638
456 88 19 219 20 219 1z m-17 -108 c-16 -57 -54 -115 -96 -148 -43 -34 -105
-57 -227 -84 -68 -15 -144 -40 -187 -61 -77 -38 -130 -87 -358 -326 -98 -103
-119 -121 -195 -158 -97 -47 -194 -74 -325 -90 -132 -16 -196 -15 -189 4 5 11
23 15 73 15 141 0 293 41 413 111 101 59 194 153 333 334 67 88 150 188 184
222 137 137 348 229 533 232 l57 1 -16 -52z"/>
</g>
</svg>
