<svg xmlns="http://www.w3.org/2000/svg" width="42.561" height="42" viewBox="0 0 42.561 42">
  <g id="_x31__stroke" transform="translate(0.078 -0.102)">
    <g id="Github_1_">
      <rect id="Rectangle_1" data-name="Rectangle 1" width="42" height="42" transform="translate(-0.078 0.102)" fill="none"/>
      <path id="Github" d="M21.24,1.333a21.339,21.339,0,0,0-6.712,41.561c1.062.2,1.45-.463,1.45-1.028,0-.506-.019-1.847-.029-3.627-5.909,1.289-7.156-2.859-7.156-2.859a5.638,5.638,0,0,0-2.358-3.119c-1.929-1.324.146-1.3.146-1.3a4.463,4.463,0,0,1,3.253,2.2c1.9,3.259,4.972,2.318,6.183,1.771a4.562,4.562,0,0,1,1.349-2.851c-4.717-.538-9.675-2.367-9.675-10.539a8.261,8.261,0,0,1,2.187-5.723,7.694,7.694,0,0,1,.207-5.643s1.784-.573,5.841,2.186a20.041,20.041,0,0,1,10.637,0c4.054-2.759,5.835-2.186,5.835-2.186a7.681,7.681,0,0,1,.211,5.643,8.247,8.247,0,0,1,2.184,5.723c0,8.192-4.966,10-9.7,10.523a5.1,5.1,0,0,1,1.442,3.949c0,2.851-.027,5.15-.027,5.85,0,.571.382,1.234,1.46,1.025A21.34,21.34,0,0,0,21.24,1.333" transform="translate(0 -0.891)" fill="#0085ff" fill-rule="evenodd"/>
    </g>
  </g>
</svg>
