<svg xmlns="http://www.w3.org/2000/svg" width="29.826" height="33.641" viewBox="0 0 29.826 33.641">
  <g id="_x32_33-node-js" transform="translate(-52.084 -26.001)">
    <g id="Group_4" data-name="Group 4" transform="translate(52.084 26.001)">
      <path id="Path_3" data-name="Path 3" d="M66.99,59.642a2.614,2.614,0,0,1-1.3-.347l-4.119-2.436c-.614-.347-.314-.467-.113-.534a8.11,8.11,0,0,0,1.862-.848.3.3,0,0,1,.307.027L66.8,57.379a.387.387,0,0,0,.38,0l12.33-7.116a.4.4,0,0,0,.187-.334V35.7a.4.4,0,0,0-.193-.34L67.177,28.247a.386.386,0,0,0-.38,0L54.48,35.363a.389.389,0,0,0-.194.34V49.929a.368.368,0,0,0,.194.327l3.378,1.949c1.836.914,2.957-.16,2.957-1.248V36.912a.353.353,0,0,1,.361-.354h1.562a.357.357,0,0,1,.36.354V50.964c0,2.443-1.335,3.845-3.651,3.845a5.242,5.242,0,0,1-2.837-.774l-3.231-1.862a2.6,2.6,0,0,1-1.3-2.25V35.7a2.6,2.6,0,0,1,1.3-2.25L65.7,26.331a2.7,2.7,0,0,1,2.59,0l12.33,7.123A2.6,2.6,0,0,1,81.91,35.7V49.929a2.612,2.612,0,0,1-1.295,2.25l-12.33,7.116A2.6,2.6,0,0,1,66.99,59.642Zm9.953-14.025c0-2.664-1.8-3.371-5.587-3.872-3.832-.507-4.219-.768-4.219-1.662,0-.741.327-1.729,3.164-1.729,2.53,0,3.465.547,3.852,2.256a.358.358,0,0,0,.347.28h1.6a.348.348,0,0,0,.26-.114.37.37,0,0,0,.093-.274c-.247-2.944-2.2-4.312-6.155-4.312-3.518,0-5.614,1.482-5.614,3.972,0,2.7,2.089,3.445,5.46,3.778,4.039.394,4.352.988,4.352,1.782,0,1.375-1.108,1.963-3.7,1.963-3.264,0-3.979-.821-4.219-2.443a.353.353,0,0,0-.354-.3h-1.6a.352.352,0,0,0-.354.354c0,2.076,1.128,4.553,6.529,4.553,3.9-.007,6.141-1.549,6.141-4.232Z" transform="translate(-52.084 -26.001)" fill="#539e43"/>
    </g>
  </g>
</svg>
