<svg xmlns="http://www.w3.org/2000/svg" width="31.768" height="31.945" viewBox="0 0 31.768 31.945">
  <g id="_x32_67-python" transform="translate(-28.946 -27.68)">
    <g id="Group_5" data-name="Group 5" transform="translate(28.946 27.68)">
      <path id="Path_4" data-name="Path 4" d="M40.493,42.551h7.349a3.705,3.705,0,0,0,3.675-3.737V31.8a4.108,4.108,0,0,0-3.675-3.826,22.684,22.684,0,0,0-7.349.007c-3.11.551-3.675,1.7-3.675,3.826v1.5h7.356v2.236H34.059a4.594,4.594,0,0,0-4.6,3.73,13.783,13.783,0,0,0,0,7.473c.523,2.175,1.769,3.73,3.909,3.73H35.9V47.121a4.672,4.672,0,0,1,4.6-4.569Z" transform="translate(-28.946 -27.68)" fill="#347ab4"/>
      <path id="Path_5" data-name="Path 5" d="M181.767,159.787c-.53-2.126-1.535-3.73-3.675-3.73h-2.759v3.262a4.72,4.72,0,0,1-4.6,4.666h-7.349a3.75,3.75,0,0,0-3.675,3.737v7.005c0,2,1.734,3.165,3.675,3.737a12.366,12.366,0,0,0,7.349,0c1.851-.537,3.675-1.617,3.675-3.737v-1.469h-7.342V170.99h11.024c2.14,0,2.932-1.493,3.675-3.73a12.585,12.585,0,0,0,0-7.473Z" transform="translate(-150.564 -147.076)" fill="#ffca1d"/>
      <path id="Path_6" data-name="Path 6" d="M169.767,53.859a1.344,1.344,0,1,1,1.328-1.341A1.335,1.335,0,0,1,169.767,53.859Z" transform="translate(-158.681 -49.528)" fill="#fff"/>
      <path id="Path_7" data-name="Path 7" d="M297.259,424.341A1.344,1.344,0,1,1,298.587,423,1.335,1.335,0,0,1,297.259,424.341Z" transform="translate(-277.254 -394.092)" fill="#fff"/>
    </g>
  </g>
</svg>
