<svg xmlns="http://www.w3.org/2000/svg" width="32.493" height="29.014" viewBox="0 0 32.493 29.014">
  <g id="_7423888_react_react_native_icon" data-name="7423888_react_react native_icon" transform="translate(-16.415 -2.631)">
    <circle id="Ellipse_1" data-name="Ellipse 1" cx="2.968" cy="2.968" r="2.968" transform="translate(29.693 14.17)" fill="#61dafb"/>
    <path id="Path_2" data-name="Path 2" d="M32.661,28.039c2.33,2.266,4.628,3.607,6.479,3.607a3.207,3.207,0,0,0,1.66-.415c1.66-.958,2.266-3.351,1.692-6.767-.1-.606-.223-1.213-.383-1.851.638-.192,1.213-.383,1.787-.575,3.224-1.245,5.011-2.968,5.011-4.852,0-1.915-1.787-3.639-5.011-4.852a14.642,14.642,0,0,0-1.787-.575c.16-.638.287-1.245.383-1.851.543-3.479-.064-5.9-1.724-6.862a3.207,3.207,0,0,0-1.66-.415c-1.819,0-4.149,1.341-6.479,3.607-2.3-2.266-4.6-3.607-6.448-3.607a3.207,3.207,0,0,0-1.66.415C22.862,4,22.256,6.4,22.831,9.813c.1.606.223,1.213.383,1.851-.638.192-1.213.383-1.787.575-3.224,1.245-5.011,2.968-5.011,4.852,0,1.915,1.787,3.639,5.011,4.852a14.642,14.642,0,0,0,1.787.575c-.16.638-.287,1.245-.383,1.851-.543,3.415.064,5.841,1.692,6.767a3.207,3.207,0,0,0,1.66.415C28.033,31.613,30.331,30.273,32.661,28.039ZM30.874,23.73c.575.032,1.181.032,1.787.032s1.213,0,1.787-.032c-.575.766-1.181,1.468-1.787,2.139C32.055,25.2,31.449,24.5,30.874,23.73Zm-3.958-3.288c.319.543.606,1.053.958,1.564-.989-.128-1.915-.287-2.809-.479.287-.862.606-1.756.989-2.649C26.31,19.389,26.6,19.931,26.916,20.442ZM25.065,12.75c.894-.192,1.819-.351,2.809-.479-.319.511-.638,1.021-.958,1.564s-.606,1.053-.862,1.6A21.338,21.338,0,0,1,25.065,12.75Zm1.756,4.373c.415-.862.862-1.724,1.372-2.585.479-.83,1.021-1.66,1.564-2.49.958-.064,1.915-.1,2.9-.1,1.021,0,1.979.032,2.9.1.575.83,1.085,1.66,1.564,2.49.511.862.958,1.724,1.372,2.585-.415.862-.862,1.724-1.372,2.585-.479.83-1.021,1.66-1.564,2.49-.958.064-1.915.1-2.9.1-1.021,0-1.979-.032-2.9-.1-.575-.83-1.085-1.66-1.564-2.49C27.682,18.846,27.235,17.984,26.82,17.122ZM39.3,15.4l-.862-1.6c-.319-.543-.606-1.053-.958-1.564.989.128,1.915.287,2.809.479C40,13.611,39.684,14.505,39.3,15.4Zm0,3.447c.383.894.7,1.787.989,2.649-.894.192-1.819.351-2.809.479.319-.511.638-1.021.958-1.564C38.726,19.931,39.013,19.389,39.3,18.846Zm.734,11.076a1.732,1.732,0,0,1-.926.223c-1.564,0-3.511-1.277-5.426-3.192A33.418,33.418,0,0,0,36.4,23.6a29.233,29.233,0,0,0,4.277-.67,16.5,16.5,0,0,1,.351,1.724C41.471,27.368,41.12,29.315,40.035,29.922ZM41.694,13.1c3.575,1.021,5.713,2.585,5.713,4.022,0,1.245-1.468,2.49-4.054,3.479-.511.192-1.085.383-1.66.543a33.546,33.546,0,0,0-1.564-4.022A28.91,28.91,0,0,0,41.694,13.1Zm-2.553-9a1.808,1.808,0,0,1,.926.223c1.053.606,1.436,2.522.989,5.267-.1.543-.223,1.117-.351,1.724a41.422,41.422,0,0,0-4.277-.67,29.491,29.491,0,0,0-2.713-3.351C35.63,5.408,37.577,4.1,39.141,4.1Zm-4.692,6.416c-.575-.032-1.181-.032-1.787-.032s-1.213,0-1.787.032c.575-.766,1.181-1.468,1.787-2.139C33.268,9.047,33.874,9.781,34.449,10.515ZM25.288,4.323a1.732,1.732,0,0,1,.926-.223c1.564,0,3.511,1.277,5.426,3.192a33.417,33.417,0,0,0-2.713,3.351,29.232,29.232,0,0,0-4.277.67A16.5,16.5,0,0,1,24.3,9.59C23.852,6.877,24.2,4.961,25.288,4.323Zm-1.66,16.821c-3.575-1.021-5.713-2.585-5.713-4.022,0-1.245,1.468-2.49,4.054-3.479.511-.192,1.085-.383,1.66-.543a33.546,33.546,0,0,0,1.564,4.022A30.541,30.541,0,0,0,23.629,21.144Zm.67,3.511c.1-.543.223-1.117.351-1.724a41.422,41.422,0,0,0,4.277.67,29.49,29.49,0,0,0,2.713,3.351c-1.915,1.883-3.862,3.192-5.426,3.192a1.808,1.808,0,0,1-.926-.223C24.2,29.315,23.852,27.368,24.3,24.655Z" transform="translate(0 0)" fill="#61dafb"/>
  </g>
</svg>
