<!-- Generated by IcoMoon.io -->
<svg version="1.1" xmlns="http://www.w3.org/2000/svg" width="369" height="448" viewBox="0 0 369 448">
<title></title>
<g id="icomoon-ignore">
</g>
<path fill="#000" d="M315.5 325.75c-9 1.5-18.25 2.25-27.5 2.25-92.75 0-168-75.25-168-168 0-31.75 9.25-62.75 26-89.25-66.5 19.75-114 80.75-114 153.25 0 88.25 71.75 160 160 160 48.25 0 93.5-22 123.5-58.25zM366.25 304.5c-31.25 67.75-99.75 111.5-174.25 111.5-105.75 0-192-86.25-192-192 0-103.75 81.25-188 184.75-191.75 7-0.25 12.75 3.75 15.25 9.75 2.75 6.25 1 13.5-3.75 18-28.5 26-44.25 61.5-44.25 100 0 75 61 136 136 136 19.75 0 38.75-4.25 57-12.75 6.25-2.75 13.25-1.5 18 3.25s6 12 3.25 18z"></path>
</svg>
