<?xml version="1.0" standalone="no"?>
<!DOCTYPE svg PUBLIC "-//W3C//DTD SVG 20010904//EN"
 "http://www.w3.org/TR/2001/REC-SVG-20010904/DTD/svg10.dtd">
<svg version="1.0" xmlns="http://www.w3.org/2000/svg"
 width="599.000000pt" height="93.000000pt" viewBox="0 0 599.000000 93.000000"
 preserveAspectRatio="xMidYMid meet">

<g transform="translate(0.000000,93.000000) scale(0.100000,-0.100000)"
fill="#000000" stroke="none">
<path d="M4457 892 c-16 -36 -22 -40 -75 -51 -31 -7 -77 -22 -102 -34 -60 -28
-137 -109 -168 -177 -22 -48 -26 -68 -26 -162 0 -101 2 -110 34 -172 l33 -65
-31 -60 -31 -60 37 21 c20 11 41 24 47 29 16 15 49 9 78 -15 26 -21 27 -26 16
-44 -19 -30 -4 -39 34 -20 23 12 69 18 167 21 121 4 139 2 177 -16 24 -12 45
-18 48 -15 3 3 -2 22 -11 42 -17 34 -17 37 1 56 10 11 23 20 28 20 6 0 41 -18
78 -39 38 -22 69 -38 69 -36 0 2 -16 41 -36 86 l-36 82 16 56 c22 79 25 114
16 187 -18 146 -102 245 -262 308 -28 11 -42 25 -55 55 -10 23 -20 41 -23 41
-4 0 -14 -17 -23 -38z m-67 -134 c0 -6 -9 -30 -19 -52 -116 -244 -145 -306
-158 -339 -9 -21 -21 -36 -27 -34 -6 2 -17 31 -25 65 -21 92 -1 196 51 262 58
73 178 139 178 98z m236 -34 c47 -31 67 -55 99 -116 21 -39 25 -62 25 -129 0
-56 -3 -80 -11 -77 -10 3 -60 103 -141 283 -13 28 -24 53 -26 58 -7 14 16 7
54 -19z m-127 -116 c10 -25 107 -232 147 -311 13 -27 22 -53 18 -58 -13 -22
-35 -4 -62 54 -73 150 -112 237 -112 247 0 32 -23 -9 -94 -165 -74 -164 -98
-198 -112 -162 -2 7 11 45 29 83 66 133 137 284 147 309 12 31 28 32 39 3z"/>
<path d="M1578 832 c-98 -29 -158 -100 -158 -189 0 -39 6 -56 31 -86 17 -20
36 -37 44 -37 7 0 18 -7 26 -16 7 -8 21 -13 32 -10 10 2 16 2 13 -2 -8 -8 49
-31 94 -38 19 -3 62 -14 96 -24 141 -43 173 -68 174 -136 0 -54 -25 -85 -91
-114 -44 -18 -66 -21 -138 -18 -117 5 -177 34 -210 100 -21 43 -27 48 -57 48
-32 0 -34 -2 -28 -28 17 -68 55 -120 111 -149 91 -47 300 -46 394 2 15 8 41
32 56 52 25 32 28 45 28 109 0 67 -2 75 -30 104 -47 50 -115 78 -310 126 -94
23 -152 59 -161 101 -7 36 12 103 29 103 6 0 20 9 32 20 28 27 151 38 224 20
58 -14 121 -66 121 -100 0 -17 7 -20 40 -20 48 0 51 15 17 75 -58 103 -229
151 -379 107z"/>
<path d="M90 805 l0 -35 130 0 130 0 0 -335 0 -335 23 4 c12 3 30 5 40 5 16 1
17 24 17 331 l0 330 125 0 125 0 0 35 0 35 -295 0 -295 0 0 -35z"/>
<path d="M971 818 c-34 -87 -88 -213 -112 -267 -17 -35 -28 -66 -25 -68 3 -3
-6 -23 -20 -44 -13 -21 -24 -43 -24 -48 0 -9 -26 -71 -70 -166 -15 -33 -30
-74 -34 -91 -7 -30 -6 -30 31 -29 35 2 39 5 53 46 9 24 29 72 44 106 l29 63
189 0 188 0 10 -27 c6 -16 19 -46 29 -68 34 -74 45 -100 43 -108 -1 -4 1 -7 5
-8 5 0 24 -1 44 -3 l36 -3 -17 46 c-17 45 -67 165 -95 226 -7 17 -18 41 -23
55 -6 14 -30 70 -53 125 -22 55 -49 116 -59 135 -9 19 -27 61 -40 93 l-22 57
-49 0 c-42 0 -51 -3 -58 -22z m78 -90 c8 -18 22 -52 32 -75 11 -23 19 -46 19
-52 0 -5 11 -31 24 -58 42 -84 65 -151 52 -156 -6 -2 -75 -5 -153 -5 -133 -1
-143 0 -143 17 0 16 26 84 60 156 5 11 19 45 30 75 29 74 54 129 60 130 3 0
11 -15 19 -32z"/>
<path d="M2100 472 l0 -369 23 3 c12 1 28 3 35 3 9 1 12 32 12 120 l0 118 76
69 c43 38 81 69 85 69 10 0 80 -89 176 -222 36 -51 70 -93 75 -93 4 0 8 -6 8
-13 0 -18 41 -53 60 -51 8 1 26 2 38 3 23 1 23 2 -10 44 -18 23 -38 48 -44 54
-7 7 -22 29 -35 50 -13 20 -29 44 -37 53 -27 30 -164 215 -169 227 -3 7 21 36
53 65 31 29 100 94 153 145 l96 92 -50 1 c-49 0 -51 -1 -136 -82 -147 -142
-321 -303 -330 -306 -5 -2 -9 82 -9 192 l0 196 -35 0 -35 0 0 -368z"/>
<path d="M2970 472 l0 -368 35 4 35 4 -3 154 c-2 131 0 154 13 155 8 0 101 0
206 -1 l192 -1 0 40 1 41 -206 2 -206 3 0 130 0 130 227 3 226 2 0 35 0 35
-260 0 -260 0 0 -368z"/>
<path d="M3570 475 l0 -365 224 0 c123 0 231 -3 240 -6 13 -5 16 1 16 30 l0
36 -200 0 -200 0 0 335 0 335 -40 0 -40 0 0 -365z"/>
<path d="M4850 834 c0 -10 28 -103 67 -221 18 -56 33 -109 33 -117 0 -9 7 -30
14 -48 8 -18 25 -67 36 -108 12 -41 30 -97 39 -125 10 -27 22 -63 27 -79 7
-23 16 -30 35 -31 51 -3 64 10 92 93 15 44 27 85 27 92 0 6 6 26 14 43 7 18
21 59 31 92 10 33 26 83 35 110 38 111 50 151 50 168 0 34 27 16 39 -25 7 -24
21 -65 30 -93 36 -101 51 -150 51 -166 0 -8 9 -34 20 -57 11 -22 20 -46 20
-53 0 -11 17 -67 48 -156 15 -43 15 -43 63 -43 40 0 49 3 49 18 0 9 15 62 33
117 19 55 42 127 51 160 10 33 24 75 32 93 8 18 14 40 14 50 1 9 8 35 16 57
16 42 20 55 52 168 l19 67 -37 0 c-36 0 -38 -1 -50 -47 -6 -27 -20 -73 -30
-103 -11 -30 -42 -131 -70 -225 -73 -247 -73 -246 -80 -250 -7 -4 -24 42 -110
315 -29 91 -63 197 -76 235 l-23 70 -40 3 c-38 3 -42 1 -55 -30 -8 -18 -24
-67 -36 -108 -12 -41 -28 -91 -36 -110 -7 -19 -23 -66 -33 -105 -33 -116 -85
-265 -92 -265 -4 0 -14 21 -22 48 -8 26 -31 99 -51 162 -20 63 -36 123 -36
132 0 9 -6 23 -12 30 -7 7 -14 23 -16 36 -2 13 -16 64 -31 115 l-27 92 -37 3
c-20 2 -37 0 -37 -4z"/>
</g>
</svg>
