<svg width="15" xmlns="http://www.w3.org/2000/svg" height="15" fill="none"><g xmlns:xlink="http://www.w3.org/1999/xlink" xml:space="preserve" style="fill: rgb(0, 0, 0);"><g style="fill: rgb(0, 0, 0);"><path d="m14.451 4.527-.662.663-3.978-3.977.662-.664a1.877 1.877 0 0 1 2.653 0l1.325 1.327a1.875 1.875 0 0 1 0 2.651ZM5.17 12.481a.469.469 0 0 0 .663.663l7.293-7.291-.664-.663-7.292 7.291ZM1.855 9.167a.469.469 0 0 0 .663.663l7.293-7.292-.663-.662-7.293 7.291Zm8.618-5.966L3.18 10.493a.939.939 0 0 0 1.327 1.325l7.292-7.291-1.326-1.326ZM4.505 13.805c-.224-.224-.332-.509-.372-.802a1.875 1.875 0 0 1-.29.029c-.501 0-.971-.196-1.325-.551a1.861 1.861 0 0 1-.55-1.325c0-.092.014-.181.027-.269a1.395 1.395 0 0 1-.803-.394c-.021-.021-.028-.05-.048-.072L0 15l4.505-1.195Zc.042.033.02.019 0 0Z" style="fill: rgb(240, 240, 240); fill-opacity: 1;" class="fills"/></g></g></svg>