<svg width="23" xmlns="http://www.w3.org/2000/svg" height="30" fill="none"><path d="M5.184 10S3.245 0 11.969 0c7.754 0 5.816 10 5.816 10" class="fills"/><g class="strokes"><path d="M5.184 10S3.245 0 11.969 0c7.754 0 5.816 10 5.816 10" style="fill: none; stroke-width: 1; stroke: rgb(182, 182, 182); stroke-opacity: 1;" class="stroke-shape"/></g><path d="M0 10h23v17a3 3 0 0 1-3 3H3a3 3 0 0 1-3-3V10z" class="fills"/><g class="strokes"><path d="M0 10h23v17a3 3 0 0 1-3 3H3a3 3 0 0 1-3-3V10z" style="fill: none; stroke-width: 1; stroke: rgb(182, 182, 182); stroke-opacity: 1;" class="stroke-shape"/></g><circle cx="11" cy="18" r="2" class="fills"/><g class="strokes"><circle cx="11" cy="18" style="fill: none; stroke-width: 1; stroke: rgb(182, 182, 182); stroke-opacity: 1;" r="2" class="stroke-shape"/></g><path d="M11 20v4" class="fills"/><g class="strokes"><path d="M11 20v4" style="fill: none; stroke-width: 1; stroke: rgb(182, 182, 182); stroke-opacity: 1;" class="stroke-shape"/></g></svg>