<svg version="1.2" baseProfile="tiny-ps" xmlns="http://www.w3.org/2000/svg" viewBox="0 0 16 16" width="16" height="16">
	<title>team</title>
	<style>
		tspan { white-space:pre }
		.shp0 { fill: #c6cacc } 
	</style>
	<g id="team">
		<g id="team 1">
			<g id="social icons">
				<path id="Shape 11" class="shp0" d="M8.6 7.22L8.6 7.19C8.6 7.2 8.59 7.21 8.59 7.22L8.6 7.22ZM14.82 0L1.18 0C0.53 0 0 0.51 0 1.15L0 14.85C0 15.49 0.53 16 1.18 16L14.82 16C15.47 16 16 15.49 16 14.85L16 1.15C16 0.51 15.47 0 14.82 0ZM4.85 13.39L2.43 13.39L2.43 6.17L4.85 6.17L4.85 13.39ZM3.64 5.18L3.63 5.18C2.81 5.18 2.29 4.63 2.29 3.93C2.29 3.23 2.83 2.69 3.66 2.69C4.48 2.69 4.99 3.23 5.01 3.93C5.01 4.63 4.48 5.18 3.64 5.18ZM13.56 13.39L11.15 13.39L11.15 9.53C11.15 8.56 10.8 7.89 9.92 7.89C9.26 7.89 8.86 8.34 8.68 8.77C8.62 8.93 8.6 9.14 8.6 9.36L8.6 13.39L6.19 13.39C6.19 13.39 6.22 6.85 6.19 6.17L8.6 6.17L8.6 7.19C8.93 6.7 9.5 6 10.78 6C12.37 6 13.56 7.03 13.56 9.25L13.56 13.39Z" />
			</g>
		</g>
	</g>
</svg>