<svg version="1.2" baseProfile="tiny-ps" xmlns="http://www.w3.org/2000/svg" viewBox="0 0 20 14" width="20" height="14">
	<title>team</title>
	<style>
		tspan { white-space:pre }
		.shp0 { fill: #c6cacc } 
	</style>
	<g id="team">
		<g id="team 1">
			<g id="social icons">
				<path id="Shape 3" class="shp0" d="M16 2.28C15.99 2.28 15.97 2.26 15.96 2.25C15.21 1.59 14.33 1.27 13.32 1.31L13.29 1.24C13.3 1.24 13.3 1.24 13.31 1.24C14.23 1.04 14.77 0.83 14.93 0.61C14.99 0.43 14.92 0.33 14.72 0.31C14.26 0.37 13.83 0.46 13.45 0.6C13.93 0.31 14.12 0.11 14.02 0C13.54 0.01 13.03 0.24 12.49 0.69C12.69 0.37 12.77 0.2 12.72 0.17C12.46 0.33 12.24 0.51 12.04 0.7C11.64 1.13 11.32 1.53 11.07 1.89L11.05 1.92C10.41 2.9 9.96 3.89 9.69 4.9L9.59 4.97L9.58 4.99C9.19 4.53 8.73 4.15 8.17 3.84C7.52 3.44 6.75 3.05 5.87 2.68C4.9 2.21 3.92 1.82 2.93 1.52C2.92 2.57 3.47 3.4 4.55 4.01L4.55 4.03C4.16 4.02 3.8 4.07 3.44 4.18C3.51 5.15 4.24 5.82 5.62 6.19L5.62 6.21C5.07 6.18 4.63 6.36 4.28 6.73C4.73 7.57 5.54 7.97 6.7 7.94C6.47 8.05 6.29 8.17 6.17 8.31C5.96 8.52 5.89 8.77 5.96 9.05C6.21 9.48 6.66 9.68 7.32 9.65L7.32 9.65L7.36 9.69C7.35 9.7 7.34 9.7 7.34 9.71C6.2 10.82 4.82 11.32 3.2 11.22L3.18 11.23C2.19 11.22 1.14 10.78 0 9.89C1.15 11.45 2.67 12.57 4.55 13.28C6.71 13.95 8.87 14 11.02 13.42L11.05 13.42C13.14 12.86 14.91 11.69 16.37 9.92C17.04 8.99 17.47 8.11 17.64 7.26C18.73 7.3 19.51 7 20 6.37L19.99 6.35C19.63 6.47 18.92 6.44 17.86 6.23L17.86 6.12C17.86 6.12 17.86 6.12 17.87 6.12C19.02 6 19.7 5.65 19.92 5.06C19.11 5.36 18.32 5.37 17.54 5.09C17.39 4.06 16.88 3.13 16 2.28Z" />
			</g>
		</g>
	</g>
</svg>