<svg version="1.1" xmlns="http://www.w3.org/2000/svg" xmlns:xlink="http://www.w3.org/1999/xlink" width="12" height="21"><defs/><g><path fill="rgb(198,202,204)" stroke="none" paint-order="stroke fill markers" fill-rule="evenodd" d=" M 10.000087976455688 6.828555583953857 C 10.000087976455688 6.828555583953857 7.275774240493774 6.828555583953857 7.275774240493774 6.828555583953857 C 7.275774240493774 6.828555583953857 7.275774240493774 4.960305213928223 7.275774240493774 4.960305213928223 C 7.275774240493774 4.258793115615845 7.7200493812561035 4.094984531402588 8.033408880233765 4.094984531402588 C 8.345749139785767 4.094984531402588 9.955920934677124 4.094984531402588 9.955920934677124 4.094984531402588 C 9.955920934677124 4.094984531402588 9.955920934677124 1.010779857635498 9.955920934677124 1.010779857635498 C 9.955920934677124 1.010779857635498 7.308050155639648 1.0000061988830566 7.308050155639648 1.0000061988830566 C 4.368563652038574 1.0000061988830566 3.699716091156006 3.300427198410034 3.699716091156006 4.77250075340271 C 3.699716091156006 4.77250075340271 3.699716091156006 6.828555583953857 3.699716091156006 6.828555583953857 C 3.699716091156006 6.828555583953857 1.9999644756317139 6.828555583953857 1.9999644756317139 6.828555583953857 C 1.9999644756317139 6.828555583953857 1.9999644756317139 10.006540060043335 1.9999644756317139 10.006540060043335 C 1.9999644756317139 10.006540060043335 3.699716091156006 10.006540060043335 3.699716091156006 10.006540060043335 C 3.699716091156006 14.085349321365356 3.699716091156006 19.000096559524536 3.699716091156006 19.000096559524536 C 3.699716091156006 19.000096559524536 7.275774240493774 19.000096559524536 7.275774240493774 19.000096559524536 C 7.275774240493774 19.000096559524536 7.275774240493774 14.03686785697937 7.275774240493774 10.006540060043335 C 7.275774240493774 10.006540060043335 9.687747716903687 10.006540060043335 9.687747716903687 10.006540060043335 C 9.687747716903687 10.006540060043335 10.000087976455688 6.828555583953857 10.000087976455688 6.828555583953857 Z"/></g></svg>