<svg version="1.1" xmlns="http://www.w3.org/2000/svg" xmlns:xlink="http://www.w3.org/1999/xlink" width="20" height="19"><defs/><g><path fill="rgb(198,202,204)" stroke="none" paint-order="stroke fill markers" fill-rule="evenodd" d=" M 10.60386848449707 9.21663498878479 C 10.60386848449707 9.21663498878479 10.60386848449707 9.191659688949585 10.60386848449707 9.191659688949585 C 10.598772287368774 9.20022964477539 10.592996597290039 9.208309888839722 10.587673902511597 9.21663498878479 C 10.587673902511597 9.21663498878479 10.60386848449707 9.21663498878479 10.60386848449707 9.21663498878479 Z M 16.817378520965576 1.999997615814209 C 16.817378520965576 1.999997615814209 3.1819934844970703 1.999997615814209 3.1819934844970703 1.999997615814209 C 2.529453754425049 1.999997615814209 1.9999022483825684 2.5132155418395996 1.9999022483825684 3.1461679935455322 C 1.9999022483825684 3.1461679935455322 1.9999022483825684 16.853689908981323 1.9999022483825684 16.853689908981323 C 1.9999022483825684 17.48615264892578 2.529453754425049 17.999860286712646 3.1819934844970703 17.999860286712646 C 3.1819934844970703 17.999860286712646 16.817378520965576 17.999860286712646 16.817378520965576 17.999860286712646 C 17.470597743988037 17.999860286712646 18.000036001205444 17.48615264892578 18.000036001205444 16.853689908981323 C 18.000036001205444 16.853689908981323 18.000036001205444 3.1461679935455322 18.000036001205444 3.1461679935455322 C 18.000036001205444 2.5132155418395996 17.470597743988037 1.999997615814209 16.817378520965576 1.999997615814209 Z M 6.849783182144165 15.393369436264038 C 6.849783182144165 15.393369436264038 4.4329400062561035 15.393369436264038 4.4329400062561035 15.393369436264038 C 4.4329400062561035 15.393369436264038 4.4329400062561035 8.1691415309906 4.4329400062561035 8.1691415309906 C 4.4329400062561035 8.1691415309906 6.849783182144165 8.1691415309906 6.849783182144165 8.1691415309906 C 6.849783182144165 8.1691415309906 6.849783182144165 15.393369436264038 6.849783182144165 15.393369436264038 Z M 5.641644716262817 7.182372331619263 C 5.641644716262817 7.182372331619263 5.625563383102417 7.182372331619263 5.625563383102417 7.182372331619263 C 4.814701795578003 7.182372331619263 4.290359735488892 6.62752890586853 4.290359735488892 5.934097051620483 C 4.290359735488892 5.225484132766724 4.831122875213623 4.686066627502441 5.657386302947998 4.686066627502441 C 6.484215974807739 4.686066627502441 6.99281644821167 5.225484132766724 7.0090110301971436 5.934097051620483 C 7.0090110301971436 6.62752890586853 6.484215974807739 7.182372331619263 5.641644716262817 7.182372331619263 Z M 15.563827276229858 15.393369436264038 C 15.563827276229858 15.393369436264038 13.14743709564209 15.393369436264038 13.14743709564209 15.393369436264038 C 13.14743709564209 15.393369436264038 13.14743709564209 11.528074502944946 13.14743709564209 11.528074502944946 C 13.14743709564209 10.557220935821533 12.797837972640991 9.894640922546387 11.923217296600342 9.894640922546387 C 11.255841970443726 9.894640922546387 10.858225345611572 10.34125804901123 10.68314266204834 10.772938966751099 C 10.619270324707031 10.927443027496338 10.60386848449707 11.142916202545166 10.60386848449707 11.358634233474731 C 10.60386848449707 11.358634233474731 10.60386848449707 15.393369436264038 10.60386848449707 15.393369436264038 C 10.60386848449707 15.393369436264038 8.187138557434082 15.393369436264038 8.187138557434082 15.393369436264038 C 8.187138557434082 15.393369436264038 8.218734979629517 8.846168041229248 8.187138557434082 8.1691415309906 C 8.187138557434082 8.1691415309906 10.60386848449707 8.1691415309906 10.60386848449707 8.1691415309906 C 10.60386848449707 8.1691415309906 10.60386848449707 9.191659688949585 10.60386848449707 9.191659688949585 C 10.925042152404785 8.69974422454834 11.499326944351196 7.9987218379974365 12.78209638595581 7.9987218379974365 C 14.371996641159058 7.9987218379974365 15.563827276229858 9.031523942947388 15.563827276229858 11.251142501831055 C 15.563827276229858 11.251142501831055 15.563827276229858 15.393369436264038 15.563827276229858 15.393369436264038 Z"/></g></svg>