<svg version="1.1" xmlns="http://www.w3.org/2000/svg" xmlns:xlink="http://www.w3.org/1999/xlink" width="23" height="17"><defs/><g><path fill="rgb(198,202,204)" stroke="none" paint-order="stroke fill markers" fill-rule="evenodd" d=" M 16.997910261154175 4.282535552978516 C 16.985452890396118 4.276414155960083 16.972655773162842 4.262457370758057 16.960085153579712 4.250214576721191 C 16.212303161621094 3.5891036987304688 15.333492279052734 3.273484468460083 14.322973012924194 3.311192274093628 C 14.322973012924194 3.311192274093628 14.291829586029053 3.2433671951293945 14.291829586029053 3.2433671951293945 C 14.298171520233154 3.237245798110962 14.30428695678711 3.237245798110962 14.310515642166138 3.237245798110962 C 15.227038383483887 3.0384228229522705 15.769500255584717 2.8344578742980957 15.93133282661438 2.6123735904693604 C 15.987730741500854 2.4331390857696533 15.919554948806763 2.3342173099517822 15.719557523727417 2.3094868659973145 C 15.258068561553955 2.3650691509246826 14.834064960479736 2.457624673843384 14.453775405883789 2.600130796432495 C 14.934176921844482 2.3094868659973145 15.121037483215332 2.1055219173431396 15.015036582946777 1.9999890327453613 C 14.541203498840332 2.0122318267822266 14.030224800109863 2.2419066429138184 13.493538618087769 2.693420886993408 C 13.693083047866821 2.3711905479431152 13.76816701889038 2.1978325843811035 13.718337535858154 2.1672255992889404 C 13.462734937667847 2.3342173099517822 13.238049268722534 2.5136966705322266 13.044960021972656 2.7049291133880615 C 12.63952922821045 3.1317129135131836 12.315297842025757 3.527400016784668 12.065923929214478 3.886603593826294 C 12.065923929214478 3.886603593826294 12.053579807281494 3.917210578918457 12.053579807281494 3.917210578918457 C 11.411685466766357 4.900306940078735 10.962767124176025 5.889279842376709 10.694480657577515 6.897841215133667 C 10.694480657577515 6.897841215133667 10.594934940338135 6.972522258758545 10.594934940338135 6.972522258758545 C 10.594934940338135 6.972522258758545 10.576362133026123 6.990151882171631 10.576362133026123 6.990151882171631 C 10.189504146575928 6.532761096954346 9.728241682052612 6.149561643600464 9.173548936843872 5.839329242706299 C 8.519083976745605 5.4380104541778564 7.751936435699463 5.054566144943237 6.866443872451782 4.683854341506958 C 5.900431394577026 4.21397590637207 4.921508550643921 3.8241653442382812 3.930128335952759 3.5215234756469727 C 3.924126148223877 4.566568374633789 4.4663615226745605 5.401037216186523 5.545056581497192 6.00730037689209 C 5.545056581497192 6.00730037689209 5.545056581497192 6.025664567947388 5.545056581497192 6.025664567947388 C 5.164540529251099 6.018808603286743 4.796708345413208 6.074880599975586 4.441446781158447 6.180658340454102 C 4.509735822677612 7.151267051696777 5.239398002624512 7.818989038467407 6.6234118938446045 8.189700841903687 C 6.6234118938446045 8.189700841903687 6.6168434619903564 8.208065032958984 6.6168434619903564 8.208065032958984 C 6.074721336364746 8.178192615509033 5.625916242599487 8.35742712020874 5.276656866073608 8.72813892364502 C 5.731917142868042 9.569218873977661 6.536097049713135 9.970537662506104 7.702333450317383 9.939685821533203 C 7.4711925983428955 10.051340103149414 7.2906739711761475 10.174012899398804 7.172215700149536 10.311132192611694 C 6.960213899612427 10.521463394165039 6.8913586139678955 10.769502401351929 6.960213899612427 11.053045511245728 C 7.209474563598633 11.47982931137085 7.658506155014038 11.67693829536438 8.31942629814148 11.646821022033691 C 8.31942629814148 11.646821022033691 8.31942629814148 11.646821022033691 8.31942629814148 11.646821022033691 C 8.31942629814148 11.646821022033691 8.356571912765503 11.689915657043457 8.356571912765503 11.689915657043457 C 8.350456476211548 11.69603705406189 8.344114542007446 11.70240330696106 8.337885856628418 11.708279848098755 C 7.197017192840576 12.82163953781128 5.819231986999512 13.322369813919067 4.204190492630005 13.217571496963501 C 4.204190492630005 13.217571496963501 4.179388999938965 13.229814291000366 4.179388999938965 13.229814291000366 C 3.1944639682769775 13.222958326339722 2.1409101486206055 12.778544902801514 1.0000414848327637 11.888004064559937 C 2.147138833999634 13.445532321929932 3.668297052383423 14.570889949798584 5.551285266876221 15.276564598083496 C 7.708109140396118 15.950652837753296 9.865612506866455 15.999868869781494 12.016207695007324 15.424457550048828 C 12.016207695007324 15.424457550048828 12.053579807281494 15.424457550048828 12.053579807281494 15.424457550048828 C 14.142454385757446 14.855412483215332 15.912873268127441 13.686715364456177 17.371404886245728 11.918855905532837 C 18.044782400131226 10.991341829299927 18.468899250030518 10.107656955718994 18.637413501739502 9.259721040725708 C 19.72822618484497 9.296694278717041 20.51383328437805 8.999928951263428 21.00001049041748 8.369669914245605 C 21.00001049041748 8.369669914245605 20.988006114959717 8.350571155548096 20.988006114959717 8.350571155548096 C 20.626062870025635 8.47373366355896 19.91542649269104 8.437739849090576 18.861419677734375 8.233530044555664 C 18.861419677734375 8.233530044555664 18.861419677734375 8.121875762939453 18.861419677734375 8.121875762939453 C 18.861419677734375 8.116488933563232 18.861419677734375 8.116488933563232 18.867988109588623 8.121875762939453 C 20.021540641784668 7.998468399047852 20.700920343399048 7.646610498428345 20.91926407814026 7.064343214035034 C 20.114631175994873 7.361598253250122 19.322795391082764 7.3667402267456055 18.537188291549683 7.089563369750977 C 18.39426827430725 6.062637805938721 17.883289575576782 5.129247188568115 16.997910261154175 4.282535552978516 Z"/></g></svg>