<?xml version="1.0"?>
<svg xmlns="http://www.w3.org/2000/svg" xmlns:xlink="http://www.w3.org/1999/xlink" xmlns:svgjs="http://svgjs.com/svgjs" version="1.1" width="512" height="512" x="0" y="0" viewBox="0 0 512 512" style="enable-background:new 0 0 512 512" xml:space="preserve" class=""><g>
<path xmlns="http://www.w3.org/2000/svg" style="" d="M512,256c0,127.969-93.895,234.005-216.555,252.98c-2.769,0.428-5.559,0.815-8.359,1.149  c-9.007,1.097-18.16,1.714-27.429,1.839C258.435,511.99,257.223,512,256,512s-2.435-0.01-3.657-0.031  c-9.268-0.125-18.422-0.742-27.429-1.839c-2.8-0.334-5.59-0.721-8.359-1.149C93.895,490.005,0,383.969,0,256  C0,114.615,114.615,0,256,0S512,114.615,512,256z" fill="#24292e" data-original="#f2f2f2" class=""/>
<g xmlns="http://www.w3.org/2000/svg">
	<path style="" d="M512,256c0,9.644-0.533,19.163-1.578,28.536c-0.115,1.045-0.23,2.1-0.355,3.145   c-0.658,5.308-1.484,10.574-2.456,15.778c-0.188,1.034-0.387,2.058-0.596,3.072c-18.098,90.436-83.832,163.652-169.942,192.355   c-12.978,2.508-17.586-5.465-17.586-12.288c0-8.432,0.293-35.997,0.293-70.249c0-23.886-8.182-39.466-17.356-47.407   c44.335-4.932,90.425-19.122,108.711-71.471c0.366-1.024,0.711-2.069,1.045-3.124c1.024-3.187,1.933-6.51,2.748-9.979   c0.24-1.034,0.481-2.079,0.7-3.145c2.393-11.337,3.689-24.137,3.689-38.599c0-27.941-9.937-50.782-26.352-68.712   c2.664-6.447,11.431-32.486-2.508-67.751c0,0-21.462-6.875-70.332,26.248c-20.459-5.674-42.371-8.516-64.125-8.62   c-21.755,0.104-43.656,2.947-64.084,8.62c-48.912-33.123-70.416-26.248-70.416-26.248c-13.897,35.265-5.13,61.304-2.476,67.751   c-16.374,17.93-26.384,40.772-26.384,68.712c0,14.451,1.296,27.251,3.699,38.588c0.219,1.066,0.449,2.111,0.69,3.145   c0.815,3.469,1.735,6.802,2.759,9.989c0.334,1.055,0.69,2.1,1.045,3.124c18.275,52.255,64.24,66.644,108.45,71.67   c-7.325,6.395-13.96,17.69-16.259,34.241c-14.608,6.541-51.66,17.847-74.491-21.285c0,0-13.542-24.576-39.246-26.384   c0,0-24.984-0.324-1.745,15.559c0,0,16.771,7.879,28.421,37.46c0,0,15.026,45.693,86.246,30.208   c0.115,21.389,0.345,41.556,0.345,47.658c0,6.76-4.692,14.691-17.492,12.319C88.9,470.235,23.092,397.009,4.984,306.531v-0.01   c-0.209-1.014-0.408-2.038-0.585-3.062c-0.982-5.204-1.808-10.47-2.456-15.778c-0.136-1.045-0.251-2.09-0.366-3.145   C0.533,275.163,0,265.644,0,256C0,114.615,114.636,0,256,0C397.375,0,512,114.615,512,256z" fill="#666666" data-original="#222123" class=""/>
	<path style="" d="M94.678,363.698c-1.849-0.878-3.856-0.512-4.409,0.794c-0.596,1.275,0.439,3.009,2.299,3.845   c1.829,0.878,3.824,0.502,4.389-0.773C97.604,366.289,96.538,364.534,94.678,363.698z" fill="#666666" data-original="#222123" class=""/>
	<path style="" d="M106.6,373.802c-1.682-1.776-3.992-2.309-5.245-1.181c-1.243,1.149-0.93,3.542,0.742,5.319   c1.62,1.787,4.012,2.32,5.235,1.191C108.607,377.981,108.272,375.609,106.6,373.802z" fill="#666666" data-original="#222123" class=""/>
	<path style="" d="M117.457,387.709c-1.609-2.257-4.138-3.239-5.716-2.152c-1.609,1.097-1.609,3.824-0.042,6.102   c1.588,2.278,4.148,3.302,5.726,2.205C119.024,392.756,119.024,390.019,117.457,387.709z" fill="#666666" data-original="#222123" class=""/>
	<path style="" d="M129.849,401.575c-2.205-2.1-5.214-2.529-6.635-0.982c-1.4,1.546-0.784,4.483,1.452,6.541   c2.194,2.111,5.183,2.529,6.583,0.982C132.744,406.58,132.065,403.634,129.849,401.575z" fill="#666666" data-original="#222123" class=""/>
	<path style="" d="M146.139,411.136c-2.926-0.909-5.82,0.042-6.416,2.058c-0.585,2.027,1.306,4.378,4.2,5.256   c2.905,0.846,5.778-0.063,6.405-2.069C150.925,414.344,149.034,412.014,146.139,411.136z" fill="#666666" data-original="#222123" class=""/>
	<path style="" d="M165.742,414.187c-3.062,0.052-5.465,1.776-5.465,3.908c0.031,2.079,2.508,3.793,5.569,3.72   c3.041-0.031,5.507-1.787,5.433-3.897C171.28,415.828,168.782,414.124,165.742,414.187z" fill="#666666" data-original="#222123" class=""/>
	<path style="" d="M190.777,414.605c-0.387-2.1-3.103-3.333-6.123-2.811c-2.978,0.543-5.13,2.664-4.754,4.775   c0.376,2.038,3.124,3.312,6.102,2.769C189.022,418.774,191.133,416.664,190.777,414.605z" fill="#666666" data-original="#222123" class=""/>
</g>
<g xmlns="http://www.w3.org/2000/svg">
</g>
<g xmlns="http://www.w3.org/2000/svg">
</g>
<g xmlns="http://www.w3.org/2000/svg">
</g>
<g xmlns="http://www.w3.org/2000/svg">
</g>
<g xmlns="http://www.w3.org/2000/svg">
</g>
<g xmlns="http://www.w3.org/2000/svg">
</g>
<g xmlns="http://www.w3.org/2000/svg">
</g>
<g xmlns="http://www.w3.org/2000/svg">
</g>
<g xmlns="http://www.w3.org/2000/svg">
</g>
<g xmlns="http://www.w3.org/2000/svg">
</g>
<g xmlns="http://www.w3.org/2000/svg">
</g>
<g xmlns="http://www.w3.org/2000/svg">
</g>
<g xmlns="http://www.w3.org/2000/svg">
</g>
<g xmlns="http://www.w3.org/2000/svg">
</g>
<g xmlns="http://www.w3.org/2000/svg">
</g>
</g></svg>
