<svg id="Layer_1" data-name="Layer 1" xmlns="http://www.w3.org/2000/svg" width ="500px" height="500px" viewBox="0 0 500 500">
    <defs>
        <style>.cls-1{fill:#f0fad4;}.cls-2{fill:#c9dba7;}</style>
    </defs>
    <title>Artboard 1</title>
    <rect class="cls-1" width="100%" height="100%"/>
    <path class="cls-2" d="M41,307.69l9.43-9.43a26.77,26.77,0,0,0,0-37.71L0,210.15V229l41,41a13.23,13.23,0,0,1,0,18.86L3.26,326.55A13.61,13.61,0,0,1,0,329V343A26.42,26.42,0,0,0,12.69,336l9.43-9.43L41,345.4a13.33,13.33,0,0,0,18.86-18.86Z"/><path class="cls-2" d="M22.12,279.54a6.67,6.67,0,0,0,.13-9.43l-.13-.13L0,247.86v18.86l12.69,12.69A6.67,6.67,0,0,0,22.12,279.54Z"/><path class="cls-2" d="M35.09,32A39.88,39.88,0,0,1,0,43.16V56.54a53.61,53.61,0,0,0,33.85-6.93L49.24,65A13.33,13.33,0,0,0,68.09,46.14L52.71,30.76A53.57,53.57,0,0,0,59.93,0H46.68A39.88,39.88,0,0,1,35.09,32Z"/><path class="cls-2" d="M444.18,127.42a6.67,6.67,0,0,1-1.85,9.25l-21.65,14.43a20.05,20.05,0,0,1-.91,27.17,6.67,6.67,0,0,1-4.73,2c-6.07,3.42-13.3,4.18-19.26,1.1l-70.42,55.59a13.32,13.32,0,0,1-17.68-1l-39.8-39.8a13.33,13.33,0,0,1-1-17.69L322.43,108c-3.07-6-2.32-13.19,1.1-19.26a6.67,6.67,0,0,1,2-4.73,20.1,20.1,0,0,1,28.28,0,26.77,26.77,0,0,1,37.71,0l23.57,23.57c7.86,7.86,26.55,17.6,26.55,17.6a6.67,6.67,0,0,1,2.56,2.26ZM405.63,117,382.06,93.41a13.23,13.23,0,0,0-18.86,0l9.43,9.43.13.13a6.67,6.67,0,0,1-9.56,9.29l-13.4-13.4a6.67,6.67,0,0,1-1.54-1.54l-3.92-3.92a6.67,6.67,0,1,0-9.43,9.43l10.45,10.45,27.26,27.26a6.67,6.67,0,0,1,0,9.43l-4.71,4.71a6.67,6.67,0,1,0,9.43,9.43l4.71-4.71a6.67,6.67,0,0,1,9.43,0l4.66,4.66,4.77,4.77a6.67,6.67,0,1,0,9.43-9.43l-3.67-3.67a6.67,6.67,0,0,1-2.13-2.13l-22.48-22.48-.13-.13a6.67,6.67,0,0,1,9.56-9.29l19.7,19.7,14.56-9.7C419.36,128,411.63,123,405.63,117Zm-80.14,14.14v9.43h9.43v-9.43Zm0,18.86v9.43h9.43V150Zm-18.86,0v9.43h9.43V150Zm18.86,18.86v9.43h9.43v-9.43Zm-18.86,0v9.43h9.43v-9.43Zm-18.86,0v9.43h9.43v-9.43Zm18.86,18.86v9.43h9.43v-9.43Zm-18.86,0v9.43h9.43v-9.43Z"/><path class="cls-2" d="M304.46,17.54a20,20,0,0,1-5.57,3.86L277.5,0H230.36l50.53,50.53a6.67,6.67,0,0,0,7.72,1.23l19.11-9.56v0a6.62,6.62,0,0,0,1.45-10.51l-.48-.48A33.11,33.11,0,0,0,313.89,27,32.12,32.12,0,0,0,323,0H310.05A19.9,19.9,0,0,1,304.46,17.54Z"/><path class="cls-2" d="M195.27,68.63a20,20,0,0,0,23.08,3.75L262,50.53,243.18,31.68h-9.43V22.25l-9.43-9.43h-9.43V3.39L211.5,0h-9.05L183.62,37.64a20,20,0,0,0,3.75,23.08Zm19.62-46.38h9.43v9.43h-9.43Zm0,18.86h9.43v9.43h-9.43ZM196,22.25h9.43v9.43H196Zm0,18.86h9.43v9.43H196Z"/><path class="cls-2" d="M21,442.43c-.88-.88-1.59-1.45-2-1.82a6.67,6.67,0,0,0-7.32-1.08A33.49,33.49,0,0,1,0,442.62V455.5A47.17,47.17,0,0,0,12.64,453l22.46,22.46A39.88,39.88,0,0,1,46.68,500H59.93a53,53,0,0,0-15.41-34Z"/><path class="cls-2" d="M500,247.86l-15.6-15.6a6.67,6.67,0,0,0-9.43-.13l-.14.14a6.67,6.67,0,0,0,.14,9.42l25,25Z"/><path class="cls-2" d="M500,329a13.22,13.22,0,0,1-15.6-2.41L427.84,270a13.23,13.23,0,0,1,0-18.86l37.71-37.71a13.23,13.23,0,0,1,18.86,0L500,229V210.15L493.83,204a26.77,26.77,0,0,0-37.71,0l-37.71,37.71a26.77,26.77,0,0,0,0,37.71L475,336A26.73,26.73,0,0,0,500,343Z"/><path class="cls-2" d="M456.12,260.55a6.67,6.67,0,0,0-9.43-.13l-.14.14a6.67,6.67,0,0,0,.14,9.42l37.71,37.71A6.67,6.67,0,1,0,494,298.4l-.13-.13Z"/><path class="cls-2" d="M500,43.16A39.89,39.89,0,0,1,478.53,32L455,8.43A40.32,40.32,0,0,1,448.5,0H433.75a53,53,0,0,0,11.77,17.86L469.1,41.43A52.89,52.89,0,0,0,500,56.54Z"/><path class="cls-2" d="M455,451.86c3.51-3.51,7.74-5.63,12-7.55a45.79,45.79,0,0,0,33,11.19V442.62A33.09,33.09,0,0,1,473.81,433c-.2-.2-.54-.6-1.12-1.25a6.67,6.67,0,0,0-7.2-1.86A53.22,53.22,0,0,0,433.75,500H448.5A39.89,39.89,0,0,1,455,451.86Z"/><path class="cls-2" d="M313.89,442.11c-11.57-11.57-29.44-12.22-42.43-3.13-13-9.09-30.85-8.44-42.43,3.13a33.11,33.11,0,0,0-4.24,5.19l-.48-.48a6.66,6.66,0,0,0-10.52,1.45h0q-.16.28-.29.58l-9.27,18.53h0a6.67,6.67,0,0,0,1.22,7.71L230.36,500H277.5l-42.89-42.89a19.84,19.84,0,0,1,32.14-5.57,19.78,19.78,0,0,1,5.46,10.14,6.67,6.67,0,0,0,13.19-2q0-.32-.13-.64a33.18,33.18,0,0,0-4.41-10.89,20,20,0,0,1,23.61,31.67,6.67,6.67,0,0,0,0,9.43A20,20,0,0,1,310.05,500H323a34.49,34.49,0,0,0-6-15.46C326.11,471.55,325.46,453.68,313.89,442.11Z"/><polygon class="cls-2" points="205.46 493.96 202.45 500 211.5 500 205.46 493.96"/><path class="cls-2" d="M211.64,373.72l1,1,.13.13a6.67,6.67,0,1,1-9.56,9.29l-4.71-4.71a6.67,6.67,0,0,1,0-9.43,33.33,33.33,0,0,0-47.14-47.14,6.67,6.67,0,0,1-9.43,0l-4.71-4.71L137,318a6.67,6.67,0,1,1,9.56-9.29l1,1c18.24-13.47,43.83-12.74,60.33,3.76S225.11,355.47,211.64,373.72Zm-50.9-13.18a6.67,6.67,0,0,1,0,9.43L156,374.67a6.67,6.67,0,0,0,9.43,9.43l4.71-4.71a6.67,6.67,0,0,1,9.43,0L196,395.81a6.68,6.68,0,0,1-2.25,10.92L107.35,441a20.85,20.85,0,0,1-25-7.76c-4-5.91-4.31-13.6-1.68-20.24l33.87-85.47a6.67,6.67,0,0,1,10.91-2.26Z"/><path class="cls-2" d="M153.77,111.79l47.14,47.14a13.43,13.43,0,0,1,0,18.86l-18.86,18.86,18.86,18.86a13.33,13.33,0,1,1-18.86,18.86L163.2,215.5l-18.86,18.86a13.43,13.43,0,0,1-18.86,0L78.35,187.22C58.18,167,58,134.71,77,113.82a6.67,6.67,0,0,1,1.35-2A53.44,53.44,0,0,1,153.77,111.79Zm-66,66,47.14,47.14,56.57-56.57-47.14-47.14a40,40,0,0,0-56.57,56.57Zm9.56-47.27a6.67,6.67,0,0,1,9.29,9.56,13.23,13.23,0,0,0,0,18.86l.13.13a6.67,6.67,0,0,1-9.56,9.29,26.77,26.77,0,0,1,0-37.71Z"/><path class="cls-2" d="M372.77,290.74l47.14,47.14a13.43,13.43,0,0,1,0,18.86l-18.86,18.86,18.86,18.86a13.33,13.33,0,1,1-18.86,18.86L382.2,394.45,363.35,413.3a13.43,13.43,0,0,1-18.86,0l-47.14-47.14C277.18,346,277,313.66,296,292.77a6.67,6.67,0,0,1,1.35-2A53.44,53.44,0,0,1,372.77,290.74Zm-66,66,47.14,47.14,56.57-56.57-47.14-47.14a40,40,0,0,0-56.57,56.57Zm9.56-47.27a6.67,6.67,0,0,1,9.29,9.56,13.23,13.23,0,0,0,0,18.86l.13.13a6.67,6.67,0,0,1-9.56,9.29,26.77,26.77,0,0,1,0-37.71Z"/>
</svg>