<?xml version="1.0" standalone="no"?>
<!DOCTYPE svg PUBLIC "-//W3C//DTD SVG 20010904//EN"
 "http://www.w3.org/TR/2001/REC-SVG-20010904/DTD/svg10.dtd">
<svg version="1.0" xmlns="http://www.w3.org/2000/svg"
 width="403.000000pt" height="83.000000pt" viewBox="0 0 403.000000 83.000000"
 preserveAspectRatio="xMidYMid meet">

<g transform="translate(0.000000,83.000000) scale(0.100000,-0.100000)"
fill="#000000" stroke="none">
<path d="M244 646 c-3 -8 -4 -93 -2 -191 l3 -177 29 -24 c35 -31 80 -29 84 2
2 16 -4 24 -27 32 l-31 11 0 165 c0 90 -3 171 -6 180 -8 20 -43 21 -50 2z"/>
<path d="M1484 646 c-3 -8 -4 -93 -2 -191 l3 -177 29 -24 c35 -31 80 -29 84 2
2 16 -4 24 -27 32 l-31 11 0 165 c0 90 -3 171 -6 180 -8 20 -43 21 -50 2z"/>
<path d="M2506 644 c-3 -9 -6 -100 -6 -204 0 -154 3 -190 15 -200 8 -7 22 -10
30 -6 12 4 15 23 15 86 l0 80 39 0 c39 0 40 -2 92 -85 33 -55 58 -85 69 -85
35 0 31 31 -14 103 l-45 71 35 38 c27 31 34 46 34 81 0 54 -30 104 -75 123
-49 20 -181 19 -189 -2z m164 -47 c38 -19 55 -61 40 -98 -16 -39 -37 -49 -99
-49 l-51 0 0 80 0 80 43 0 c23 0 53 -6 67 -13z"/>
<path d="M1667 643 c-15 -15 -6 -52 14 -58 28 -9 53 16 44 44 -6 20 -43 29
-58 14z"/>
<path d="M473 510 c-49 -29 -68 -65 -68 -129 0 -93 57 -151 147 -151 89 0 150
60 150 149 0 94 -55 151 -147 151 -32 0 -62 -7 -82 -20z m151 -61 c81 -96 -37
-224 -133 -143 -27 22 -31 32 -31 73 0 67 32 101 94 101 37 0 48 -5 70 -31z"/>
<path d="M843 511 c-93 -58 -86 -219 11 -265 43 -20 99 -20 142 0 41 20 47 54
10 54 -14 0 -28 -4 -31 -10 -3 -5 -24 -10 -46 -10 -55 0 -99 42 -99 95 0 40
14 73 39 92 23 18 96 16 111 -2 15 -18 46 -20 56 -4 3 6 -5 23 -19 37 -36 36
-127 42 -174 13z"/>
<path d="M1176 511 c-65 -43 -89 -138 -52 -210 35 -66 128 -91 193 -51 32 19
32 19 38 0 8 -24 40 -26 49 -4 3 9 6 48 6 87 -1 131 -53 197 -155 197 -32 0
-60 -7 -79 -19z m148 -57 c60 -61 16 -174 -69 -174 -53 0 -95 44 -95 100 0 88
103 134 164 74z"/>
<path d="M1675 518 c-3 -8 -4 -75 -3 -149 3 -126 4 -134 23 -134 19 0 20 7 20
145 0 130 -2 145 -18 148 -9 2 -19 -3 -22 -10z"/>
<path d="M1810 505 c0 -23 2 -24 80 -27 l79 -3 -80 -104 c-44 -58 -78 -112
-77 -120 3 -13 21 -16 118 -16 108 0 115 1 115 20 0 18 -8 20 -77 23 -43 2
-78 5 -78 8 0 3 34 49 75 103 41 53 75 107 75 119 0 21 -3 22 -115 22 l-115 0
0 -25z"/>
<path d="M2180 508 c-85 -57 -93 -177 -15 -248 22 -21 37 -25 85 -25 41 0 63
5 77 18 25 22 29 22 36 -4 4 -13 12 -20 24 -17 16 3 18 15 21 93 3 99 -5 129
-49 171 -42 40 -129 46 -179 12z m143 -48 c48 -38 44 -130 -7 -165 -11 -8 -37
-15 -57 -15 -41 0 -83 34 -93 76 -9 34 10 90 37 109 31 21 89 19 120 -5z"/>
<path d="M2914 520 c-27 -11 -72 -65 -80 -96 -10 -38 2 -104 23 -133 41 -56
127 -76 198 -47 25 11 35 21 35 37 0 18 -4 20 -27 14 -16 -4 -49 -9 -75 -12
-43 -4 -51 -2 -78 25 -16 17 -30 35 -30 41 0 7 38 11 109 11 77 0 112 4 118
12 21 36 -16 125 -62 146 -30 14 -100 15 -131 2z m92 -40 c29 -11 53 -37 54
-57 0 -10 -24 -13 -90 -13 l-90 0 12 26 c7 15 26 33 43 40 37 16 38 16 71 4z"/>
<path d="M3274 520 c-26 -10 -72 -65 -79 -93 -3 -12 -4 -89 -3 -172 3 -142 4
-150 23 -150 18 0 20 8 23 83 2 45 6 82 9 82 4 0 15 -8 26 -17 14 -13 36 -18
77 -18 48 0 63 4 85 25 78 73 72 190 -14 247 -35 24 -105 30 -147 13z m118
-51 c27 -14 51 -74 43 -109 -21 -95 -148 -109 -185 -21 -17 42 -5 95 27 121
28 22 82 26 115 9z"/>
<path d="M3650 523 c-8 -3 -26 -15 -38 -27 -76 -68 -67 -187 18 -244 29 -20
44 -23 93 -20 51 4 63 9 94 41 32 32 37 43 40 94 5 71 -17 118 -68 145 -32 17
-106 23 -139 11z m127 -67 c24 -21 28 -32 28 -76 0 -44 -4 -55 -28 -76 -33
-28 -91 -32 -124 -9 -50 35 -50 135 0 170 33 23 91 19 124 -9z"/>
</g>
</svg>
