<svg xmlns="http://www.w3.org/2000/svg" width="600" height="400"><path d="M313,196L267,220L313,269Z" fill="rgb(12,14,26)" stroke="rgb(12,14,26)" stroke-width="1.51"/><path d="M267,220L247,255L313,269Z" fill="rgb(12,15,26)" stroke="rgb(12,15,26)" stroke-width="1.51"/><path d="M313,196L283,133L267,220Z" fill="rgb(11,13,25)" stroke="rgb(11,13,25)" stroke-width="1.51"/><path d="M403,211L320,133L313,196Z" fill="rgb(11,14,26)" stroke="rgb(11,14,26)" stroke-width="1.51"/><path d="M320,133L283,133L313,196Z" fill="rgb(10,13,24)" stroke="rgb(10,13,24)" stroke-width="1.51"/><path d="M267,220L166,225L247,255Z" fill="rgb(10,13,25)" stroke="rgb(10,13,25)" stroke-width="1.51"/><path d="M313,269L403,211L313,196Z" fill="rgb(12,15,27)" stroke="rgb(12,15,27)" stroke-width="1.51"/><path d="M313,269L425,252L403,211Z" fill="rgb(13,16,29)" stroke="rgb(13,16,29)" stroke-width="1.51"/><path d="M247,255L319,334L313,269Z" fill="rgb(13,16,29)" stroke="rgb(13,16,29)" stroke-width="1.51"/><path d="M247,255L214,295L319,334Z" fill="rgb(13,15,28)" stroke="rgb(13,15,28)" stroke-width="1.51"/><path d="M166,225L214,295L247,255Z" fill="rgb(11,14,25)" stroke="rgb(11,14,25)" stroke-width="1.51"/><path d="M319,334L425,252L313,269Z" fill="rgb(14,17,30)" stroke="rgb(14,17,30)" stroke-width="1.51"/><path d="M173,152L166,225L267,220Z" fill="rgb(9,11,22)" stroke="rgb(9,11,22)" stroke-width="1.51"/><path d="M214,295L242,366L319,334Z" fill="rgb(13,16,30)" stroke="rgb(13,16,30)" stroke-width="1.51"/><path d="M176,369L242,366L214,295Z" fill="rgb(13,16,29)" stroke="rgb(13,16,29)" stroke-width="1.51"/><path d="M320,133L274,57L283,133Z" fill="rgb(9,10,21)" stroke="rgb(9,10,21)" stroke-width="1.51"/><path d="M403,211L400,115L320,133Z" fill="rgb(11,14,26)" stroke="rgb(11,14,26)" stroke-width="1.51"/><path d="M475,201L400,115L403,211Z" fill="rgb(13,15,28)" stroke="rgb(13,15,28)" stroke-width="1.51"/><path d="M283,133L173,152L267,220Z" fill="rgb(9,12,23)" stroke="rgb(9,12,23)" stroke-width="1.51"/><path d="M319,334L386,378L425,252Z" fill="rgb(14,18,33)" stroke="rgb(14,18,33)" stroke-width="1.51"/><path d="M334,434L386,378L319,334Z" fill="rgb(14,19,34)" stroke="rgb(14,19,34)" stroke-width="1.51"/><path d="M400,115L339,67L320,133Z" fill="rgb(10,11,23)" stroke="rgb(10,11,23)" stroke-width="1.51"/><path d="M283,133L178,53L173,152Z" fill="rgb(7,9,19)" stroke="rgb(7,9,19)" stroke-width="1.51"/><path d="M425,252L475,201L403,211Z" fill="rgb(13,17,30)" stroke="rgb(13,17,30)" stroke-width="1.51"/><path d="M489,299L475,201L425,252Z" fill="rgb(14,18,32)" stroke="rgb(14,18,32)" stroke-width="1.51"/><path d="M339,67L274,57L320,133Z" fill="rgb(8,10,21)" stroke="rgb(8,10,21)" stroke-width="1.51"/><path d="M166,225L126,289L214,295Z" fill="rgb(11,13,24)" stroke="rgb(11,13,24)" stroke-width="1.51"/><path d="M113,202L126,289L166,225Z" fill="rgb(9,11,22)" stroke="rgb(9,11,22)" stroke-width="1.51"/><path d="M242,366L283,429L319,334Z" fill="rgb(14,18,32)" stroke="rgb(14,18,32)" stroke-width="1.51"/><path d="M126,289L176,369L214,295Z" fill="rgb(12,15,27)" stroke="rgb(12,15,27)" stroke-width="1.51"/><path d="M173,152L113,202L166,225Z" fill="rgb(9,10,21)" stroke="rgb(9,10,21)" stroke-width="1.51"/><path d="M109,135L113,202L173,152Z" fill="rgb(7,9,18)" stroke="rgb(7,9,18)" stroke-width="1.51"/><path d="M339,67L267,-4L274,57Z" fill="rgb(7,8,18)" stroke="rgb(7,8,18)" stroke-width="1.51"/><path d="M400,115L413,69L339,67Z" fill="rgb(9,12,23)" stroke="rgb(9,12,23)" stroke-width="1.51"/><path d="M486,130L413,69L400,115Z" fill="rgb(11,13,25)" stroke="rgb(11,13,25)" stroke-width="1.51"/><path d="M178,424L283,429L242,366Z" fill="rgb(14,18,32)" stroke="rgb(14,18,32)" stroke-width="1.51"/><path d="M386,378L489,299L425,252Z" fill="rgb(14,19,34)" stroke="rgb(14,19,34)" stroke-width="1.51"/><path d="M386,378L512,359L489,299Z" fill="rgb(15,20,36)" stroke="rgb(15,20,36)" stroke-width="1.51"/><path d="M283,429L334,434L319,334Z" fill="rgb(14,19,34)" stroke="rgb(14,19,34)" stroke-width="1.51"/><path d="M475,201L486,130L400,115Z" fill="rgb(12,15,28)" stroke="rgb(12,15,28)" stroke-width="1.51"/><path d="M538,134L486,130L475,201Z" fill="rgb(13,16,29)" stroke="rgb(13,16,29)" stroke-width="1.51"/><path d="M178,53L109,135L173,152Z" fill="rgb(6,8,17)" stroke="rgb(6,8,17)" stroke-width="1.51"/><path d="M274,57L178,53L283,133Z" fill="rgb(7,9,18)" stroke="rgb(7,9,18)" stroke-width="1.51"/><path d="M176,369L178,424L242,366Z" fill="rgb(13,16,30)" stroke="rgb(13,16,30)" stroke-width="1.51"/><path d="M126,289L110,355L176,369Z" fill="rgb(12,14,26)" stroke="rgb(12,14,26)" stroke-width="1.51"/><path d="M56,366L110,355L126,289Z" fill="rgb(11,14,25)" stroke="rgb(11,14,25)" stroke-width="1.51"/><path d="M34,220L126,289L113,202Z" fill="rgb(8,11,21)" stroke="rgb(8,11,21)" stroke-width="1.51"/><path d="M110,355L178,424L176,369Z" fill="rgb(13,16,29)" stroke="rgb(13,16,29)" stroke-width="1.51"/><path d="M335,508L385,446L334,434Z" fill="rgb(15,19,35)" stroke="rgb(15,19,35)" stroke-width="1.51"/><path d="M334,434L385,446L386,378Z" fill="rgb(15,20,36)" stroke="rgb(15,20,36)" stroke-width="1.51"/><path d="M335,508L334,434L283,429Z" fill="rgb(15,19,34)" stroke="rgb(15,19,34)" stroke-width="1.51"/><path d="M274,57L267,-4L178,53Z" fill="rgb(6,7,15)" stroke="rgb(6,7,15)" stroke-width="1.51"/><path d="M356,-27L267,-4L339,67Z" fill="rgb(7,8,17)" stroke="rgb(7,8,17)" stroke-width="1.51"/><path d="M579,185L538,134L475,201Z" fill="rgb(14,17,31)" stroke="rgb(14,17,31)" stroke-width="1.51"/><path d="M478,447L512,359L386,378Z" fill="rgb(15,21,38)" stroke="rgb(15,21,38)" stroke-width="1.51"/><path d="M486,130L510,29L413,69Z" fill="rgb(11,13,25)" stroke="rgb(11,13,25)" stroke-width="1.51"/><path d="M559,253L475,201L489,299Z" fill="rgb(14,18,33)" stroke="rgb(14,18,33)" stroke-width="1.51"/><path d="M556,349L559,253L489,299Z" fill="rgb(15,20,36)" stroke="rgb(15,20,36)" stroke-width="1.51"/><path d="M413,69L356,-27L339,67Z" fill="rgb(8,10,20)" stroke="rgb(8,10,20)" stroke-width="1.51"/><path d="M437,-39L356,-27L413,69Z" fill="rgb(8,9,19)" stroke="rgb(8,9,19)" stroke-width="1.51"/><path d="M178,53L95,66L109,135Z" fill="rgb(5,6,13)" stroke="rgb(5,6,13)" stroke-width="1.51"/><path d="M23,151L34,220L113,202Z" fill="rgb(7,8,17)" stroke="rgb(7,8,17)" stroke-width="1.51"/><path d="M111,-14L95,66L178,53Z" fill="rgb(4,4,10)" stroke="rgb(4,4,10)" stroke-width="1.51"/><path d="M178,424L255,495L283,429Z" fill="rgb(14,18,32)" stroke="rgb(14,18,32)" stroke-width="1.51"/><path d="M23,151L113,202L109,135Z" fill="rgb(6,8,16)" stroke="rgb(6,8,16)" stroke-width="1.51"/><path d="M385,446L478,447L386,378Z" fill="rgb(15,21,37)" stroke="rgb(15,21,37)" stroke-width="1.51"/><path d="M512,359L556,349L489,299Z" fill="rgb(15,21,37)" stroke="rgb(15,21,37)" stroke-width="1.51"/><path d="M433,516L478,447L385,446Z" fill="rgb(15,21,38)" stroke="rgb(15,21,38)" stroke-width="1.51"/><path d="M255,495L335,508L283,429Z" fill="rgb(14,18,34)" stroke="rgb(14,18,34)" stroke-width="1.51"/><path d="M535,411L556,349L512,359Z" fill="rgb(15,22,40)" stroke="rgb(15,22,40)" stroke-width="1.51"/><path d="M559,253L579,185L475,201Z" fill="rgb(14,18,32)" stroke="rgb(14,18,32)" stroke-width="1.51"/><path d="M617,255L579,185L559,253Z" fill="rgb(14,19,35)" stroke="rgb(14,19,35)" stroke-width="1.51"/><path d="M12,287L56,366L126,289Z" fill="rgb(10,12,23)" stroke="rgb(10,12,23)" stroke-width="1.51"/><path d="M110,355L88,444L178,424Z" fill="rgb(13,16,29)" stroke="rgb(13,16,29)" stroke-width="1.51"/><path d="M178,424L160,506L255,495Z" fill="rgb(13,17,31)" stroke="rgb(13,17,31)" stroke-width="1.51"/><path d="M240,-114L183,-29L267,-4Z" fill="rgb(4,6,12)" stroke="rgb(4,6,12)" stroke-width="1.51"/><path d="M267,-4L183,-29L178,53Z" fill="rgb(4,5,12)" stroke="rgb(4,5,12)" stroke-width="1.51"/><path d="M538,134L510,29L486,130Z" fill="rgb(12,15,27)" stroke="rgb(12,15,27)" stroke-width="1.51"/><path d="M561,46L510,29L538,134Z" fill="rgb(12,14,26)" stroke="rgb(12,14,26)" stroke-width="1.51"/><path d="M34,220L12,287L126,289Z" fill="rgb(9,11,21)" stroke="rgb(9,11,21)" stroke-width="1.51"/><path d="M95,66L23,151L109,135Z" fill="rgb(5,6,13)" stroke="rgb(5,6,13)" stroke-width="1.51"/><path d="M478,447L535,411L512,359Z" fill="rgb(15,22,40)" stroke="rgb(15,22,40)" stroke-width="1.51"/><path d="M-34,221L12,287L34,220Z" fill="rgb(7,9,18)" stroke="rgb(7,9,18)" stroke-width="1.51"/><path d="M55,422L110,355L56,366Z" fill="rgb(12,14,26)" stroke="rgb(12,14,26)" stroke-width="1.51"/><path d="M55,422L88,444L110,355Z" fill="rgb(12,15,28)" stroke="rgb(12,15,28)" stroke-width="1.51"/><path d="M356,-27L313,-108L267,-4Z" fill="rgb(6,7,16)" stroke="rgb(6,7,16)" stroke-width="1.51"/><path d="M510,29L437,-39L413,69Z" fill="rgb(9,11,22)" stroke="rgb(9,11,22)" stroke-width="1.51"/><path d="M88,444L160,506L178,424Z" fill="rgb(13,16,29)" stroke="rgb(13,16,29)" stroke-width="1.51"/><path d="M255,495L113,527L335,508Z" fill="rgb(14,18,32)" stroke="rgb(14,18,32)" stroke-width="1.51"/><path d="M88,444L113,527L160,506Z" fill="rgb(13,16,29)" stroke="rgb(13,16,29)" stroke-width="1.51"/><path d="M-12,408L55,422L56,366Z" fill="rgb(11,14,26)" stroke="rgb(11,14,26)" stroke-width="1.51"/><path d="M478,447L543,509L535,411Z" fill="rgb(15,22,40)" stroke="rgb(15,22,40)" stroke-width="1.51"/><path d="M335,508L433,516L385,446Z" fill="rgb(15,20,36)" stroke="rgb(15,20,36)" stroke-width="1.51"/><path d="M113,527L433,516L335,508Z" fill="rgb(14,18,34)" stroke="rgb(14,18,34)" stroke-width="1.51"/><path d="M95,66L15,57L23,151Z" fill="rgb(4,4,10)" stroke="rgb(4,4,10)" stroke-width="1.51"/><path d="M183,-29L111,-14L178,53Z" fill="rgb(3,4,9)" stroke="rgb(3,4,9)" stroke-width="1.51"/><path d="M617,113L561,46L538,134Z" fill="rgb(13,16,28)" stroke="rgb(13,16,28)" stroke-width="1.51"/><path d="M617,332L617,255L559,253Z" fill="rgb(15,21,37)" stroke="rgb(15,21,37)" stroke-width="1.51"/><path d="M617,332L559,253L556,349Z" fill="rgb(15,21,38)" stroke="rgb(15,21,38)" stroke-width="1.51"/><path d="M510,29L479,-38L437,-39Z" fill="rgb(9,11,21)" stroke="rgb(9,11,21)" stroke-width="1.51"/><path d="M617,113L538,134L579,185Z" fill="rgb(14,17,31)" stroke="rgb(14,17,31)" stroke-width="1.51"/><path d="M562,-11L479,-38L510,29Z" fill="rgb(10,12,23)" stroke="rgb(10,12,23)" stroke-width="1.51"/><path d="M630,446L617,332L556,349Z" fill="rgb(15,23,42)" stroke="rgb(15,23,42)" stroke-width="1.51"/><path d="M630,446L556,349L535,411Z" fill="rgb(15,23,42)" stroke="rgb(15,23,42)" stroke-width="1.51"/><path d="M433,516L491,507L478,447Z" fill="rgb(15,21,39)" stroke="rgb(15,21,39)" stroke-width="1.51"/><path d="M656,224L617,113L579,185Z" fill="rgb(14,18,33)" stroke="rgb(14,18,33)" stroke-width="1.51"/><path d="M23,151L-34,221L34,220Z" fill="rgb(6,7,16)" stroke="rgb(6,7,16)" stroke-width="1.51"/><path d="M-46,329L-12,408L56,366Z" fill="rgb(10,13,24)" stroke="rgb(10,13,24)" stroke-width="1.51"/><path d="M-58,97L-34,221L23,151Z" fill="rgb(5,6,12)" stroke="rgb(5,6,12)" stroke-width="1.51"/><path d="M33,-22L15,57L95,66Z" fill="rgb(2,2,5)" stroke="rgb(2,2,5)" stroke-width="1.51"/><path d="M-34,221L-32,278L12,287Z" fill="rgb(7,9,19)" stroke="rgb(7,9,19)" stroke-width="1.51"/><path d="M420,-119L356,-27L437,-39Z" fill="rgb(8,9,19)" stroke="rgb(8,9,19)" stroke-width="1.51"/><path d="M420,-119L313,-108L356,-27Z" fill="rgb(7,9,18)" stroke="rgb(7,9,18)" stroke-width="1.51"/><path d="M183,-29L165,-85L111,-14Z" fill="rgb(3,4,9)" stroke="rgb(3,4,9)" stroke-width="1.51"/><path d="M111,-14L33,-22L95,66Z" fill="rgb(2,3,6)" stroke="rgb(2,3,6)" stroke-width="1.51"/><path d="M240,-114L165,-85L183,-29Z" fill="rgb(4,5,11)" stroke="rgb(4,5,11)" stroke-width="1.51"/><path d="M160,506L113,527L255,495Z" fill="rgb(13,17,30)" stroke="rgb(13,17,30)" stroke-width="1.51"/><path d="M12,497L113,527L88,444Z" fill="rgb(12,15,27)" stroke="rgb(12,15,27)" stroke-width="1.51"/><path d="M12,497L88,444L55,422Z" fill="rgb(12,14,27)" stroke="rgb(12,14,27)" stroke-width="1.51"/><path d="M313,-108L240,-114L267,-4Z" fill="rgb(5,6,14)" stroke="rgb(5,6,14)" stroke-width="1.51"/><path d="M617,255L656,224L579,185Z" fill="rgb(15,19,35)" stroke="rgb(15,19,35)" stroke-width="1.51"/><path d="M714,283L656,224L617,255Z" fill="rgb(15,20,36)" stroke="rgb(15,20,36)" stroke-width="1.51"/><path d="M639,36L562,-11L561,46Z" fill="rgb(11,14,26)" stroke="rgb(11,14,26)" stroke-width="1.51"/><path d="M561,46L562,-11L510,29Z" fill="rgb(11,13,25)" stroke="rgb(11,13,25)" stroke-width="1.51"/><path d="M479,-38L486,-76L437,-39Z" fill="rgb(9,11,21)" stroke="rgb(9,11,21)" stroke-width="1.51"/><path d="M562,-11L486,-76L479,-38Z" fill="rgb(9,11,22)" stroke="rgb(9,11,22)" stroke-width="1.51"/><path d="M-46,329L56,366L12,287Z" fill="rgb(9,11,22)" stroke="rgb(9,11,22)" stroke-width="1.51"/><path d="M-32,278L-46,329L12,287Z" fill="rgb(8,11,21)" stroke="rgb(8,11,21)" stroke-width="1.51"/><path d="M-106,275L-46,329L-32,278Z" fill="rgb(8,10,20)" stroke="rgb(8,10,20)" stroke-width="1.51"/><path d="M433,516L543,509L491,507Z" fill="rgb(15,22,39)" stroke="rgb(15,22,39)" stroke-width="1.51"/><path d="M491,507L543,509L478,447Z" fill="rgb(15,22,40)" stroke="rgb(15,22,40)" stroke-width="1.51"/><path d="M486,-76L420,-119L437,-39Z" fill="rgb(8,11,21)" stroke="rgb(8,11,21)" stroke-width="1.51"/><path d="M313,-108L420,-119L240,-114Z" fill="rgb(6,7,17)" stroke="rgb(6,7,17)" stroke-width="1.51"/><path d="M87,-78L33,-22L111,-14Z" fill="rgb(2,2,4)" stroke="rgb(2,2,4)" stroke-width="1.51"/><path d="M15,57L-58,97L23,151Z" fill="rgb(3,4,9)" stroke="rgb(3,4,9)" stroke-width="1.51"/><path d="M165,-85L87,-78L111,-14Z" fill="rgb(2,3,7)" stroke="rgb(2,3,7)" stroke-width="1.51"/><path d="M240,-114L87,-78L165,-85Z" fill="rgb(3,4,9)" stroke="rgb(3,4,9)" stroke-width="1.51"/><path d="M-34,221L-106,275L-32,278Z" fill="rgb(7,9,19)" stroke="rgb(7,9,19)" stroke-width="1.51"/><path d="M-46,55L-58,97L15,57Z" fill="rgb(2,3,6)" stroke="rgb(2,3,6)" stroke-width="1.51"/><path d="M562,-11L582,-123L486,-76Z" fill="rgb(10,12,24)" stroke="rgb(10,12,24)" stroke-width="1.51"/><path d="M617,113L639,36L561,46Z" fill="rgb(13,16,28)" stroke="rgb(13,16,28)" stroke-width="1.51"/><path d="M704,144L639,36L617,113Z" fill="rgb(13,16,29)" stroke="rgb(13,16,29)" stroke-width="1.51"/><path d="M616,492L630,446L535,411Z" fill="rgb(15,23,43)" stroke="rgb(15,23,43)" stroke-width="1.51"/><path d="M617,332L714,283L617,255Z" fill="rgb(15,21,38)" stroke="rgb(15,21,38)" stroke-width="1.51"/><path d="M-35,-26L15,57L33,-22Z" fill="rgb(0,0,0)" stroke="rgb(0,0,0)" stroke-width="1.51"/><path d="M-35,-26L-46,55L15,57Z" fill="rgb(1,1,3)" stroke="rgb(1,1,3)" stroke-width="1.51"/><path d="M-64,517L12,497L-12,408Z" fill="rgb(11,14,25)" stroke="rgb(11,14,25)" stroke-width="1.51"/><path d="M-12,408L12,497L55,422Z" fill="rgb(11,14,26)" stroke="rgb(11,14,26)" stroke-width="1.51"/><path d="M543,509L616,492L535,411Z" fill="rgb(15,23,42)" stroke="rgb(15,23,42)" stroke-width="1.51"/><path d="M87,-78L34,-73L33,-22Z" fill="rgb(1,1,3)" stroke="rgb(1,1,3)" stroke-width="1.51"/><path d="M-59,-113L34,-73L87,-78Z" fill="rgb(0,1,1)" stroke="rgb(0,1,1)" stroke-width="1.51"/><path d="M656,224L704,144L617,113Z" fill="rgb(14,18,32)" stroke="rgb(14,18,32)" stroke-width="1.51"/><path d="M719,180L704,144L656,224Z" fill="rgb(14,18,33)" stroke="rgb(14,18,33)" stroke-width="1.51"/><path d="M-46,329L-92,364L-12,408Z" fill="rgb(10,13,24)" stroke="rgb(10,13,24)" stroke-width="1.51"/><path d="M-118,196L-106,275L-34,221Z" fill="rgb(6,8,17)" stroke="rgb(6,8,17)" stroke-width="1.51"/><path d="M720,327L617,332L697,401Z" fill="rgb(15,22,41)" stroke="rgb(15,22,41)" stroke-width="1.51"/><path d="M720,327L714,283L617,332Z" fill="rgb(15,21,39)" stroke="rgb(15,21,39)" stroke-width="1.51"/><path d="M-106,275L-92,364L-46,329Z" fill="rgb(9,11,22)" stroke="rgb(9,11,22)" stroke-width="1.51"/><path d="M714,283L719,180L656,224Z" fill="rgb(14,19,35)" stroke="rgb(14,19,35)" stroke-width="1.51"/><path d="M-58,97L-118,196L-34,221Z" fill="rgb(5,6,14)" stroke="rgb(5,6,14)" stroke-width="1.51"/><path d="M-131,114L-118,196L-58,97Z" fill="rgb(4,5,11)" stroke="rgb(4,5,11)" stroke-width="1.51"/><path d="M639,36L634,-30L562,-11Z" fill="rgb(11,14,25)" stroke="rgb(11,14,25)" stroke-width="1.51"/><path d="M486,-76L582,-123L420,-119Z" fill="rgb(9,11,22)" stroke="rgb(9,11,22)" stroke-width="1.51"/><path d="M686,-19L634,-30L639,36Z" fill="rgb(11,14,25)" stroke="rgb(11,14,25)" stroke-width="1.51"/><path d="M686,-19L639,36L722,41Z" fill="rgb(11,14,26)" stroke="rgb(11,14,26)" stroke-width="1.51"/><path d="M34,-73L-35,-26L33,-22Z" fill="rgb(0,0,1)" stroke="rgb(0,0,1)" stroke-width="1.51"/><path d="M-136,43L-131,114L-58,97Z" fill="rgb(2,3,7)" stroke="rgb(2,3,7)" stroke-width="1.51"/><path d="M697,401L617,332L630,446Z" fill="rgb(15,23,42)" stroke="rgb(15,23,42)" stroke-width="1.51"/><path d="M714,283L720,327L719,180Z" fill="rgb(14,20,37)" stroke="rgb(14,20,37)" stroke-width="1.51"/><path d="M701,513L697,401L630,446Z" fill="rgb(15,23,43)" stroke="rgb(15,23,43)" stroke-width="1.51"/><path d="M-106,275L-107,409L-92,364Z" fill="rgb(10,12,23)" stroke="rgb(10,12,23)" stroke-width="1.51"/><path d="M-92,364L-107,409L-12,408Z" fill="rgb(11,14,25)" stroke="rgb(11,14,25)" stroke-width="1.51"/><path d="M-132,505L-107,409L-106,275Z" fill="rgb(11,14,25)" stroke="rgb(11,14,25)" stroke-width="1.51"/><path d="M-118,196L-132,505L-106,275Z" fill="rgb(9,11,22)" stroke="rgb(9,11,22)" stroke-width="1.51"/><path d="M-136,43L-58,97L-46,55Z" fill="rgb(2,3,6)" stroke="rgb(2,3,6)" stroke-width="1.51"/><path d="M634,-30L582,-123L562,-11Z" fill="rgb(11,14,25)" stroke="rgb(11,14,25)" stroke-width="1.51"/><path d="M634,-30L642,-127L582,-123Z" fill="rgb(11,14,25)" stroke="rgb(11,14,25)" stroke-width="1.51"/><path d="M722,41L639,36L704,144Z" fill="rgb(13,16,28)" stroke="rgb(13,16,28)" stroke-width="1.51"/><path d="M720,327L722,41L719,180Z" fill="rgb(14,18,33)" stroke="rgb(14,18,33)" stroke-width="1.51"/><path d="M719,180L722,41L704,144Z" fill="rgb(14,17,31)" stroke="rgb(14,17,31)" stroke-width="1.51"/><path d="M12,497L-64,517L113,527Z" fill="rgb(11,14,26)" stroke="rgb(11,14,26)" stroke-width="1.51"/><path d="M-107,409L-64,517L-12,408Z" fill="rgb(11,14,25)" stroke="rgb(11,14,25)" stroke-width="1.51"/><path d="M-92,-45L-136,43L-46,55Z" fill="rgb(1,1,2)" stroke="rgb(1,1,2)" stroke-width="1.51"/><path d="M-35,-26L-92,-45L-46,55Z" fill="rgb(0,0,0)" stroke="rgb(0,0,0)" stroke-width="1.51"/><path d="M-59,-113L-92,-45L-35,-26Z" fill="rgb(0,0,0)" stroke="rgb(0,0,0)" stroke-width="1.51"/><path d="M113,527L701,513L433,516Z" fill="rgb(15,21,37)" stroke="rgb(15,21,37)" stroke-width="1.51"/><path d="M433,516L701,513L543,509Z" fill="rgb(15,23,41)" stroke="rgb(15,23,41)" stroke-width="1.51"/><path d="M543,509L701,513L616,492Z" fill="rgb(15,23,43)" stroke="rgb(15,23,43)" stroke-width="1.51"/><path d="M616,492L701,513L630,446Z" fill="rgb(15,23,43)" stroke="rgb(15,23,43)" stroke-width="1.51"/><path d="M697,401L701,513L720,327Z" fill="rgb(15,23,43)" stroke="rgb(15,23,43)" stroke-width="1.51"/><path d="M687,-112L634,-30L686,-19Z" fill="rgb(11,14,25)" stroke="rgb(11,14,25)" stroke-width="1.51"/><path d="M687,-112L642,-127L634,-30Z" fill="rgb(11,14,25)" stroke="rgb(11,14,25)" stroke-width="1.51"/><path d="M582,-123L642,-127L420,-119Z" fill="rgb(10,13,24)" stroke="rgb(10,13,24)" stroke-width="1.51"/><path d="M-101,-117L-59,-113L240,-114Z" fill="rgb(1,1,2)" stroke="rgb(1,1,2)" stroke-width="1.51"/><path d="M34,-73L-59,-113L-35,-26Z" fill="rgb(0,0,0)" stroke="rgb(0,0,0)" stroke-width="1.51"/><path d="M-92,-45L-101,-117L-136,43Z" fill="rgb(0,0,0)" stroke="rgb(0,0,0)" stroke-width="1.51"/><path d="M240,-114L-59,-113L87,-78Z" fill="rgb(2,2,5)" stroke="rgb(2,2,5)" stroke-width="1.51"/><path d="M-101,-117L240,-114L420,-119Z" fill="rgb(4,5,10)" stroke="rgb(4,5,10)" stroke-width="1.51"/><path d="M-136,43L-132,505L-131,114Z" fill="rgb(6,8,17)" stroke="rgb(6,8,17)" stroke-width="1.51"/><path d="M-131,114L-132,505L-118,196Z" fill="rgb(8,9,19)" stroke="rgb(8,9,19)" stroke-width="1.51"/><path d="M-107,409L-132,505L-64,517Z" fill="rgb(11,14,25)" stroke="rgb(11,14,25)" stroke-width="1.51"/><path d="M722,41L687,-112L686,-19Z" fill="rgb(11,14,25)" stroke="rgb(11,14,25)" stroke-width="1.51"/><path d="M-59,-113L-101,-117L-92,-45Z" fill="rgb(0,0,0)" stroke="rgb(0,0,0)" stroke-width="1.51"/><path d="M642,-127L-101,-117L420,-119Z" fill="rgb(6,7,16)" stroke="rgb(6,7,16)" stroke-width="1.51"/></svg>