<?xml version="1.0"?>
<svg xmlns="http://www.w3.org/2000/svg" xmlns:xlink="http://www.w3.org/1999/xlink" version="1.1" id="Capa_1" x="0px" y="0px" width="512px" height="512px" viewBox="0 0 124 124" style="enable-background:new 0 0 124 124;" xml:space="preserve" class=""><g><g>
	<path d="M112,6H12C5.4,6,0,11.4,0,18s5.4,12,12,12h100c6.6,0,12-5.4,12-12S118.6,6,112,6z" data-original="#000000" class="active-path" data-old_color="#000000" fill="#E84545"/>
	<path d="M112,50H12C5.4,50,0,55.4,0,62c0,6.6,5.4,12,12,12h100c6.6,0,12-5.4,12-12C124,55.4,118.6,50,112,50z" data-original="#000000" class="active-path" data-old_color="#000000" fill="#E84545"/>
	<path d="M112,94H12c-6.6,0-12,5.4-12,12s5.4,12,12,12h100c6.6,0,12-5.4,12-12S118.6,94,112,94z" data-original="#000000" class="active-path" data-old_color="#000000" fill="#E84545"/>
</g></g> </svg>
