<svg width="119" height="38" viewBox="0 0 119 38" fill="none" xmlns="http://www.w3.org/2000/svg">
<path d="M14.208 7.44L9.192 23.4C9.128 23.56 9.024 23.704 8.88 23.832C8.736 23.944 8.568 24 8.376 24H6.24C6.032 24 5.856 23.944 5.712 23.832C5.568 23.704 5.472 23.56 5.424 23.4L0.408 7.44H2.592L6.504 20.568C6.584 20.872 6.664 21.176 6.744 21.48C6.84 21.768 6.92 22.064 6.984 22.368H7.632C7.712 22.064 7.792 21.76 7.872 21.456C7.952 21.152 8.04 20.848 8.136 20.544L12.024 7.44H14.208ZM21.1723 12.024C22.0363 12.024 22.7643 12.144 23.3563 12.384C23.9643 12.608 24.4203 12.992 24.7243 13.536C25.0283 14.08 25.1803 14.824 25.1803 15.768V24H23.5723L23.2603 21.456L23.1163 21.192V15.768C23.1163 15.048 22.9483 14.536 22.6123 14.232C22.2923 13.912 21.6683 13.752 20.7403 13.752C20.1323 13.752 19.3643 13.784 18.4363 13.848C17.5243 13.912 16.6203 13.984 15.7243 14.064L15.5323 12.552C16.0763 12.456 16.6683 12.368 17.3083 12.288C17.9643 12.208 18.6283 12.144 19.3003 12.096C19.9723 12.048 20.5963 12.024 21.1723 12.024ZM24.2203 16.8L24.1963 18.336L18.6043 18.36C18.0443 18.376 17.6523 18.528 17.4283 18.816C17.2043 19.088 17.0923 19.472 17.0923 19.968V20.712C17.0923 21.32 17.2363 21.768 17.5243 22.056C17.8123 22.328 18.2763 22.464 18.9163 22.464C19.3643 22.464 19.8683 22.384 20.4283 22.224C21.0043 22.048 21.5803 21.784 22.1563 21.432C22.7323 21.08 23.2603 20.632 23.7403 20.088V21.6C23.5643 21.824 23.3083 22.088 22.9723 22.392C22.6523 22.68 22.2603 22.968 21.7963 23.256C21.3483 23.528 20.8443 23.76 20.2843 23.952C19.7403 24.128 19.1483 24.216 18.5083 24.216C17.8203 24.216 17.2123 24.096 16.6843 23.856C16.1563 23.6 15.7403 23.232 15.4363 22.752C15.1483 22.256 15.0043 21.656 15.0043 20.952V19.68C15.0043 18.768 15.2843 18.064 15.8443 17.568C16.4203 17.056 17.2203 16.8 18.2443 16.8H24.2203ZM30.7232 7.2L30.6992 20.784C30.6992 21.296 30.8352 21.688 31.1072 21.96C31.3952 22.216 31.7952 22.344 32.3072 22.344H33.4352L33.6752 23.904C33.5312 23.968 33.3232 24.024 33.0512 24.072C32.7952 24.12 32.5232 24.152 32.2352 24.168C31.9632 24.2 31.7312 24.216 31.5392 24.216C30.6752 24.216 29.9792 23.96 29.4512 23.448C28.9392 22.936 28.6832 22.2 28.6832 21.24V7.2H30.7232ZM37.7312 12.312V24H35.7152V12.312H37.7312ZM37.2032 7.344C37.6192 7.344 37.8272 7.552 37.8272 7.968V9.336C37.8272 9.752 37.6192 9.96 37.2032 9.96H36.2432C35.8272 9.96 35.6192 9.752 35.6192 9.336V7.968C35.6192 7.552 35.8272 7.344 36.2432 7.344H37.2032ZM48.5113 12.024C50.6233 12.024 51.6793 13.096 51.6793 15.24V24H49.6393V15.816C49.6393 15.032 49.5113 14.496 49.2553 14.208C48.9993 13.904 48.5673 13.752 47.9593 13.752C47.2393 13.752 46.5193 13.928 45.7993 14.28C45.0793 14.632 44.2233 15.112 43.2313 15.72L43.1353 14.256C44.0473 13.552 44.9513 13.008 45.8473 12.624C46.7433 12.224 47.6313 12.024 48.5113 12.024ZM43.1353 12.312L43.3033 14.544L43.4473 14.904V24H41.4073V12.312H43.1353ZM60.1316 12.024C61.4756 12.024 62.5476 12.224 63.3476 12.624C64.1636 13.024 64.7476 13.68 65.0996 14.592C65.4516 15.488 65.6276 16.68 65.6276 18.168C65.6276 19.656 65.4516 20.856 65.0996 21.768C64.7476 22.664 64.1636 23.312 63.3476 23.712C62.5476 24.112 61.4756 24.312 60.1316 24.312C58.8036 24.312 57.7316 24.112 56.9156 23.712C56.1156 23.312 55.5316 22.664 55.1636 21.768C54.8116 20.856 54.6356 19.656 54.6356 18.168C54.6356 16.68 54.8116 15.488 55.1636 14.592C55.5316 13.68 56.1156 13.024 56.9156 12.624C57.7316 12.224 58.8036 12.024 60.1316 12.024ZM60.1316 13.752C59.2836 13.752 58.6116 13.888 58.1156 14.16C57.6356 14.416 57.2916 14.864 57.0836 15.504C56.8756 16.144 56.7716 17.032 56.7716 18.168C56.7716 19.304 56.8756 20.192 57.0836 20.832C57.2916 21.472 57.6356 21.928 58.1156 22.2C58.6116 22.456 59.2836 22.584 60.1316 22.584C60.9796 22.584 61.6516 22.456 62.1476 22.2C62.6436 21.928 62.9956 21.472 63.2036 20.832C63.4116 20.192 63.5156 19.304 63.5156 18.168C63.5156 17.032 63.4116 16.144 63.2036 15.504C62.9956 14.864 62.6436 14.416 62.1476 14.16C61.6516 13.888 60.9796 13.752 60.1316 13.752ZM70.2473 12.312L70.5113 14.544L70.7033 14.904V24H68.6633V12.312H70.2473ZM75.9833 12.024L75.7433 13.944H75.0713C74.3833 13.944 73.6953 14.088 73.0073 14.376C72.3193 14.648 71.4793 15.04 70.4873 15.552L70.3193 14.28C71.1833 13.576 72.0473 13.024 72.9113 12.624C73.7913 12.224 74.6393 12.024 75.4553 12.024H75.9833Z" fill="#1A1A1A"/>
<path d="M19.4 28.428V34.392C19.4 34.672 19.46 34.872 19.58 34.992C19.7 35.112 19.904 35.172 20.192 35.172H21.08L21.2 35.952C21.072 35.984 20.924 36.012 20.756 36.036C20.588 36.06 20.424 36.076 20.264 36.084C20.104 36.1 19.976 36.108 19.88 36.108C19.392 36.108 19.02 35.972 18.764 35.7C18.508 35.428 18.38 35.036 18.38 34.524V28.428H19.4ZM21.26 30.156V30.96H17.324V30.216L18.476 30.156H21.26ZM25.8933 30.012C26.9493 30.012 27.4773 30.548 27.4773 31.62V36H26.4453V31.908C26.4453 31.516 26.3813 31.248 26.2533 31.104C26.1333 30.952 25.9213 30.876 25.6173 30.876C25.2573 30.876 24.8973 30.96 24.5373 31.128C24.1773 31.296 23.7493 31.54 23.2533 31.86L23.2053 31.128C23.6613 30.784 24.1133 30.512 24.5613 30.312C25.0093 30.112 25.4533 30.012 25.8933 30.012ZM23.3613 27.6L23.3733 29.916C23.3733 30.18 23.3613 30.428 23.3373 30.66C23.3213 30.892 23.2933 31.096 23.2533 31.272L23.3613 31.452V36H22.3413V27.6H23.3613ZM31.549 30.012C32.429 30.012 33.065 30.172 33.457 30.492C33.857 30.812 34.057 31.288 34.057 31.92C34.065 32.44 33.957 32.848 33.733 33.144C33.509 33.432 33.153 33.576 32.665 33.576H29.257V32.784H32.401C32.665 32.784 32.837 32.696 32.917 32.52C32.997 32.336 33.037 32.136 33.037 31.92C33.029 31.544 32.917 31.276 32.701 31.116C32.485 30.956 32.117 30.876 31.597 30.876C31.173 30.876 30.837 30.94 30.589 31.068C30.349 31.188 30.177 31.404 30.073 31.716C29.977 32.02 29.929 32.448 29.929 33C29.929 33.624 29.989 34.1 30.109 34.428C30.237 34.756 30.437 34.98 30.709 35.1C30.981 35.22 31.341 35.28 31.789 35.28C32.101 35.28 32.441 35.268 32.809 35.244C33.185 35.212 33.521 35.176 33.817 35.136L33.925 35.82C33.741 35.892 33.513 35.952 33.241 36C32.977 36.048 32.701 36.084 32.413 36.108C32.133 36.132 31.881 36.144 31.657 36.144C30.985 36.144 30.445 36.044 30.037 35.844C29.629 35.636 29.329 35.308 29.137 34.86C28.953 34.404 28.861 33.804 28.861 33.06C28.861 32.292 28.953 31.688 29.137 31.248C29.329 30.8 29.621 30.484 30.013 30.3C30.413 30.108 30.925 30.012 31.549 30.012ZM42.7122 30.156L40.8762 32.304C40.8202 32.376 40.7522 32.452 40.6722 32.532C40.5922 32.604 40.5242 32.66 40.4682 32.7V32.724C40.5242 32.764 40.5922 32.832 40.6722 32.928C40.7522 33.016 40.8202 33.104 40.8762 33.192L42.9042 36H41.7162L39.4002 32.652L41.5242 30.156H42.7122ZM38.9562 27.6L38.9682 31.332C38.9682 31.58 38.9562 31.812 38.9322 32.028C38.9162 32.236 38.8882 32.456 38.8482 32.688C38.8882 32.912 38.9162 33.136 38.9322 33.36C38.9482 33.584 38.9562 33.8 38.9562 34.008V36H37.9362V27.6H38.9562ZM39.9522 32.328V33.072H38.5962V32.328H39.9522ZM46.6366 30.012C47.0686 30.012 47.4326 30.072 47.7286 30.192C48.0326 30.304 48.2606 30.496 48.4126 30.768C48.5646 31.04 48.6406 31.412 48.6406 31.884V36H47.8366L47.6806 34.728L47.6086 34.596V31.884C47.6086 31.524 47.5246 31.268 47.3566 31.116C47.1966 30.956 46.8846 30.876 46.4206 30.876C46.1166 30.876 45.7326 30.892 45.2686 30.924C44.8126 30.956 44.3606 30.992 43.9126 31.032L43.8166 30.276C44.0886 30.228 44.3846 30.184 44.7046 30.144C45.0326 30.104 45.3646 30.072 45.7006 30.048C46.0366 30.024 46.3486 30.012 46.6366 30.012ZM48.1606 32.4L48.1486 33.168L45.3526 33.18C45.0726 33.188 44.8766 33.264 44.7646 33.408C44.6526 33.544 44.5966 33.736 44.5966 33.984V34.356C44.5966 34.66 44.6686 34.884 44.8126 35.028C44.9566 35.164 45.1886 35.232 45.5086 35.232C45.7326 35.232 45.9846 35.192 46.2646 35.112C46.5526 35.024 46.8406 34.892 47.1286 34.716C47.4166 34.54 47.6806 34.316 47.9206 34.044V34.8C47.8326 34.912 47.7046 35.044 47.5366 35.196C47.3766 35.34 47.1806 35.484 46.9486 35.628C46.7246 35.764 46.4726 35.88 46.1926 35.976C45.9206 36.064 45.6246 36.108 45.3046 36.108C44.9606 36.108 44.6566 36.048 44.3926 35.928C44.1286 35.8 43.9206 35.616 43.7686 35.376C43.6246 35.128 43.5526 34.828 43.5526 34.476V33.84C43.5526 33.384 43.6926 33.032 43.9726 32.784C44.2606 32.528 44.6606 32.4 45.1726 32.4H48.1606ZM53.8496 30.012C54.9056 30.012 55.4336 30.548 55.4336 31.62V36H54.4136V31.908C54.4136 31.516 54.3496 31.248 54.2216 31.104C54.0936 30.952 53.8776 30.876 53.5736 30.876C53.2136 30.876 52.8536 30.964 52.4936 31.14C52.1336 31.316 51.7056 31.556 51.2096 31.86L51.1616 31.128C51.6176 30.776 52.0696 30.504 52.5176 30.312C52.9656 30.112 53.4096 30.012 53.8496 30.012ZM51.1616 30.156L51.2456 31.272L51.3176 31.452V36H50.2976V30.156H51.1616ZM60.2492 30.012C60.9692 30.012 61.5012 30.248 61.8452 30.72C62.1892 31.184 62.3612 31.964 62.3612 33.06C62.3612 33.564 62.3172 34.008 62.2292 34.392C62.1492 34.776 62.0092 35.1 61.8092 35.364C61.6172 35.62 61.3532 35.816 61.0172 35.952C60.6892 36.08 60.2732 36.144 59.7692 36.144C59.5692 36.144 59.3532 36.136 59.1212 36.12C58.8892 36.104 58.6532 36.076 58.4132 36.036C58.1732 36.004 57.9372 35.964 57.7052 35.916C57.4812 35.86 57.2732 35.796 57.0812 35.724L57.8972 35.028C58.1132 35.092 58.3252 35.144 58.5332 35.184C58.7492 35.224 58.9572 35.252 59.1572 35.268C59.3652 35.276 59.5612 35.28 59.7452 35.28C60.1212 35.272 60.4212 35.2 60.6452 35.064C60.8772 34.928 61.0452 34.7 61.1492 34.38C61.2532 34.052 61.3052 33.612 61.3052 33.06C61.3052 32.524 61.2652 32.1 61.1852 31.788C61.1052 31.468 60.9612 31.24 60.7532 31.104C60.5532 30.968 60.2652 30.9 59.8892 30.9C59.5692 30.9 59.2652 30.988 58.9772 31.164C58.6892 31.332 58.3572 31.564 57.9812 31.86L57.9092 31.176C58.1492 30.92 58.3932 30.708 58.6412 30.54C58.8972 30.364 59.1612 30.232 59.4332 30.144C59.7052 30.056 59.9772 30.012 60.2492 30.012ZM58.1012 27.6V29.784C58.1012 30.032 58.0932 30.26 58.0772 30.468C58.0692 30.676 58.0412 30.888 57.9932 31.104L58.0892 31.272L58.1012 35.772L57.0812 35.724V27.6H58.1012ZM66.544 30.012C66.976 30.012 67.34 30.072 67.636 30.192C67.94 30.304 68.168 30.496 68.32 30.768C68.472 31.04 68.548 31.412 68.548 31.884V36H67.744L67.588 34.728L67.516 34.596V31.884C67.516 31.524 67.432 31.268 67.264 31.116C67.104 30.956 66.792 30.876 66.328 30.876C66.024 30.876 65.64 30.892 65.176 30.924C64.72 30.956 64.268 30.992 63.82 31.032L63.724 30.276C63.996 30.228 64.292 30.184 64.612 30.144C64.94 30.104 65.272 30.072 65.608 30.048C65.944 30.024 66.256 30.012 66.544 30.012ZM68.068 32.4L68.056 33.168L65.26 33.18C64.98 33.188 64.784 33.264 64.672 33.408C64.56 33.544 64.504 33.736 64.504 33.984V34.356C64.504 34.66 64.576 34.884 64.72 35.028C64.864 35.164 65.096 35.232 65.416 35.232C65.64 35.232 65.892 35.192 66.172 35.112C66.46 35.024 66.748 34.892 67.036 34.716C67.324 34.54 67.588 34.316 67.828 34.044V34.8C67.74 34.912 67.612 35.044 67.444 35.196C67.284 35.34 67.088 35.484 66.856 35.628C66.632 35.764 66.38 35.88 66.1 35.976C65.828 36.064 65.532 36.108 65.212 36.108C64.868 36.108 64.564 36.048 64.3 35.928C64.036 35.8 63.828 35.616 63.676 35.376C63.532 35.128 63.46 34.828 63.46 34.476V33.84C63.46 33.384 63.6 33.032 63.88 32.784C64.168 32.528 64.568 32.4 65.08 32.4H68.068ZM73.7569 30.012C74.8129 30.012 75.3409 30.548 75.3409 31.62V36H74.3209V31.908C74.3209 31.516 74.2569 31.248 74.1289 31.104C74.0009 30.952 73.7849 30.876 73.4809 30.876C73.1209 30.876 72.7609 30.964 72.4009 31.14C72.0409 31.316 71.6129 31.556 71.1169 31.86L71.0689 31.128C71.5249 30.776 71.9769 30.504 72.4249 30.312C72.8729 30.112 73.3169 30.012 73.7569 30.012ZM71.0689 30.156L71.1529 31.272L71.2249 31.452V36H70.2049V30.156H71.0689Z" fill="#1A1A1A"/>
<path d="M97.6818 26.2273H97.1818V26.7273V35.1818C97.1818 35.7966 96.9376 36.3863 96.5028 36.821C96.0681 37.2558 95.4785 37.5 94.8636 37.5H87.8182C87.2034 37.5 86.6137 37.2558 86.179 36.821C85.7442 36.3863 85.5 35.7966 85.5 35.1818V8.40909C85.5 8.16799 85.5958 7.93675 85.7663 7.76627C85.9368 7.59578 86.168 7.5 86.4091 7.5H117.409C117.65 7.5 117.881 7.59578 118.052 7.76627C118.222 7.93675 118.318 8.16798 118.318 8.40909V29.5455C118.318 30.1603 118.074 30.7499 117.639 31.1847C117.204 31.6194 116.615 31.8636 116 31.8636H108.955C108.34 31.8636 107.75 31.6194 107.315 31.1847C106.881 30.7499 106.636 30.1603 106.636 29.5455V26.7273V26.2273H106.136H97.6818ZM94.8636 35.6818H95.3636V35.1818V21.0909V20.5909H94.8636H87.8182H87.3182V21.0909V35.1818V35.6818H87.8182H94.8636ZM94.8636 18.7727H95.3636V18.2727V9.81818V9.31818H94.8636H87.8182H87.3182V9.81818V18.2727V18.7727H87.8182H94.8636ZM106.136 24.4091H106.636V23.9091V9.81818V9.31818H106.136H97.6818H97.1818V9.81818V23.9091V24.4091H97.6818H106.136ZM116 30.0455H116.5V29.5455V21.0909V20.5909H116H108.955H108.455V21.0909V29.5455V30.0455H108.955H116ZM116 18.7727H116.5V18.2727V9.81818V9.31818H116H108.955H108.455V9.81818V18.2727V18.7727H108.955H116Z" fill="#0055FF" stroke="#F0F3F8"/>
</svg>
