<svg xmlns="http://www.w3.org/2000/svg" xmlns:xlink="http://www.w3.org/1999/xlink" width="500" zoomAndPan="magnify" viewBox="0 0 375 374.999991" height="500" preserveAspectRatio="xMidYMid meet" version="1.0"><path fill="#000000" d="M 187.5 3.515625 C 83.90625 3.515625 0 87.421875 0 191.015625 C 0 273.984375 53.671875 344.0625 128.203125 368.90625 C 137.578125 370.546875 141.09375 364.921875 141.09375 360 C 141.09375 355.546875 140.859375 340.78125 140.859375 325.078125 C 93.75 333.75 81.5625 313.59375 77.8125 303.046875 C 75.703125 297.65625 66.5625 281.015625 58.59375 276.5625 C 52.03125 273.046875 42.65625 264.375 58.359375 264.140625 C 73.125 263.90625 83.671875 277.734375 87.1875 283.359375 C 104.0625 311.71875 131.015625 303.75 141.796875 298.828125 C 143.4375 286.640625 148.359375 278.4375 153.75 273.75 C 112.03125 269.0625 68.4375 252.890625 68.4375 181.171875 C 68.4375 160.78125 75.703125 143.90625 87.65625 130.78125 C 85.78125 126.09375 79.21875 106.875 89.53125 81.09375 C 89.53125 81.09375 105.234375 76.171875 141.09375 100.3125 C 156.09375 96.09375 172.03125 93.984375 187.96875 93.984375 C 203.90625 93.984375 219.84375 96.09375 234.84375 100.3125 C 270.703125 75.9375 286.40625 81.09375 286.40625 81.09375 C 296.71875 106.875 290.15625 126.09375 288.28125 130.78125 C 300.234375 143.90625 307.5 160.546875 307.5 181.171875 C 307.5 253.125 263.671875 269.0625 221.953125 273.75 C 228.75 279.609375 234.609375 290.859375 234.609375 308.4375 C 234.609375 333.515625 234.375 353.671875 234.375 360 C 234.375 364.921875 237.890625 370.78125 247.265625 368.90625 C 249.574219 368.125 251.867188 367.300781 254.144531 366.433594 C 256.417969 365.566406 258.675781 364.652344 260.917969 363.695312 C 263.160156 362.738281 265.378906 361.738281 267.582031 360.699219 C 269.785156 359.65625 271.964844 358.570312 274.125 357.441406 C 276.285156 356.3125 278.421875 355.144531 280.535156 353.933594 C 282.648438 352.722656 284.738281 351.472656 286.804688 350.179688 C 288.871094 348.886719 290.910156 347.554688 292.921875 346.183594 C 294.9375 344.8125 296.921875 343.402344 298.882812 341.953125 C 300.839844 340.503906 302.769531 339.019531 304.671875 337.496094 C 306.570312 335.972656 308.441406 334.410156 310.28125 332.816406 C 312.121094 331.21875 313.929688 329.585938 315.707031 327.917969 C 317.484375 326.253906 319.226562 324.550781 320.9375 322.816406 C 322.648438 321.082031 324.324219 319.316406 325.964844 317.515625 C 327.609375 315.714844 329.214844 313.886719 330.785156 312.023438 C 332.355469 310.160156 333.886719 308.269531 335.382812 306.347656 C 336.882812 304.425781 338.339844 302.476562 339.761719 300.496094 C 341.179688 298.515625 342.5625 296.511719 343.90625 294.480469 C 345.25 292.445312 346.550781 290.390625 347.8125 288.304688 C 349.074219 286.222656 350.296875 284.117188 351.476562 281.984375 C 352.660156 279.855469 353.796875 277.703125 354.894531 275.527344 C 355.992188 273.351562 357.046875 271.15625 358.054688 268.941406 C 359.066406 266.726562 360.035156 264.492188 360.960938 262.238281 C 361.882812 259.984375 362.765625 257.714844 363.601562 255.425781 C 364.4375 253.140625 365.226562 250.835938 365.972656 248.519531 C 366.71875 246.199219 367.421875 243.867188 368.074219 241.523438 C 368.730469 239.175781 369.339844 236.820312 369.90625 234.449219 C 370.46875 232.078125 370.984375 229.699219 371.457031 227.3125 C 371.925781 224.921875 372.351562 222.523438 372.730469 220.117188 C 373.105469 217.710938 373.4375 215.300781 373.722656 212.882812 C 374.003906 210.460938 374.242188 208.039062 374.429688 205.609375 C 374.621094 203.183594 374.761719 200.753906 374.859375 198.320312 C 374.953125 195.886719 375 193.449219 375 191.015625 C 375 87.421875 291.09375 3.515625 187.5 3.515625 Z M 187.5 3.515625 " fill-opacity="1" fill-rule="nonzero"/></svg>