<?xml version="1.0" encoding="UTF-8"?><svg xmlns="http://www.w3.org/2000/svg" xmlns:xlink="http://www.w3.org/1999/xlink" width="810" zoomAndPan="magnify" viewBox="0 0 810 809.999993" height="809.999993" preserveAspectRatio="xMidYMid meet" version="1.0"><defs><clipPath id="clip-0"><path d="M 102.570312 4 L 638 4 L 638 780 L 102.570312 780 Z M 102.570312 4 " clip-rule="nonzero"/></clipPath><clipPath id="clip-1"><path d="M 102.570312 13 L 638 13 L 638 780 L 102.570312 780 Z M 102.570312 13 " clip-rule="nonzero"/></clipPath><clipPath id="clip-2"><path d="M 102.570312 331 L 501 331 L 501 780 L 102.570312 780 Z M 102.570312 331 " clip-rule="nonzero"/></clipPath><clipPath id="clip-3"><path d="M 181 47 L 677.820312 47 L 677.820312 793 L 181 793 Z M 181 47 " clip-rule="nonzero"/></clipPath></defs><g clip-path="url(#clip-0)"><path fill="rgb(86.268616%, 94.509888%, 97.648621%)" d="M 637.359375 60.953125 L 558.398438 15.726562 C 554.945312 13.207031 551.242188 11.082031 547.308594 9.371094 L 546.144531 8.710938 L 546.09375 8.8125 C 524.851562 0.179688 497.414062 3.292969 467.480469 20.566406 L 224.28125 160.921875 C 157.410156 199.523438 102.703125 294.261719 102.703125 371.460938 L 102.703125 652.179688 C 102.703125 689.828125 115.777344 716.527344 136.867188 729.621094 L 136.660156 729.992188 L 224.414062 779.699219 L 273.761719 693.804688 L 467.480469 582.003906 C 534.335938 543.40625 589.058594 448.660156 589.058594 371.46875 L 589.058594 145.011719 Z M 637.359375 60.953125 " fill-opacity="1" fill-rule="nonzero"/></g><g clip-path="url(#clip-1)"><path fill="rgb(79.998779%, 90.19928%, 94.898987%)" d="M 637.359375 60.953125 L 552.835938 41.128906 C 549.382812 38.617188 532.125 38.679688 528.1875 36.957031 L 521.917969 34.457031 L 510.640625 32.355469 C 489.398438 23.722656 497.414062 3.289062 467.480469 20.558594 L 224.28125 160.921875 C 157.410156 199.523438 102.703125 294.261719 102.703125 371.460938 L 102.703125 652.179688 C 102.703125 689.828125 115.777344 716.527344 136.867188 729.621094 L 136.660156 729.992188 L 224.414062 779.699219 L 273.761719 693.804688 L 467.480469 582.003906 C 534.335938 543.40625 589.058594 448.660156 589.058594 371.46875 L 589.058594 145.011719 Z M 637.359375 60.953125 " fill-opacity="1" fill-rule="nonzero"/></g><g clip-path="url(#clip-2)"><path fill="rgb(74.899292%, 85.099792%, 90.979004%)" d="M 107.351562 331.019531 C 104.402344 344.761719 102.71875 358.371094 102.71875 371.460938 L 102.71875 652.179688 C 102.71875 689.828125 115.796875 716.527344 136.882812 729.621094 L 136.679688 729.992188 L 224.433594 779.699219 L 273.78125 693.804688 L 467.5 582.003906 C 478.855469 575.449219 489.835938 567.167969 500.277344 557.714844 Z M 107.351562 331.019531 " fill-opacity="1" fill-rule="nonzero"/></g><path fill="rgb(100%, 100%, 100%)" d="M 307.882812 209.375 C 241.015625 247.96875 186.292969 342.71875 186.292969 419.914062 L 186.292969 700.640625 C 186.292969 777.835938 241.015625 809.414062 307.882812 770.808594 L 551.0625 630.453125 C 617.933594 591.859375 672.65625 497.113281 672.65625 419.914062 L 672.65625 139.191406 C 672.65625 61.996094 617.933594 30.421875 551.0625 69.023438 Z M 307.882812 209.375 " fill-opacity="1" fill-rule="nonzero"/><path fill="rgb(35.688782%, 75.289917%, 84.709167%)" d="M 672.648438 139.191406 C 672.648438 61.996094 617.925781 30.421875 551.058594 69.023438 L 307.875 209.375 C 241.007812 247.96875 186.285156 342.71875 186.285156 419.914062 L 186.285156 700.640625 C 186.285156 777.835938 241.007812 809.414062 307.875 770.808594 " fill-opacity="0.098" fill-rule="nonzero"/><g clip-path="url(#clip-3)"><path fill="rgb(100%, 100%, 100%)" d="M 253.867188 792.296875 L 253.855469 792.296875 C 209.769531 792.296875 181.285156 756.320312 181.285156 700.640625 L 181.285156 419.914062 C 181.285156 340.925781 236.941406 244.527344 305.363281 205.035156 L 548.558594 64.675781 C 568.273438 53.296875 587.292969 47.535156 605.085938 47.535156 C 649.171875 47.535156 677.667969 83.519531 677.667969 139.191406 L 677.667969 419.917969 C 677.667969 498.914062 621.996094 595.304688 553.578125 634.800781 L 310.382812 775.15625 C 290.667969 786.527344 271.660156 792.296875 253.867188 792.296875 Z M 605.089844 57.539062 C 589.078125 57.539062 571.746094 62.855469 553.582031 73.328125 L 310.382812 213.695312 C 244.726562 251.59375 191.304688 344.097656 191.304688 419.894531 L 191.304688 700.621094 C 191.304688 750.976562 215.269531 782.253906 253.855469 782.253906 L 253.867188 782.253906 C 269.882812 782.253906 287.199219 776.941406 305.363281 766.46875 L 548.558594 626.097656 C 614.210938 588.207031 667.636719 495.699219 667.636719 419.902344 L 667.636719 139.175781 C 667.640625 88.820312 643.675781 57.539062 605.089844 57.539062 Z M 605.089844 57.539062 " fill-opacity="1" fill-rule="nonzero"/></g><path fill="rgb(18.429565%, 21.179199%, 21.958923%)" d="M 435.125 238.652344 C 343.898438 291.316406 270.203125 419.265625 270.492188 524.441406 C 270.730469 608.585938 318.265625 652.667969 383.976562 639.976562 C 385 639.59375 385.941406 639.160156 386.808594 638.652344 C 392.9375 635.105469 395.242188 628.734375 395.234375 624.332031 C 395.214844 619.789062 395.054688 607.867188 394.914062 592.019531 C 388.726562 597.152344 383.199219 601.011719 378.261719 603.851562 C 346.535156 622.171875 339.1875 598.644531 339.1875 598.644531 C 331.601562 580.953125 320.761719 581.371094 320.761719 581.371094 C 306.375 578.316406 320.550781 569.886719 321.808594 569.167969 C 321.867188 569.128906 321.894531 569.117188 321.894531 569.117188 C 338.429688 560.910156 347.214844 574.167969 347.214844 574.167969 C 355.507812 585.644531 366.601562 583.785156 376.429688 578.121094 C 384.203125 573.636719 391.183594 566.773438 395.328125 562.226562 C 396.789062 549.027344 401.035156 538.195312 405.75 530.707031 C 369.046875 547.085938 330.441406 553.003906 330.238281 480.019531 C 330.183594 459.195312 336.589844 438.453125 347.089844 419.082031 C 345.410156 415.191406 339.6875 399.15625 348.574219 367.722656 C 348.574219 367.722656 349.777344 366.589844 352.265625 365.148438 C 358.25 361.6875 371.730469 356.480469 394.058594 361.035156 C 407.203125 349.234375 421.3125 338.945312 435.378906 330.765625 C 449.414062 322.71875 463.539062 316.710938 476.742188 313.304688 C 498.976562 283.035156 512.417969 272.710938 518.382812 269.261719 C 520.878906 267.839844 522.074219 267.578125 522.074219 267.578125 C 531.152344 288.644531 525.539062 311.222656 523.839844 317.074219 C 534.464844 324.253906 540.925781 337.566406 540.980469 358.390625 C 541.191406 431.542969 502.59375 469.960938 465.816406 495.882812 C 471.777344 498.328125 477.113281 506.90625 477.15625 524.667969 C 477.230469 550.179688 477.050781 570.804688 477.070312 577.105469 C 477.082031 581.519531 479.355469 585.28125 485.488281 581.734375 C 486.402344 581.207031 487.40625 580.535156 488.476562 579.664062 C 553.941406 516.589844 601.027344 417.949219 600.785156 333.800781 C 600.496094 228.609375 526.3125 186.039062 435.125 238.652344 " fill-opacity="1" fill-rule="nonzero"/><path fill="rgb(0%, 0%, 0%)" d="M 592.175781 278.546875 C 570.125 215.445312 508.09375 196.546875 435.125 238.652344 C 343.898438 291.316406 270.203125 419.265625 270.492188 524.441406 C 270.730469 608.335938 317.996094 652.371094 383.398438 640.058594 L 395.199219 619.628906 C 395.136719 613.613281 395.019531 603.933594 394.914062 592.019531 C 388.726562 597.152344 383.199219 601.011719 378.261719 603.851562 C 346.535156 622.171875 339.1875 598.644531 339.1875 598.644531 C 331.601562 580.953125 320.761719 581.371094 320.761719 581.371094 C 306.375 578.316406 320.550781 569.886719 321.808594 569.167969 C 321.871094 569.128906 321.894531 569.117188 321.894531 569.117188 C 338.429688 560.910156 347.214844 574.167969 347.214844 574.167969 C 355.507812 585.644531 366.601562 583.785156 376.433594 578.121094 C 384.203125 573.636719 391.183594 566.773438 395.328125 562.226562 C 396.789062 549.027344 401.035156 538.195312 405.75 530.707031 C 369.046875 547.085938 330.441406 553.003906 330.238281 480.019531 C 330.183594 459.195312 336.589844 438.453125 347.089844 419.082031 C 345.410156 415.191406 339.6875 399.15625 348.574219 367.722656 C 348.574219 367.722656 349.777344 366.589844 352.265625 365.148438 C 358.25 361.6875 371.730469 356.480469 394.058594 361.035156 C 407.203125 349.234375 421.3125 338.945312 435.378906 330.765625 C 449.414062 322.71875 463.539062 316.710938 476.742188 313.304688 C 498.976562 283.035156 512.417969 272.710938 518.382812 269.261719 C 520.878906 267.839844 522.074219 267.578125 522.074219 267.578125 C 531.152344 288.644531 525.539062 311.222656 523.839844 317.074219 C 534.464844 324.253906 540.925781 337.566406 540.980469 358.390625 C 540.992188 361.585938 540.832031 364.625 540.699219 367.691406 Z M 592.175781 278.546875 " fill-opacity="1" fill-rule="nonzero"/><path fill="rgb(0%, 0%, 0%)" d="M 465.816406 495.871094 C 466.03125 495.960938 466.242188 496.117188 466.457031 496.226562 L 467.269531 494.816406 C 466.789062 495.164062 466.304688 495.53125 465.816406 495.871094 Z M 465.816406 495.871094 " fill-opacity="1" fill-rule="nonzero"/></svg>