<?xml version="1.0" encoding="UTF-8" standalone="no" ?>
<!DOCTYPE svg PUBLIC "-//W3C//DTD SVG 1.1//EN" "http://www.w3.org/Graphics/SVG/1.1/DTD/svg11.dtd">
<svg xmlns="http://www.w3.org/2000/svg" xmlns:xlink="http://www.w3.org/1999/xlink" version="1.1" width="1080" height="1080" viewBox="14.79 -8.55 1080 1080" xml:space="preserve">
<desc>Created with Fabric.js 5.2.4</desc>
<defs>
</defs>
<g transform="matrix(1 0 0 1 540 540)" id="254dd746-318c-44c6-baaf-d73509f06cfb"  >
<rect style="stroke: none; stroke-width: 1; stroke-dasharray: none; stroke-linecap: butt; stroke-dashoffset: 0; stroke-linejoin: miter; stroke-miterlimit: 4; fill: rgb(255,255,255); fill-rule: nonzero; opacity: 1; visibility: hidden;" vector-effect="non-scaling-stroke"  x="-540" y="-540" rx="0" ry="0" width="1080" height="1080" />
</g>
<g transform="matrix(1 0 0 1 540 540)" id="c6c310e2-dee9-4509-a77d-edc6d9487a57"  >
</g>
<g transform="matrix(27.84 0 0 27.84 393.02 598.87)"  >
<path style="stroke: rgb(90,58,255); stroke-width: 16; stroke-dasharray: none; stroke-linecap: round; stroke-dashoffset: 0; stroke-linejoin: round; stroke-miterlimit: 4; fill: rgb(90,58,255); fill-rule: nonzero; opacity: 1;" vector-effect="non-scaling-stroke"  transform=" translate(-9.15, -14.47)" d="M 8.465 11.293 C 9.597999999999999 10.16 11.574 10.16 12.707 11.293 L 13.414000000000001 12 L 14.828000000000001 10.586 L 14.121 9.879 C 13.178 8.934999999999999 11.922 8.414 10.586 8.414 C 9.25 8.414 7.994 8.935 7.051 9.879 L 4.929 12 C 2.980829853155843 13.954436686353969 2.9808298531558424 17.116563313646033 4.929 19.070999999999998 C 5.865893936273858 20.009235157678283 7.138085309992646 20.53538615863355 8.464 20.532999999999998 C 9.790282943306654 20.535763176336523 11.062924176590847 20.009574974113253 12 19.071 L 12.707 18.364 L 11.293000000000001 16.95 L 10.586 17.657 C 9.412793010792935 18.82496066036932 7.516206989207066 18.82496066036932 6.343 17.657 C 5.173941950931375 16.484246337081256 5.173941950931375 14.586753662918742 6.343 13.414 L 8.465 11.293 z" stroke-linecap="round" />
</g>
<g transform="matrix(30 0 0 30 564 544.91)"  >
<path style="stroke: rgb(111,0,230); stroke-width: 50; stroke-dasharray: none; stroke-linecap: round; stroke-dashoffset: 0; stroke-linejoin: round; stroke-miterlimit: 4; fill: none; fill-rule: nonzero; opacity: 1;" vector-effect="non-scaling-stroke"  transform=" translate(-12, -12)" d="M 17 12 C 17 9.238576250846034 14.761423749153966 7 12 7 C 9.238576250846034 7 7 9.238576250846032 7 12 C 7 14.761423749153966 9.238576250846034 17 12 17" stroke-linecap="round" />
</g>
<g transform="matrix(30 0 0 30 564 334.91)"  >
<path style="stroke: rgb(111,0,230); stroke-width: 50; stroke-dasharray: none; stroke-linecap: round; stroke-dashoffset: 0; stroke-linejoin: round; stroke-miterlimit: 4; fill: rgb(111,0,230); fill-rule: nonzero; opacity: 1;" vector-effect="non-scaling-stroke"  transform=" translate(-12, -5)" d="M 12 7 L 12 3 M 11 3 L 13 3" stroke-linecap="round" />
</g>
<g transform="matrix(21.21 21.21 -21.21 21.21 712.5 394.35)"  >
<path style="stroke: rgb(111,0,230); stroke-width: 50; stroke-dasharray: none; stroke-linecap: round; stroke-dashoffset: 0; stroke-linejoin: round; stroke-miterlimit: 4; fill: none; fill-rule: nonzero; opacity: 1;" vector-effect="non-scaling-stroke"  transform=" translate(-12, -5)" d="M 12 7 L 12 3 M 11 3 L 13 3" stroke-linecap="round" />
</g>
<g transform="matrix(0 30 -30 0 775 544.91)"  >
<path style="stroke: rgb(111,0,230); stroke-width: 50; stroke-dasharray: none; stroke-linecap: round; stroke-dashoffset: 0; stroke-linejoin: round; stroke-miterlimit: 4; fill: none; fill-rule: nonzero; opacity: 1;" vector-effect="non-scaling-stroke"  transform=" translate(-12, -5)" d="M 12 7 L 12 3 M 11 3 L 13 3" stroke-linecap="round" />
</g>
<g transform="matrix(-30 0 0 -30 564 755.57)"  >
<path style="stroke: rgb(111,0,230); stroke-width: 50; stroke-dasharray: none; stroke-linecap: round; stroke-dashoffset: 0; stroke-linejoin: round; stroke-miterlimit: 4; fill: none; fill-rule: nonzero; opacity: 1;" vector-effect="non-scaling-stroke"  transform=" translate(-12, -5)" d="M 12 7 L 12 3 M 11 3 L 13 3" stroke-linecap="round" />
</g>
<g transform="matrix(-21.21 -21.21 21.21 -21.21 402.5 686.46)"  >
<path style="stroke: rgb(111,0,230); stroke-width: 50; stroke-dasharray: none; stroke-linecap: round; stroke-dashoffset: 0; stroke-linejoin: round; stroke-miterlimit: 4; fill: none; fill-rule: nonzero; opacity: 1;" vector-effect="non-scaling-stroke"  transform=" translate(-12, -5)" d="M 12 7 L 12 3 M 11 3 L 13 3" stroke-linecap="round" />
</g>
<g transform="matrix(0 -30 30 0 354 536.91)"  >
<path style="stroke: rgb(111,0,230); stroke-width: 50; stroke-dasharray: none; stroke-linecap: round; stroke-dashoffset: 0; stroke-linejoin: round; stroke-miterlimit: 4; fill: none; fill-rule: nonzero; opacity: 1;" vector-effect="non-scaling-stroke"  transform=" translate(-12, -5)" d="M 12 7 L 12 3 M 11 3 L 13 3" stroke-linecap="round" />
</g>
<g transform="matrix(28.39 0 0 28.39 724.14 476.67)"  >
<path style="stroke: rgb(90,58,255); stroke-width: 15; stroke-dasharray: none; stroke-linecap: round; stroke-dashoffset: 0; stroke-linejoin: round; stroke-miterlimit: 4; fill: rgb(90,58,255); fill-rule: nonzero; opacity: 1;" vector-effect="non-scaling-stroke"  transform=" translate(-14.85, -9.53)" d="M 12 4.929 L 11.293 5.636 L 12.706999999999999 7.05 L 13.414 6.343 C 14.587206989207065 5.17503933963068 16.483793010792933 5.17503933963068 17.657 6.342999999999998 C 18.826058049068628 7.515753662918742 18.826058049068624 9.413246337081258 17.657 10.586 L 15.535 12.707 C 14.402000000000001 13.84 12.426 13.84 11.293 12.707 L 10.586 12 L 9.172 13.414 L 9.879000000000001 14.121 C 10.822000000000001 15.065000000000001 12.078000000000001 15.586 13.414000000000001 15.586 C 14.750000000000002 15.586 16.006 15.065 16.949 14.121 L 19.071 12 C 21.01917014684416 10.045563313646033 21.01917014684416 6.883436686353968 19.071 4.929 C 17.11701774322986 2.979730577069687 13.953982256770145 2.979730577069687 12.000000000000002 4.929 z" stroke-linecap="round" />
</g>
<g transform="matrix(21.21 -21.21 21.21 21.21 403.44 387.41)"  >
<path style="stroke: rgb(111,0,230); stroke-width: 50; stroke-dasharray: none; stroke-linecap: round; stroke-dashoffset: 0; stroke-linejoin: round; stroke-miterlimit: 4; fill: none; fill-rule: nonzero; opacity: 1;" vector-effect="non-scaling-stroke"  transform=" translate(-12, -5)" d="M 12 7 L 12 3 M 11 3 L 13 3" stroke-linecap="round" />
</g>
<g transform="matrix(30 0 0 30 730.63 708.28)"  >
<circle style="stroke: rgb(111,0,230); stroke-width: 50; stroke-dasharray: none; stroke-linecap: round; stroke-dashoffset: 0; stroke-linejoin: round; stroke-miterlimit: 4; fill: none; fill-rule: nonzero; opacity: 1;" vector-effect="non-scaling-stroke"  cx="0" cy="0" r="2.5" />
</g>
<g transform="matrix(30 0 0 30 826.5 807.41)"  >
<line style="stroke: rgb(111,0,230); stroke-width: 50; stroke-dasharray: none; stroke-linecap: round; stroke-dashoffset: 0; stroke-linejoin: round; stroke-miterlimit: 4; fill: rgb(111,0,230); fill-rule: nonzero; opacity: 1;" vector-effect="non-scaling-stroke"  x1="-1.25" y1="-1.25" x2="1.25" y2="1.25" />
</g>
<g transform="matrix(0 0 0 0 0 0)"  >
<g style=""   >
</g>
</g>
<g transform="matrix(0 0 0 0 0 0)"  >
<g style=""   >
</g>
</g>
<g transform="matrix(0 0 0 0 0 0)"  >
<g style=""   >
</g>
</g>
<g transform="matrix(0 0 0 0 0 0)"  >
<g style=""   >
</g>
</g>
<g transform="matrix(0 0 0 0 0 0)"  >
<g style=""   >
</g>
</g>
<g transform="matrix(0 0 0 0 0 0)"  >
<g style=""   >
</g>
</g>
<g transform="matrix(0 0 0 0 0 0)"  >
<g style=""   >
</g>
</g>
<g transform="matrix(0 0 0 0 0 0)"  >
<g style=""   >
</g>
</g>
<g transform="matrix(0 0 0 0 0 0)"  >
<g style=""   >
</g>
</g>
<g transform="matrix(0 0 0 0 0 0)"  >
<g style=""   >
</g>
</g>
<g transform="matrix(0 0 0 0 0 0)"  >
<g style=""   >
</g>
</g>
<g transform="matrix(0 0 0 0 0 0)"  >
<g style=""   >
</g>
</g>
<g transform="matrix(0 0 0 0 0 0)"  >
<g style=""   >
</g>
</g>
<g transform="matrix(0 0 0 0 0 0)"  >
<g style=""   >
</g>
</g>
<g transform="matrix(0 0 0 0 0 0)"  >
<g style=""   >
</g>
</g>
<g transform="matrix(0 0 0 0 0 0)"  >
<g style=""   >
</g>
</g>
</svg>