<?xml version="1.0"?>
<svg xmlns="http://www.w3.org/2000/svg" style="fill:#e74747;" id="Outline" viewBox="0 0 512 512" width="512" height="512"><path d="M468.43,116.47c-20.951-27.931-67.711-35.652-128.887-21.514-1.312-3.145-2.667-6.234-4.064-9.243a31.984,31.984,0,0,0-35.7-51.282C286.06,22.21,271.358,16,256,16c-17.639,0-34.385,8.137-49.772,24.185C193.338,53.627,182,72.04,172.455,94.955,111.279,80.819,64.52,88.54,43.571,116.469,19.742,148.233,33.374,200.092,79.938,256q-3.81,4.575-7.377,9.17a31.977,31.977,0,0,0-31.646,52.954c-12.76,31.346-11.878,58.02,2.655,77.4,14.094,18.789,39.858,28.436,73.84,28.435,16.534,0,35.021-2.293,55.045-6.921,9.543,22.915,20.883,41.329,33.773,54.771C221.615,487.863,238.361,496,256,496s34.385-8.137,49.772-24.185c12.888-13.441,24.227-31.851,33.77-54.763q6.419,1.483,12.679,2.652a32,32,0,0,0,63.075,2.965c23.9-3.246,42.2-12.549,53.133-27.138,23.828-31.763,10.2-83.622-36.365-139.531C478.627,200.09,492.257,148.232,468.43,116.47Zm-12.8,9.6c18.536,24.709,5.376,69.34-34.231,117.694a464.789,464.789,0,0,0-57.492-52.894c-3.758-29.113-10.125-56.789-18.577-80.817C398.238,98.253,439.125,104.066,455.63,126.071Zm-125.9,271.985a412.988,412.988,0,0,1-55.118-19.685,567.178,567.178,0,0,0,50.432-29.415q10.537-6.891,20.688-14.19A368.316,368.316,0,0,1,329.734,398.056Zm-147.468,0a368.421,368.421,0,0,1-16-63.291q10.128,7.275,20.689,14.19a566.986,566.986,0,0,0,50.432,29.416A413.069,413.069,0,0,1,182.266,398.056Zm0-284.112a412.988,412.988,0,0,1,55.118,19.685,567.178,567.178,0,0,0-50.432,29.415q-10.538,6.891-20.688,14.19A368.316,368.316,0,0,1,182.266,113.944Zm13.442,221.62c-11.216-7.334-22.14-15.059-32.532-22.988a505.5,505.5,0,0,1,0-113.152c10.392-7.929,21.317-15.655,32.532-22.989A544.9,544.9,0,0,1,256,142.216a544.7,544.7,0,0,1,60.292,34.22c11.216,7.334,22.14,15.059,32.532,22.988A501.517,501.517,0,0,1,352,256a501.451,501.451,0,0,1-3.176,56.576c-10.392,7.929-21.317,15.655-32.532,22.989A544.9,544.9,0,0,1,256,369.784,544.7,544.7,0,0,1,195.708,335.564Zm-49.965-36.889A431.841,431.841,0,0,1,101.111,256a432.351,432.351,0,0,1,44.633-42.68C144.594,227.363,144,241.648,144,256S144.594,284.632,145.743,298.675ZM329.734,113.944a368.421,368.421,0,0,1,16,63.291q-10.128-7.275-20.689-14.19a566.986,566.986,0,0,0-50.432-29.416A413.069,413.069,0,0,1,329.734,113.944Zm36.523,99.381A431.841,431.841,0,0,1,410.889,256a432.351,432.351,0,0,1-44.633,42.68C367.406,284.637,368,270.352,368,256S367.406,227.368,366.257,213.325ZM328,64a16,16,0,1,1-16-16A16.019,16.019,0,0,1,328,64ZM256,32c10.468,0,20.791,4.158,30.772,12.349a31.98,31.98,0,0,0,35.094,50.087q1.014,2.239,2,4.53A444.147,444.147,0,0,0,256,124.483a444.153,444.153,0,0,0-67.877-25.522C206.362,56.276,230.834,32,256,32ZM56.37,126.07c16.505-22,57.39-27.818,110.3-16.016-8.45,24.024-14.817,51.694-18.575,80.807a465.419,465.419,0,0,0-57.494,52.9C50.994,195.412,37.833,150.78,56.37,126.07ZM64,280a16,16,0,1,1-16,16A16.019,16.019,0,0,1,64,280ZM56.371,385.931c-12.957-17.282-8.8-40.6-1.618-59.3A31.985,31.985,0,0,0,86.53,273.3q1.99-2.535,4.069-5.068a464.756,464.756,0,0,0,57.494,52.9c3.758,29.113,10.125,56.789,18.577,80.817C113.763,413.748,72.876,407.934,56.371,385.931ZM256,480c-25.166,0-49.638-24.276-67.877-66.962A444.014,444.014,0,0,0,256,387.517a444.27,444.27,0,0,0,67.877,25.522C305.638,455.724,281.166,480,256,480Zm128-48a16,16,0,1,1,16-16A16.019,16.019,0,0,1,384,432Zm71.627-46.067c-8.1,10.81-22.207,17.886-41.033,20.686a32,32,0,0,0-60.183-2.79q-4.485-.852-9.08-1.885c8.45-24.023,14.816-51.693,18.574-80.805a465.329,465.329,0,0,0,57.494-52.9C461.006,316.588,474.166,361.22,455.627,385.933Z"/><path d="M256,192a64,64,0,1,0,64,64A64.072,64.072,0,0,0,256,192Zm0,112a48,48,0,1,1,48-48A48.055,48.055,0,0,1,256,304Z"/></svg>
