<svg height="512" viewBox="0 0 512 512" width="512" style="fill:#e74747;" xmlns="http://www.w3.org/2000/svg"><path d="m475.58 165.44a111.964 111.964 0 0 0 -64.48-35.81 152.038 152.038 0 0 0 -285.13-25.35q-2.985-.28-5.97-.28a64.072 64.072 0 0 0 -64 64c0 1.57.06 3.16.18 4.74a96.011 96.011 0 0 0 47.82 179.26h120v48h-32a8 8 0 0 0 -6.25 13l64 80a8.01 8.01 0 0 0 12.5 0l64-80a8 8 0 0 0 -6.25-13h-32v-48h104a112 112 0 0 0 83.58-186.56zm-172.22 250.56-47.36 59.19-47.36-59.19h23.36a8 8 0 0 0 8-8v-144h32v144a8 8 0 0 0 8 8zm88.64-80h-104v-80a8 8 0 0 0 -8-8h-48a8 8 0 0 0 -8 8v80h-120a80.011 80.011 0 0 1 -35.66-151.63 8 8 0 0 0 4.32-8.48 47.961 47.961 0 0 1 47.34-55.89 48.745 48.745 0 0 1 9.32.91 8 8 0 0 0 8.93-4.79 136.039 136.039 0 0 1 258.53 22.37 8 8 0 0 0 6.85 6.21 96 96 0 0 1 -11.63 191.3z"/></svg>