<svg id="Icons" style="fill:#e74747;" height="512" viewBox="0 0 74 74" width="512" xmlns="http://www.w3.org/2000/svg"><path d="m67 59h-60a5.006 5.006 0 0 1 -5-5v-36h2v36a3 3 0 0 0 3 3h60a3 3 0 0 0 3-3v-44a3 3 0 0 0 -3-3h-60a3 3 0 0 0 -3 3v4h-2v-4a5.006 5.006 0 0 1 5-5h60a5.006 5.006 0 0 1 5 5v44a5.006 5.006 0 0 1 -5 5z"/><path d="m52 69h-30a1 1 0 0 1 -1-1c0-5 5.269-5 7-5h18c1.731 0 7 0 7 5a1 1 0 0 1 -1 1zm-28.879-2h27.758c-.349-1.231-1.556-2-4.879-2h-18c-3.323 0-4.53.769-4.879 2z"/><path d="m45 65h-16a1 1 0 0 1 -1-1v-6a1 1 0 0 1 1-1h16a1 1 0 0 1 1 1v6a1 1 0 0 1 -1 1zm-15-2h14v-4h-14z"/><path d="m3 49h68v2h-68z"/><path d="m33 53h8v2h-8z"/></svg>