<svg width="1407" height="487" viewBox="0 0 1407 487" fill="none" xmlns="http://www.w3.org/2000/svg">
<g clip-path="url(#clip0)">
<path d="M400.645 275.633C385.724 261.591 372.371 258.051 356.561 258.051C356.561 258.051 350.177 258.22 355.258 264.642C361.98 273.14 411.133 337.248 410.363 389.708C409.472 450.443 349.332 446.999 349.332 446.999C374.63 398.907 361.882 353.413 357.948 337.478C350.498 308.054 335.83 279.581 313.773 252.128C286.575 217.894 259.141 201.653 231.496 203.4C219.664 182.991 209.169 166.601 199.974 153.196C250.053 108.488 217.451 86.88 189.054 0C182.456 18.43 177.202 32.065 173.255 40.823C153.192 38.327 108.684 38.328 88.631 40.823C84.684 32.065 79.43 18.43 72.832 0C44.361 87.113 11.651 108.099 62.309 153.054C67.698 255.24 88.774 282.415 122.869 331.783C150.927 372.409 143.935 386.876 157.103 443.054C57.433 505.842 226.402 481.771 252.603 480.477C320.074 477.196 460.753 517.539 449.58 373.929C446.343 332.336 427.475 301.11 400.645 275.633ZM94.3 95.123C63.421 92.808 67.79 75.558 83.102 76.046C91.81 76.323 102.626 82.416 110.095 95.123H94.3ZM167.391 95.123H151.595C159.065 82.416 169.882 76.324 178.589 76.046C193.904 75.558 198.271 92.808 167.391 95.123Z" fill="#030104"/>
</g>
<path d="M712.72 234.784C718.096 234.784 722.32 236.32 725.392 239.392C728.656 242.272 730.288 246.304 730.288 251.488V307.648C730.288 315.328 729.616 321.28 728.272 325.504C727.12 329.728 725.008 333.088 721.936 335.584C718.864 338.08 714.256 340.192 708.112 341.92C700.624 344.224 691.984 346.048 682.192 347.392C672.592 348.736 663.472 349.408 654.832 349.408C633.328 349.408 614.704 345.28 598.96 337.024C583.216 328.576 571.12 316.576 562.672 301.024C554.224 285.28 550 266.656 550 245.152C550 224.032 554.128 205.696 562.384 190.144C570.832 174.4 582.832 162.304 598.384 153.856C613.936 145.408 632.08 141.184 652.816 141.184C679.504 141.184 701.584 148.096 719.056 161.92C721.936 164.224 723.952 166.528 725.104 168.832C726.256 171.136 726.832 174.016 726.832 177.472C726.832 182.464 725.392 186.784 722.512 190.432C719.824 193.888 716.56 195.616 712.72 195.616C710.224 195.616 707.92 195.232 705.808 194.464C703.888 193.696 701.488 192.448 698.608 190.72C690.544 185.728 683.152 182.176 676.432 180.064C669.712 177.952 662.32 176.896 654.256 176.896C615.088 176.896 595.504 199.648 595.504 245.152C595.504 268.576 600.592 286.048 610.768 297.568C620.944 309.088 636.304 314.848 656.848 314.848C667.984 314.848 679.024 313.408 689.968 310.528V265.888H663.472C657.904 265.888 653.584 264.544 650.512 261.856C647.44 259.168 645.904 255.328 645.904 250.336C645.904 245.344 647.44 241.504 650.512 238.816C653.584 236.128 657.904 234.784 663.472 234.784H712.72Z" fill="black"/>
<path d="M786.817 348.544C780.481 348.544 775.201 346.816 770.977 343.36C766.945 339.904 764.929 334.816 764.929 328.096V222.976C764.929 216.256 767.041 211.168 771.265 207.712C775.489 204.256 780.673 202.528 786.817 202.528C792.961 202.528 798.049 204.256 802.081 207.712C806.305 211.168 808.417 216.256 808.417 222.976V328.096C808.417 334.816 806.305 339.904 802.081 343.36C798.049 346.816 792.961 348.544 786.817 348.544ZM786.817 179.488C779.137 179.488 773.089 177.568 768.673 173.728C764.257 169.696 762.049 164.32 762.049 157.6C762.049 150.88 764.257 145.6 768.673 141.76C773.089 137.92 779.137 136 786.817 136C794.305 136 800.257 138.016 804.673 142.048C809.281 145.888 811.585 151.072 811.585 157.6C811.585 164.32 809.377 169.696 804.961 173.728C800.545 177.568 794.497 179.488 786.817 179.488Z" fill="black"/>
<path d="M928.772 316.864C934.532 317.248 938.756 318.688 941.444 321.184C944.132 323.68 945.476 327.328 945.476 332.128C945.476 337.696 943.268 341.92 938.852 344.8C934.436 347.68 928.1 348.832 919.844 348.256L911.78 347.68C878.18 344.992 861.38 327.424 861.38 294.976V237.952H849.86C843.524 237.952 838.724 236.608 835.46 233.92C832.196 231.04 830.564 227.008 830.564 221.824C830.564 216.448 832.196 212.416 835.46 209.728C838.724 206.848 843.524 205.408 849.86 205.408H861.38V182.944C861.38 176.608 863.3 171.616 867.14 167.968C871.172 164.32 876.548 162.496 883.268 162.496C889.988 162.496 895.268 164.32 899.108 167.968C902.948 171.616 904.868 176.608 904.868 182.944V205.408H925.028C938.084 205.408 944.612 210.88 944.612 221.824C944.612 227.008 942.98 231.04 939.716 233.92C936.452 236.608 931.556 237.952 925.028 237.952H904.868V298.144C904.868 303.904 906.212 308.32 908.9 311.392C911.588 314.272 915.524 315.904 920.708 316.288L928.772 316.864Z" fill="black"/>
<path d="M1058.29 349.408C1038.32 349.408 1020.85 345.184 1005.87 336.736C990.899 328.288 979.379 316.192 971.315 300.448C963.251 284.704 959.219 266.272 959.219 245.152C959.219 224.032 963.251 205.696 971.315 190.144C979.379 174.4 990.899 162.304 1005.87 153.856C1020.85 145.408 1038.32 141.184 1058.29 141.184C1083.44 141.184 1105.14 148.096 1123.38 161.92C1126.26 164.224 1128.27 166.528 1129.43 168.832C1130.58 171.136 1131.15 174.016 1131.15 177.472C1131.15 182.464 1129.71 186.784 1126.83 190.432C1124.15 193.888 1120.79 195.616 1116.75 195.616C1114.07 195.616 1111.67 195.328 1109.55 194.752C1107.63 193.984 1105.43 192.736 1102.93 191.008C1095.25 186.016 1088.15 182.464 1081.62 180.352C1075.09 178.048 1068.08 176.896 1060.59 176.896C1042.16 176.896 1028.24 182.656 1018.83 194.176C1009.62 205.504 1005.01 222.496 1005.01 245.152C1005.01 290.848 1023.54 313.696 1060.59 313.696C1067.7 313.696 1074.42 312.64 1080.75 310.528C1087.09 308.224 1094.48 304.576 1102.93 299.584C1105.81 297.856 1108.21 296.704 1110.13 296.128C1112.05 295.36 1114.26 294.976 1116.75 294.976C1120.79 294.976 1124.15 296.8 1126.83 300.448C1129.71 303.904 1131.15 308.128 1131.15 313.12C1131.15 316.576 1130.48 319.552 1129.14 322.048C1127.99 324.352 1126.07 326.56 1123.38 328.672C1105.14 342.496 1083.44 349.408 1058.29 349.408Z" fill="black"/>
<path d="M1217.55 201.952C1238.28 201.952 1253.64 207.04 1263.63 217.216C1273.61 227.2 1278.6 242.56 1278.6 263.296V328.384C1278.6 334.72 1276.78 339.712 1273.13 343.36C1269.48 346.816 1264.39 348.544 1257.87 348.544C1251.72 348.544 1246.73 346.72 1242.89 343.072C1239.24 339.232 1237.42 334.336 1237.42 328.384V326.368C1234.54 333.472 1229.74 339.04 1223.02 343.072C1216.3 347.104 1208.43 349.12 1199.4 349.12C1189.8 349.12 1181.07 347.2 1173.19 343.36C1165.51 339.52 1159.37 334.144 1154.76 327.232C1150.35 320.32 1148.14 312.64 1148.14 304.192C1148.14 293.824 1150.73 285.664 1155.91 279.712C1161.29 273.76 1169.83 269.44 1181.55 266.752C1193.26 264.064 1209.29 262.72 1229.64 262.72H1237.13V257.536C1237.13 249.472 1235.31 243.616 1231.66 239.968C1228.2 236.32 1222.35 234.496 1214.09 234.496C1205.83 234.496 1193.93 237.376 1178.38 243.136C1173.96 245.248 1170.22 246.304 1167.15 246.304C1162.92 246.304 1159.56 244.864 1157.07 241.984C1154.57 238.912 1153.32 234.976 1153.32 230.176C1153.32 226.336 1154.19 223.168 1155.91 220.672C1157.64 218.176 1160.43 215.872 1164.27 213.76C1170.99 210.112 1179.15 207.232 1188.75 205.12C1198.54 203.008 1208.14 201.952 1217.55 201.952ZM1208.91 319.168C1217.35 319.168 1224.17 316.384 1229.35 310.816C1234.54 305.056 1237.13 297.664 1237.13 288.64V283.744H1232.23C1216.68 283.744 1205.74 284.992 1199.4 287.488C1193.26 289.984 1190.19 294.496 1190.19 301.024C1190.19 306.4 1191.91 310.816 1195.37 314.272C1199.02 317.536 1203.53 319.168 1208.91 319.168Z" fill="black"/>
<path d="M1389.74 316.864C1395.5 317.248 1399.72 318.688 1402.41 321.184C1405.1 323.68 1406.44 327.328 1406.44 332.128C1406.44 337.696 1404.24 341.92 1399.82 344.8C1395.4 347.68 1389.07 348.832 1380.81 348.256L1372.75 347.68C1339.15 344.992 1322.35 327.424 1322.35 294.976V237.952H1310.83C1304.49 237.952 1299.69 236.608 1296.43 233.92C1293.16 231.04 1291.53 227.008 1291.53 221.824C1291.53 216.448 1293.16 212.416 1296.43 209.728C1299.69 206.848 1304.49 205.408 1310.83 205.408H1322.35V182.944C1322.35 176.608 1324.27 171.616 1328.11 167.968C1332.14 164.32 1337.52 162.496 1344.24 162.496C1350.96 162.496 1356.24 164.32 1360.08 167.968C1363.92 171.616 1365.84 176.608 1365.84 182.944V205.408H1386C1399.05 205.408 1405.58 210.88 1405.58 221.824C1405.58 227.008 1403.95 231.04 1400.68 233.92C1397.42 236.608 1392.52 237.952 1386 237.952H1365.84V298.144C1365.84 303.904 1367.18 308.32 1369.87 311.392C1372.56 314.272 1376.49 315.904 1381.68 316.288L1389.74 316.864Z" fill="black"/>
<defs>
<clipPath id="clip0">
<rect width="486.075" height="486.075" fill="white"/>
</clipPath>
</defs>
</svg>
